<ttFont>
    <TTGlyph name="A" xMin="0" yMin="0" xMax="696" yMax="679">
      <contour>
        <pt x="214" y="214" on="1"/>
        <pt x="168" y="79" on="1"/>
        <pt x="228" y="79" on="1"/>
        <pt x="243" y="79" on="0"/>
        <pt x="243" y="64" on="1"/>
        <pt x="243" y="15" on="1"/>
        <pt x="243" y="0" on="0"/>
        <pt x="228" y="0" on="1"/>
        <pt x="15" y="0" on="1"/>
        <pt x="0" y="0" on="0"/>
        <pt x="0" y="15" on="1"/>
        <pt x="0" y="64" on="1"/>
        <pt x="0" y="79" on="0"/>
        <pt x="15" y="79" on="1"/>
        <pt x="74" y="79" on="1"/>
        <pt x="274" y="665" on="1"/>
        <pt x="280" y="679" on="0"/>
        <pt x="294" y="679" on="1"/>
        <pt x="391" y="679" on="1"/>
        <pt x="405" y="679" on="0"/>
        <pt x="411" y="665" on="1"/>
        <pt x="613" y="79" on="1"/>
        <pt x="681" y="79" on="1"/>
        <pt x="696" y="79" on="0"/>
        <pt x="696" y="64" on="1"/>
        <pt x="696" y="15" on="1"/>
        <pt x="696" y="0" on="0"/>
        <pt x="681" y="0" on="1"/>
        <pt x="430" y="0" on="1"/>
        <pt x="415" y="0" on="0"/>
        <pt x="415" y="15" on="1"/>
        <pt x="415" y="64" on="1"/>
        <pt x="415" y="79" on="0"/>
        <pt x="430" y="79" on="1"/>
        <pt x="492" y="79" on="1"/>
        <pt x="445" y="214" on="1"/>
      </contour>
      <contour>
        <pt x="329" y="583" on="1"/>
        <pt x="234" y="289" on="1"/>
        <pt x="423" y="289" on="1"/>
      </contour>
    </TTGlyph>
    <TTGlyph name="AE" xMin="0" yMin="0" xMax="859" yMax="679">
      <contour>
        <pt x="437" y="214" on="1"/>
        <pt x="239" y="214" on="1"/>
        <pt x="168" y="79" on="1"/>
        <pt x="220" y="79" on="1"/>
        <pt x="231" y="80" on="0"/>
        <pt x="239" y="72" on="0"/>
        <pt x="239" y="61" on="1"/>
        <pt x="239" y="19" on="1"/>
        <pt x="239" y="8" on="0"/>
        <pt x="231" y="0" on="0"/>
        <pt x="220" y="0" on="1"/>
        <pt x="19" y="0" on="1"/>
        <pt x="8" y="0" on="0"/>
        <pt x="0" y="8" on="0"/>
        <pt x="0" y="19" on="1"/>
        <pt x="0" y="61" on="1"/>
        <pt x="0" y="72" on="0"/>
        <pt x="8" y="80" on="0"/>
        <pt x="19" y="79" on="1"/>
        <pt x="67" y="79" on="1"/>
        <pt x="344" y="599" on="1"/>
        <pt x="296" y="599" on="1"/>
        <pt x="285" y="598" on="0"/>
        <pt x="277" y="606" on="0"/>
        <pt x="277" y="617" on="1"/>
        <pt x="277" y="660" on="1"/>
        <pt x="277" y="671" on="0"/>
        <pt x="285" y="679" on="0"/>
        <pt x="296" y="679" on="1"/>
        <pt x="820" y="679" on="1"/>
        <pt x="831" y="679" on="0"/>
        <pt x="839" y="671" on="0"/>
        <pt x="839" y="660" on="1"/>
        <pt x="839" y="534" on="1"/>
        <pt x="839" y="523" on="0"/>
        <pt x="831" y="515" on="0"/>
        <pt x="820" y="515" on="1"/>
        <pt x="772" y="515" on="1"/>
        <pt x="761" y="515" on="0"/>
        <pt x="753" y="523" on="0"/>
        <pt x="754" y="534" on="1"/>
        <pt x="758" y="599" on="1"/>
        <pt x="549" y="599" on="1"/>
        <pt x="549" y="386" on="1"/>
        <pt x="698" y="386" on="1"/>
        <pt x="694" y="433" on="1"/>
        <pt x="693" y="444" on="0"/>
        <pt x="701" y="452" on="0"/>
        <pt x="712" y="452" on="1"/>
        <pt x="760" y="452" on="1"/>
        <pt x="771" y="452" on="0"/>
        <pt x="779" y="444" on="0"/>
        <pt x="779" y="433" on="1"/>
        <pt x="779" y="264" on="1"/>
        <pt x="779" y="253" on="0"/>
        <pt x="771" y="245" on="0"/>
        <pt x="760" y="245" on="1"/>
        <pt x="712" y="245" on="1"/>
        <pt x="701" y="245" on="0"/>
        <pt x="693" y="253" on="0"/>
        <pt x="694" y="264" on="1"/>
        <pt x="697" y="308" on="1"/>
        <pt x="549" y="308" on="1"/>
        <pt x="549" y="79" on="1"/>
        <pt x="778" y="79" on="1"/>
        <pt x="774" y="145" on="1"/>
        <pt x="773" y="156" on="0"/>
        <pt x="781" y="164" on="0"/>
        <pt x="792" y="164" on="1"/>
        <pt x="840" y="164" on="1"/>
        <pt x="851" y="164" on="0"/>
        <pt x="859" y="156" on="0"/>
        <pt x="859" y="145" on="1"/>
        <pt x="859" y="19" on="1"/>
        <pt x="859" y="8" on="0"/>
        <pt x="851" y="0" on="0"/>
        <pt x="840" y="0" on="1"/>
        <pt x="388" y="0" on="1"/>
        <pt x="377" y="0" on="0"/>
        <pt x="369" y="8" on="0"/>
        <pt x="369" y="19" on="1"/>
        <pt x="369" y="61" on="1"/>
        <pt x="369" y="72" on="0"/>
        <pt x="377" y="80" on="0"/>
        <pt x="388" y="79" on="1"/>
        <pt x="437" y="79" on="1"/>
      </contour>
      <contour>
        <pt x="437" y="289" on="1"/>
        <pt x="437" y="599" on="1"/>
        <pt x="273" y="289" on="1"/>
      </contour>
    </TTGlyph>
    <TTGlyph name="AEacute" xMin="0" yMin="0" xMax="859" yMax="858">
      <contour>
        <pt x="437" y="214" on="1"/>
        <pt x="239" y="214" on="1"/>
        <pt x="168" y="79" on="1"/>
        <pt x="220" y="79" on="1"/>
        <pt x="231" y="80" on="0"/>
        <pt x="239" y="72" on="0"/>
        <pt x="239" y="61" on="1"/>
        <pt x="239" y="19" on="1"/>
        <pt x="239" y="8" on="0"/>
        <pt x="231" y="0" on="0"/>
        <pt x="220" y="0" on="1"/>
        <pt x="19" y="0" on="1"/>
        <pt x="8" y="0" on="0"/>
        <pt x="0" y="8" on="0"/>
        <pt x="0" y="19" on="1"/>
        <pt x="0" y="61" on="1"/>
        <pt x="0" y="72" on="0"/>
        <pt x="8" y="80" on="0"/>
        <pt x="19" y="79" on="1"/>
        <pt x="67" y="79" on="1"/>
        <pt x="344" y="599" on="1"/>
        <pt x="296" y="599" on="1"/>
        <pt x="285" y="598" on="0"/>
        <pt x="277" y="606" on="0"/>
        <pt x="277" y="617" on="1"/>
        <pt x="277" y="660" on="1"/>
        <pt x="277" y="671" on="0"/>
        <pt x="285" y="679" on="0"/>
        <pt x="296" y="679" on="1"/>
        <pt x="820" y="679" on="1"/>
        <pt x="831" y="679" on="0"/>
        <pt x="839" y="671" on="0"/>
        <pt x="839" y="660" on="1"/>
        <pt x="839" y="534" on="1"/>
        <pt x="839" y="523" on="0"/>
        <pt x="831" y="515" on="0"/>
        <pt x="820" y="515" on="1"/>
        <pt x="772" y="515" on="1"/>
        <pt x="761" y="515" on="0"/>
        <pt x="753" y="523" on="0"/>
        <pt x="754" y="534" on="1"/>
        <pt x="758" y="599" on="1"/>
        <pt x="549" y="599" on="1"/>
        <pt x="549" y="386" on="1"/>
        <pt x="698" y="386" on="1"/>
        <pt x="694" y="433" on="1"/>
        <pt x="693" y="444" on="0"/>
        <pt x="701" y="452" on="0"/>
        <pt x="712" y="452" on="1"/>
        <pt x="760" y="452" on="1"/>
        <pt x="771" y="452" on="0"/>
        <pt x="779" y="444" on="0"/>
        <pt x="779" y="433" on="1"/>
        <pt x="779" y="264" on="1"/>
        <pt x="779" y="253" on="0"/>
        <pt x="771" y="245" on="0"/>
        <pt x="760" y="245" on="1"/>
        <pt x="712" y="245" on="1"/>
        <pt x="701" y="245" on="0"/>
        <pt x="693" y="253" on="0"/>
        <pt x="694" y="264" on="1"/>
        <pt x="697" y="308" on="1"/>
        <pt x="549" y="308" on="1"/>
        <pt x="549" y="79" on="1"/>
        <pt x="778" y="79" on="1"/>
        <pt x="774" y="145" on="1"/>
        <pt x="773" y="156" on="0"/>
        <pt x="781" y="164" on="0"/>
        <pt x="792" y="164" on="1"/>
        <pt x="840" y="164" on="1"/>
        <pt x="851" y="164" on="0"/>
        <pt x="859" y="156" on="0"/>
        <pt x="859" y="145" on="1"/>
        <pt x="859" y="19" on="1"/>
        <pt x="859" y="8" on="0"/>
        <pt x="851" y="0" on="0"/>
        <pt x="840" y="0" on="1"/>
        <pt x="388" y="0" on="1"/>
        <pt x="377" y="0" on="0"/>
        <pt x="369" y="8" on="0"/>
        <pt x="369" y="19" on="1"/>
        <pt x="369" y="61" on="1"/>
        <pt x="369" y="72" on="0"/>
        <pt x="377" y="80" on="0"/>
        <pt x="388" y="79" on="1"/>
        <pt x="437" y="79" on="1"/>
      </contour>
      <contour>
        <pt x="437" y="289" on="1"/>
        <pt x="437" y="599" on="1"/>
        <pt x="273" y="289" on="1"/>
      </contour>
      <contour>
        <pt x="512" y="746" on="1"/>
        <pt x="557" y="844" on="1"/>
        <pt x="563" y="858" on="0"/>
        <pt x="578" y="858" on="1"/>
        <pt x="656" y="858" on="1"/>
        <pt x="665" y="858" on="0"/>
        <pt x="665" y="850" on="0"/>
        <pt x="662" y="846" on="1"/>
        <pt x="592" y="744" on="1"/>
        <pt x="584" y="732" on="0"/>
        <pt x="569" y="732" on="1"/>
        <pt x="521" y="732" on="1"/>
        <pt x="510" y="732" on="0"/>
        <pt x="510" y="739" on="1"/>
        <pt x="510" y="742" on="0"/>
      </contour>
    </TTGlyph>
    <TTGlyph name="Aacute" xMin="0" yMin="0" xMax="696" yMax="858">
      <contour>
        <pt x="214" y="214" on="1"/>
        <pt x="168" y="79" on="1"/>
        <pt x="228" y="79" on="1"/>
        <pt x="243" y="79" on="0"/>
        <pt x="243" y="64" on="1"/>
        <pt x="243" y="15" on="1"/>
        <pt x="243" y="0" on="0"/>
        <pt x="228" y="0" on="1"/>
        <pt x="15" y="0" on="1"/>
        <pt x="0" y="0" on="0"/>
        <pt x="0" y="15" on="1"/>
        <pt x="0" y="64" on="1"/>
        <pt x="0" y="79" on="0"/>
        <pt x="15" y="79" on="1"/>
        <pt x="74" y="79" on="1"/>
        <pt x="274" y="665" on="1"/>
        <pt x="280" y="679" on="0"/>
        <pt x="294" y="679" on="1"/>
        <pt x="391" y="679" on="1"/>
        <pt x="405" y="679" on="0"/>
        <pt x="411" y="665" on="1"/>
        <pt x="613" y="79" on="1"/>
        <pt x="681" y="79" on="1"/>
        <pt x="696" y="79" on="0"/>
        <pt x="696" y="64" on="1"/>
        <pt x="696" y="15" on="1"/>
        <pt x="696" y="0" on="0"/>
        <pt x="681" y="0" on="1"/>
        <pt x="430" y="0" on="1"/>
        <pt x="415" y="0" on="0"/>
        <pt x="415" y="15" on="1"/>
        <pt x="415" y="64" on="1"/>
        <pt x="415" y="79" on="0"/>
        <pt x="430" y="79" on="1"/>
        <pt x="492" y="79" on="1"/>
        <pt x="445" y="214" on="1"/>
      </contour>
      <contour>
        <pt x="329" y="583" on="1"/>
        <pt x="234" y="289" on="1"/>
        <pt x="423" y="289" on="1"/>
      </contour>
      <contour>
        <pt x="312" y="746" on="1"/>
        <pt x="357" y="844" on="1"/>
        <pt x="363" y="858" on="0"/>
        <pt x="378" y="858" on="1"/>
        <pt x="456" y="858" on="1"/>
        <pt x="465" y="858" on="0"/>
        <pt x="465" y="850" on="0"/>
        <pt x="462" y="846" on="1"/>
        <pt x="392" y="744" on="1"/>
        <pt x="384" y="732" on="0"/>
        <pt x="369" y="732" on="1"/>
        <pt x="321" y="732" on="1"/>
        <pt x="310" y="732" on="0"/>
        <pt x="310" y="739" on="1"/>
        <pt x="310" y="742" on="0"/>
      </contour>
    </TTGlyph>
    <TTGlyph name="Abreve" xMin="0" yMin="0" xMax="696" yMax="872">
      <contour>
        <pt x="214" y="214" on="1"/>
        <pt x="168" y="79" on="1"/>
        <pt x="228" y="79" on="1"/>
        <pt x="243" y="79" on="0"/>
        <pt x="243" y="64" on="1"/>
        <pt x="243" y="15" on="1"/>
        <pt x="243" y="0" on="0"/>
        <pt x="228" y="0" on="1"/>
        <pt x="15" y="0" on="1"/>
        <pt x="0" y="0" on="0"/>
        <pt x="0" y="15" on="1"/>
        <pt x="0" y="64" on="1"/>
        <pt x="0" y="79" on="0"/>
        <pt x="15" y="79" on="1"/>
        <pt x="74" y="79" on="1"/>
        <pt x="274" y="665" on="1"/>
        <pt x="280" y="679" on="0"/>
        <pt x="294" y="679" on="1"/>
        <pt x="391" y="679" on="1"/>
        <pt x="405" y="679" on="0"/>
        <pt x="411" y="665" on="1"/>
        <pt x="613" y="79" on="1"/>
        <pt x="681" y="79" on="1"/>
        <pt x="696" y="79" on="0"/>
        <pt x="696" y="64" on="1"/>
        <pt x="696" y="15" on="1"/>
        <pt x="696" y="0" on="0"/>
        <pt x="681" y="0" on="1"/>
        <pt x="430" y="0" on="1"/>
        <pt x="415" y="0" on="0"/>
        <pt x="415" y="15" on="1"/>
        <pt x="415" y="64" on="1"/>
        <pt x="415" y="79" on="0"/>
        <pt x="430" y="79" on="1"/>
        <pt x="492" y="79" on="1"/>
        <pt x="445" y="214" on="1"/>
      </contour>
      <contour>
        <pt x="329" y="583" on="1"/>
        <pt x="234" y="289" on="1"/>
        <pt x="423" y="289" on="1"/>
      </contour>
      <contour>
        <pt x="263" y="853" on="1"/>
        <pt x="274" y="811" on="0"/>
        <pt x="429" y="811" on="0"/>
        <pt x="442" y="853" on="1"/>
        <pt x="446" y="865" on="0"/>
        <pt x="456" y="872" on="0"/>
        <pt x="468" y="872" on="1"/>
        <pt x="499" y="872" on="1"/>
        <pt x="517" y="872" on="0"/>
        <pt x="517" y="857" on="1"/>
        <pt x="517" y="800" on="0"/>
        <pt x="425" y="735" on="0"/>
        <pt x="273" y="735" on="0"/>
        <pt x="190" y="797" on="0"/>
        <pt x="188" y="853" on="1"/>
        <pt x="188" y="864" on="0"/>
        <pt x="196" y="872" on="0"/>
        <pt x="207" y="872" on="1"/>
        <pt x="239" y="872" on="1"/>
        <pt x="251" y="872" on="0"/>
        <pt x="260" y="865" on="0"/>
      </contour>
    </TTGlyph>
    <TTGlyph name="Acircumflex" xMin="0" yMin="0" xMax="696" yMax="863">
      <contour>
        <pt x="214" y="214" on="1"/>
        <pt x="168" y="79" on="1"/>
        <pt x="228" y="79" on="1"/>
        <pt x="243" y="79" on="0"/>
        <pt x="243" y="64" on="1"/>
        <pt x="243" y="15" on="1"/>
        <pt x="243" y="0" on="0"/>
        <pt x="228" y="0" on="1"/>
        <pt x="15" y="0" on="1"/>
        <pt x="0" y="0" on="0"/>
        <pt x="0" y="15" on="1"/>
        <pt x="0" y="64" on="1"/>
        <pt x="0" y="79" on="0"/>
        <pt x="15" y="79" on="1"/>
        <pt x="74" y="79" on="1"/>
        <pt x="274" y="665" on="1"/>
        <pt x="280" y="679" on="0"/>
        <pt x="294" y="679" on="1"/>
        <pt x="391" y="679" on="1"/>
        <pt x="405" y="679" on="0"/>
        <pt x="411" y="665" on="1"/>
        <pt x="613" y="79" on="1"/>
        <pt x="681" y="79" on="1"/>
        <pt x="696" y="79" on="0"/>
        <pt x="696" y="64" on="1"/>
        <pt x="696" y="15" on="1"/>
        <pt x="696" y="0" on="0"/>
        <pt x="681" y="0" on="1"/>
        <pt x="430" y="0" on="1"/>
        <pt x="415" y="0" on="0"/>
        <pt x="415" y="15" on="1"/>
        <pt x="415" y="64" on="1"/>
        <pt x="415" y="79" on="0"/>
        <pt x="430" y="79" on="1"/>
        <pt x="492" y="79" on="1"/>
        <pt x="445" y="214" on="1"/>
      </contour>
      <contour>
        <pt x="329" y="583" on="1"/>
        <pt x="234" y="289" on="1"/>
        <pt x="423" y="289" on="1"/>
      </contour>
      <contour>
        <pt x="258" y="732" on="1"/>
        <pt x="203" y="732" on="1"/>
        <pt x="194" y="732" on="0"/>
        <pt x="194" y="740" on="0"/>
        <pt x="197" y="744" on="1"/>
        <pt x="279" y="851" on="1"/>
        <pt x="288" y="863" on="0"/>
        <pt x="303" y="863" on="1"/>
        <pt x="379" y="863" on="1"/>
        <pt x="394" y="863" on="0"/>
        <pt x="403" y="851" on="1"/>
        <pt x="485" y="744" on="1"/>
        <pt x="488" y="740" on="0"/>
        <pt x="488" y="732" on="0"/>
        <pt x="479" y="732" on="1"/>
        <pt x="422" y="732" on="1"/>
        <pt x="406" y="732" on="0"/>
        <pt x="397" y="744" on="1"/>
        <pt x="339" y="815" on="1"/>
        <pt x="282" y="744" on="1"/>
        <pt x="273" y="732" on="0"/>
      </contour>
    </TTGlyph>
    <TTGlyph name="Adieresis" xMin="0" yMin="0" xMax="696" yMax="860">
      <contour>
        <pt x="214" y="214" on="1"/>
        <pt x="168" y="79" on="1"/>
        <pt x="228" y="79" on="1"/>
        <pt x="243" y="79" on="0"/>
        <pt x="243" y="64" on="1"/>
        <pt x="243" y="15" on="1"/>
        <pt x="243" y="0" on="0"/>
        <pt x="228" y="0" on="1"/>
        <pt x="15" y="0" on="1"/>
        <pt x="0" y="0" on="0"/>
        <pt x="0" y="15" on="1"/>
        <pt x="0" y="64" on="1"/>
        <pt x="0" y="79" on="0"/>
        <pt x="15" y="79" on="1"/>
        <pt x="74" y="79" on="1"/>
        <pt x="274" y="665" on="1"/>
        <pt x="280" y="679" on="0"/>
        <pt x="294" y="679" on="1"/>
        <pt x="391" y="679" on="1"/>
        <pt x="405" y="679" on="0"/>
        <pt x="411" y="665" on="1"/>
        <pt x="613" y="79" on="1"/>
        <pt x="681" y="79" on="1"/>
        <pt x="696" y="79" on="0"/>
        <pt x="696" y="64" on="1"/>
        <pt x="696" y="15" on="1"/>
        <pt x="696" y="0" on="0"/>
        <pt x="681" y="0" on="1"/>
        <pt x="430" y="0" on="1"/>
        <pt x="415" y="0" on="0"/>
        <pt x="415" y="15" on="1"/>
        <pt x="415" y="64" on="1"/>
        <pt x="415" y="79" on="0"/>
        <pt x="430" y="79" on="1"/>
        <pt x="492" y="79" on="1"/>
        <pt x="445" y="214" on="1"/>
      </contour>
      <contour>
        <pt x="329" y="583" on="1"/>
        <pt x="234" y="289" on="1"/>
        <pt x="423" y="289" on="1"/>
      </contour>
      <contour>
        <pt x="511" y="771" on="0"/>
        <pt x="476" y="738" on="0"/>
        <pt x="421" y="738" on="0"/>
        <pt x="387" y="771" on="0"/>
        <pt x="387" y="828" on="0"/>
        <pt x="421" y="860" on="0"/>
        <pt x="449" y="860" on="1"/>
        <pt x="511" y="860" on="0"/>
        <pt x="511" y="800" on="1"/>
      </contour>
      <contour>
        <pt x="308" y="771" on="0"/>
        <pt x="273" y="738" on="0"/>
        <pt x="218" y="738" on="0"/>
        <pt x="184" y="771" on="0"/>
        <pt x="184" y="828" on="0"/>
        <pt x="218" y="860" on="0"/>
        <pt x="246" y="860" on="1"/>
        <pt x="308" y="860" on="0"/>
        <pt x="308" y="800" on="1"/>
      </contour>
    </TTGlyph>
    <TTGlyph name="Agrave" xMin="0" yMin="0" xMax="696" yMax="858">
      <contour>
        <pt x="214" y="214" on="1"/>
        <pt x="168" y="79" on="1"/>
        <pt x="228" y="79" on="1"/>
        <pt x="243" y="79" on="0"/>
        <pt x="243" y="64" on="1"/>
        <pt x="243" y="15" on="1"/>
        <pt x="243" y="0" on="0"/>
        <pt x="228" y="0" on="1"/>
        <pt x="15" y="0" on="1"/>
        <pt x="0" y="0" on="0"/>
        <pt x="0" y="15" on="1"/>
        <pt x="0" y="64" on="1"/>
        <pt x="0" y="79" on="0"/>
        <pt x="15" y="79" on="1"/>
        <pt x="74" y="79" on="1"/>
        <pt x="274" y="665" on="1"/>
        <pt x="280" y="679" on="0"/>
        <pt x="294" y="679" on="1"/>
        <pt x="391" y="679" on="1"/>
        <pt x="405" y="679" on="0"/>
        <pt x="411" y="665" on="1"/>
        <pt x="613" y="79" on="1"/>
        <pt x="681" y="79" on="1"/>
        <pt x="696" y="79" on="0"/>
        <pt x="696" y="64" on="1"/>
        <pt x="696" y="15" on="1"/>
        <pt x="696" y="0" on="0"/>
        <pt x="681" y="0" on="1"/>
        <pt x="430" y="0" on="1"/>
        <pt x="415" y="0" on="0"/>
        <pt x="415" y="15" on="1"/>
        <pt x="415" y="64" on="1"/>
        <pt x="415" y="79" on="0"/>
        <pt x="430" y="79" on="1"/>
        <pt x="492" y="79" on="1"/>
        <pt x="445" y="214" on="1"/>
      </contour>
      <contour>
        <pt x="329" y="583" on="1"/>
        <pt x="234" y="289" on="1"/>
        <pt x="423" y="289" on="1"/>
      </contour>
      <contour>
        <pt x="342" y="841" on="1"/>
        <pt x="383" y="749" on="1"/>
        <pt x="385" y="744" on="0"/>
        <pt x="385" y="740" on="1"/>
        <pt x="385" y="732" on="0"/>
        <pt x="372" y="732" on="1"/>
        <pt x="332" y="732" on="1"/>
        <pt x="313" y="732" on="0"/>
        <pt x="302" y="747" on="1"/>
        <pt x="237" y="843" on="1"/>
        <pt x="233" y="848" on="0"/>
        <pt x="233" y="858" on="0"/>
        <pt x="245" y="858" on="1"/>
        <pt x="315" y="858" on="1"/>
        <pt x="334" y="858" on="0"/>
      </contour>
    </TTGlyph>
    <TTGlyph name="Amacron" xMin="0" yMin="0" xMax="696" yMax="841">
      <contour>
        <pt x="214" y="214" on="1"/>
        <pt x="168" y="79" on="1"/>
        <pt x="228" y="79" on="1"/>
        <pt x="243" y="79" on="0"/>
        <pt x="243" y="64" on="1"/>
        <pt x="243" y="15" on="1"/>
        <pt x="243" y="0" on="0"/>
        <pt x="228" y="0" on="1"/>
        <pt x="15" y="0" on="1"/>
        <pt x="0" y="0" on="0"/>
        <pt x="0" y="15" on="1"/>
        <pt x="0" y="64" on="1"/>
        <pt x="0" y="79" on="0"/>
        <pt x="15" y="79" on="1"/>
        <pt x="74" y="79" on="1"/>
        <pt x="274" y="665" on="1"/>
        <pt x="280" y="679" on="0"/>
        <pt x="294" y="679" on="1"/>
        <pt x="391" y="679" on="1"/>
        <pt x="405" y="679" on="0"/>
        <pt x="411" y="665" on="1"/>
        <pt x="613" y="79" on="1"/>
        <pt x="681" y="79" on="1"/>
        <pt x="696" y="79" on="0"/>
        <pt x="696" y="64" on="1"/>
        <pt x="696" y="15" on="1"/>
        <pt x="696" y="0" on="0"/>
        <pt x="681" y="0" on="1"/>
        <pt x="430" y="0" on="1"/>
        <pt x="415" y="0" on="0"/>
        <pt x="415" y="15" on="1"/>
        <pt x="415" y="64" on="1"/>
        <pt x="415" y="79" on="0"/>
        <pt x="430" y="79" on="1"/>
        <pt x="492" y="79" on="1"/>
        <pt x="445" y="214" on="1"/>
      </contour>
      <contour>
        <pt x="329" y="583" on="1"/>
        <pt x="234" y="289" on="1"/>
        <pt x="423" y="289" on="1"/>
      </contour>
      <contour>
        <pt x="478" y="760" on="1"/>
        <pt x="218" y="760" on="1"/>
        <pt x="207" y="760" on="0"/>
        <pt x="199" y="768" on="0"/>
        <pt x="199" y="779" on="1"/>
        <pt x="199" y="822" on="1"/>
        <pt x="199" y="833" on="0"/>
        <pt x="207" y="841" on="0"/>
        <pt x="218" y="841" on="1"/>
        <pt x="478" y="841" on="1"/>
        <pt x="489" y="841" on="0"/>
        <pt x="497" y="833" on="0"/>
        <pt x="497" y="822" on="1"/>
        <pt x="497" y="779" on="1"/>
        <pt x="497" y="768" on="0"/>
        <pt x="489" y="760" on="0"/>
      </contour>
    </TTGlyph>
    <TTGlyph name="Aogonek" xMin="0" yMin="-233" xMax="696" yMax="679">
      <contour>
        <pt x="450" y="-147" on="1"/>
        <pt x="450" y="-81" on="0"/>
        <pt x="537" y="0" on="1"/>
        <pt x="430" y="0" on="1"/>
        <pt x="415" y="0" on="0"/>
        <pt x="415" y="15" on="1"/>
        <pt x="415" y="64" on="1"/>
        <pt x="415" y="79" on="0"/>
        <pt x="430" y="79" on="1"/>
        <pt x="492" y="79" on="1"/>
        <pt x="445" y="214" on="1"/>
        <pt x="214" y="214" on="1"/>
        <pt x="168" y="79" on="1"/>
        <pt x="228" y="79" on="1"/>
        <pt x="243" y="79" on="0"/>
        <pt x="243" y="64" on="1"/>
        <pt x="243" y="15" on="1"/>
        <pt x="243" y="0" on="0"/>
        <pt x="228" y="0" on="1"/>
        <pt x="15" y="0" on="1"/>
        <pt x="0" y="0" on="0"/>
        <pt x="0" y="15" on="1"/>
        <pt x="0" y="64" on="1"/>
        <pt x="0" y="79" on="0"/>
        <pt x="15" y="79" on="1"/>
        <pt x="74" y="79" on="1"/>
        <pt x="274" y="665" on="1"/>
        <pt x="280" y="679" on="0"/>
        <pt x="294" y="679" on="1"/>
        <pt x="391" y="679" on="1"/>
        <pt x="405" y="679" on="0"/>
        <pt x="411" y="665" on="1"/>
        <pt x="613" y="79" on="1"/>
        <pt x="681" y="79" on="1"/>
        <pt x="696" y="79" on="0"/>
        <pt x="696" y="64" on="1"/>
        <pt x="696" y="15" on="1"/>
        <pt x="696" y="0" on="0"/>
        <pt x="681" y="0" on="1"/>
        <pt x="601" y="0" on="1"/>
        <pt x="529" y="-78" on="0"/>
        <pt x="529" y="-128" on="1"/>
        <pt x="529" y="-164" on="0"/>
        <pt x="562" y="-164" on="1"/>
        <pt x="580" y="-164" on="0"/>
        <pt x="614" y="-147" on="0"/>
        <pt x="620" y="-159" on="1"/>
        <pt x="630" y="-179" on="1"/>
        <pt x="638" y="-194" on="0"/>
        <pt x="623" y="-203" on="1"/>
        <pt x="579" y="-233" on="0"/>
        <pt x="494" y="-233" on="0"/>
        <pt x="450" y="-185" on="0"/>
      </contour>
      <contour>
        <pt x="329" y="583" on="1"/>
        <pt x="234" y="289" on="1"/>
        <pt x="423" y="289" on="1"/>
      </contour>
    </TTGlyph>
    <TTGlyph name="Aring" xMin="0" yMin="0" xMax="696" yMax="906">
      <contour>
        <pt x="214" y="214" on="1"/>
        <pt x="168" y="79" on="1"/>
        <pt x="228" y="79" on="1"/>
        <pt x="243" y="79" on="0"/>
        <pt x="243" y="64" on="1"/>
        <pt x="243" y="15" on="1"/>
        <pt x="243" y="0" on="0"/>
        <pt x="228" y="0" on="1"/>
        <pt x="15" y="0" on="1"/>
        <pt x="0" y="0" on="0"/>
        <pt x="0" y="15" on="1"/>
        <pt x="0" y="64" on="1"/>
        <pt x="0" y="79" on="0"/>
        <pt x="15" y="79" on="1"/>
        <pt x="74" y="79" on="1"/>
        <pt x="274" y="665" on="1"/>
        <pt x="280" y="679" on="0"/>
        <pt x="294" y="679" on="1"/>
        <pt x="391" y="679" on="1"/>
        <pt x="405" y="679" on="0"/>
        <pt x="411" y="665" on="1"/>
        <pt x="613" y="79" on="1"/>
        <pt x="681" y="79" on="1"/>
        <pt x="696" y="79" on="0"/>
        <pt x="696" y="64" on="1"/>
        <pt x="696" y="15" on="1"/>
        <pt x="696" y="0" on="0"/>
        <pt x="681" y="0" on="1"/>
        <pt x="430" y="0" on="1"/>
        <pt x="415" y="0" on="0"/>
        <pt x="415" y="15" on="1"/>
        <pt x="415" y="64" on="1"/>
        <pt x="415" y="79" on="0"/>
        <pt x="430" y="79" on="1"/>
        <pt x="492" y="79" on="1"/>
        <pt x="445" y="214" on="1"/>
      </contour>
      <contour>
        <pt x="329" y="583" on="1"/>
        <pt x="234" y="289" on="1"/>
        <pt x="423" y="289" on="1"/>
      </contour>
      <contour>
        <pt x="443" y="765" on="0"/>
        <pt x="387" y="705" on="0"/>
        <pt x="296" y="705" on="0"/>
        <pt x="244" y="763" on="0"/>
        <pt x="244" y="848" on="0"/>
        <pt x="301" y="906" on="0"/>
        <pt x="389" y="906" on="0"/>
        <pt x="443" y="850" on="0"/>
      </contour>
      <contour>
        <pt x="344" y="854" on="1"/>
        <pt x="302" y="854" on="0"/>
        <pt x="302" y="806" on="1"/>
        <pt x="302" y="785" on="0"/>
        <pt x="324" y="757" on="0"/>
        <pt x="364" y="757" on="0"/>
        <pt x="387" y="785" on="0"/>
        <pt x="387" y="828" on="0"/>
        <pt x="364" y="854" on="0"/>
      </contour>
    </TTGlyph>
    <TTGlyph name="Aringacute" xMin="0" yMin="0" xMax="696" yMax="990">
      <contour>
        <pt x="214" y="214" on="1"/>
        <pt x="168" y="79" on="1"/>
        <pt x="228" y="79" on="1"/>
        <pt x="243" y="79" on="0"/>
        <pt x="243" y="64" on="1"/>
        <pt x="243" y="15" on="1"/>
        <pt x="243" y="0" on="0"/>
        <pt x="228" y="0" on="1"/>
        <pt x="15" y="0" on="1"/>
        <pt x="0" y="0" on="0"/>
        <pt x="0" y="15" on="1"/>
        <pt x="0" y="64" on="1"/>
        <pt x="0" y="79" on="0"/>
        <pt x="15" y="79" on="1"/>
        <pt x="74" y="79" on="1"/>
        <pt x="274" y="665" on="1"/>
        <pt x="242" y="699" on="0"/>
        <pt x="242" y="789" on="0"/>
        <pt x="299" y="847" on="0"/>
        <pt x="387" y="847" on="0"/>
        <pt x="441" y="791" on="0"/>
        <pt x="441" y="707" on="0"/>
        <pt x="411" y="665" on="1"/>
        <pt x="613" y="79" on="1"/>
        <pt x="681" y="79" on="1"/>
        <pt x="696" y="79" on="0"/>
        <pt x="696" y="64" on="1"/>
        <pt x="696" y="15" on="1"/>
        <pt x="696" y="0" on="0"/>
        <pt x="681" y="0" on="1"/>
        <pt x="430" y="0" on="1"/>
        <pt x="415" y="0" on="0"/>
        <pt x="415" y="15" on="1"/>
        <pt x="415" y="64" on="1"/>
        <pt x="415" y="79" on="0"/>
        <pt x="430" y="79" on="1"/>
        <pt x="492" y="79" on="1"/>
        <pt x="445" y="214" on="1"/>
      </contour>
      <contour>
        <pt x="329" y="583" on="1"/>
        <pt x="234" y="289" on="1"/>
        <pt x="423" y="289" on="1"/>
      </contour>
      <contour>
        <pt x="292" y="878" on="1"/>
        <pt x="337" y="976" on="1"/>
        <pt x="343" y="990" on="0"/>
        <pt x="358" y="990" on="1"/>
        <pt x="436" y="990" on="1"/>
        <pt x="445" y="990" on="0"/>
        <pt x="445" y="982" on="0"/>
        <pt x="442" y="978" on="1"/>
        <pt x="372" y="876" on="1"/>
        <pt x="364" y="864" on="0"/>
        <pt x="349" y="864" on="1"/>
        <pt x="301" y="864" on="1"/>
        <pt x="290" y="864" on="0"/>
        <pt x="290" y="871" on="1"/>
        <pt x="290" y="874" on="0"/>
      </contour>
      <contour>
        <pt x="342" y="795" on="1"/>
        <pt x="300" y="795" on="0"/>
        <pt x="300" y="747" on="1"/>
        <pt x="300" y="726" on="0"/>
        <pt x="322" y="698" on="0"/>
        <pt x="362" y="698" on="0"/>
        <pt x="385" y="726" on="0"/>
        <pt x="385" y="769" on="0"/>
        <pt x="362" y="795" on="0"/>
      </contour>
    </TTGlyph>
    <TTGlyph name="Atilde" xMin="0" yMin="0" xMax="696" yMax="858">
      <contour>
        <pt x="214" y="214" on="1"/>
        <pt x="168" y="79" on="1"/>
        <pt x="228" y="79" on="1"/>
        <pt x="243" y="79" on="0"/>
        <pt x="243" y="64" on="1"/>
        <pt x="243" y="15" on="1"/>
        <pt x="243" y="0" on="0"/>
        <pt x="228" y="0" on="1"/>
        <pt x="15" y="0" on="1"/>
        <pt x="0" y="0" on="0"/>
        <pt x="0" y="15" on="1"/>
        <pt x="0" y="64" on="1"/>
        <pt x="0" y="79" on="0"/>
        <pt x="15" y="79" on="1"/>
        <pt x="74" y="79" on="1"/>
        <pt x="274" y="665" on="1"/>
        <pt x="280" y="679" on="0"/>
        <pt x="294" y="679" on="1"/>
        <pt x="391" y="679" on="1"/>
        <pt x="405" y="679" on="0"/>
        <pt x="411" y="665" on="1"/>
        <pt x="613" y="79" on="1"/>
        <pt x="681" y="79" on="1"/>
        <pt x="696" y="79" on="0"/>
        <pt x="696" y="64" on="1"/>
        <pt x="696" y="15" on="1"/>
        <pt x="696" y="0" on="0"/>
        <pt x="681" y="0" on="1"/>
        <pt x="430" y="0" on="1"/>
        <pt x="415" y="0" on="0"/>
        <pt x="415" y="15" on="1"/>
        <pt x="415" y="64" on="1"/>
        <pt x="415" y="79" on="0"/>
        <pt x="430" y="79" on="1"/>
        <pt x="492" y="79" on="1"/>
        <pt x="445" y="214" on="1"/>
      </contour>
      <contour>
        <pt x="329" y="583" on="1"/>
        <pt x="234" y="289" on="1"/>
        <pt x="423" y="289" on="1"/>
      </contour>
      <contour>
        <pt x="178" y="817" on="0"/>
        <pt x="222" y="858" on="0"/>
        <pt x="278" y="858" on="0"/>
        <pt x="410" y="817" on="0"/>
        <pt x="433" y="817" on="1"/>
        <pt x="467" y="817" on="0"/>
        <pt x="467" y="844" on="1"/>
        <pt x="467" y="857" on="0"/>
        <pt x="482" y="857" on="1"/>
        <pt x="506" y="857" on="1"/>
        <pt x="518" y="857" on="0"/>
        <pt x="518" y="843" on="1"/>
        <pt x="518" y="793" on="0"/>
        <pt x="475" y="744" on="0"/>
        <pt x="410" y="744" on="0"/>
        <pt x="278" y="782" on="0"/>
        <pt x="263" y="782" on="1"/>
        <pt x="233" y="782" on="0"/>
        <pt x="233" y="760" on="1"/>
        <pt x="233" y="753" on="0"/>
        <pt x="229" y="750" on="0"/>
        <pt x="221" y="750" on="1"/>
        <pt x="190" y="750" on="1"/>
        <pt x="178" y="750" on="0"/>
        <pt x="178" y="764" on="1"/>
      </contour>
    </TTGlyph>
    <TTGlyph name="B" xMin="39" yMin="0" xMax="562" yMax="685">
      <contour>
        <pt x="39" y="15" on="1"/>
        <pt x="39" y="64" on="1"/>
        <pt x="39" y="79" on="0"/>
        <pt x="54" y="79" on="1"/>
        <pt x="107" y="79" on="1"/>
        <pt x="107" y="598" on="1"/>
        <pt x="55" y="598" on="1"/>
        <pt x="40" y="598" on="0"/>
        <pt x="40" y="613" on="1"/>
        <pt x="40" y="664" on="1"/>
        <pt x="40" y="680" on="0"/>
        <pt x="55" y="680" on="1"/>
        <pt x="175" y="685" on="0"/>
        <pt x="391" y="685" on="0"/>
        <pt x="520" y="602" on="0"/>
        <pt x="520" y="525" on="1"/>
        <pt x="520" y="469" on="0"/>
        <pt x="451" y="386" on="0"/>
        <pt x="404" y="367" on="1"/>
        <pt x="481" y="355" on="0"/>
        <pt x="562" y="265" on="0"/>
        <pt x="562" y="200" on="1"/>
        <pt x="562" y="115" on="0"/>
        <pt x="436" y="10" on="0"/>
        <pt x="332" y="3" on="1"/>
        <pt x="289" y="0" on="0"/>
        <pt x="194" y="0" on="1"/>
        <pt x="54" y="0" on="1"/>
        <pt x="39" y="0" on="0"/>
      </contour>
      <contour>
        <pt x="219" y="315" on="1"/>
        <pt x="219" y="77" on="1"/>
        <pt x="264" y="77" on="1"/>
        <pt x="352" y="77" on="0"/>
        <pt x="449" y="133" on="0"/>
        <pt x="449" y="202" on="1"/>
        <pt x="449" y="315" on="0"/>
        <pt x="291" y="315" on="1"/>
      </contour>
      <contour>
        <pt x="219" y="604" on="1"/>
        <pt x="219" y="398" on="1"/>
        <pt x="257" y="398" on="1"/>
        <pt x="405" y="398" on="0"/>
        <pt x="405" y="501" on="1"/>
        <pt x="405" y="559" on="0"/>
        <pt x="333" y="604" on="0"/>
        <pt x="266" y="604" on="1"/>
      </contour>
    </TTGlyph>
    <TTGlyph name="C" xMin="43" yMin="-12" xMax="579" yMax="696">
      <contour>
        <pt x="43" y="336" on="1"/>
        <pt x="43" y="432" on="0"/>
        <pt x="100" y="578" on="0"/>
        <pt x="147" y="618" on="1"/>
        <pt x="239" y="696" on="0"/>
        <pt x="472" y="696" on="0"/>
        <pt x="565" y="645" on="1"/>
        <pt x="578" y="638" on="0"/>
        <pt x="578" y="625" on="1"/>
        <pt x="578" y="496" on="1"/>
        <pt x="578" y="481" on="0"/>
        <pt x="563" y="481" on="1"/>
        <pt x="507" y="481" on="1"/>
        <pt x="492" y="481" on="0"/>
        <pt x="493" y="496" on="1"/>
        <pt x="496" y="566" on="1"/>
        <pt x="434" y="608" on="0"/>
        <pt x="355" y="608" on="1"/>
        <pt x="163" y="608" on="0"/>
        <pt x="163" y="352" on="1"/>
        <pt x="163" y="272" on="0"/>
        <pt x="201" y="153" on="0"/>
        <pt x="297" y="75" on="0"/>
        <pt x="457" y="75" on="0"/>
        <pt x="497" y="107" on="1"/>
        <pt x="493" y="177" on="1"/>
        <pt x="492" y="192" on="0"/>
        <pt x="507" y="192" on="1"/>
        <pt x="564" y="192" on="1"/>
        <pt x="579" y="192" on="0"/>
        <pt x="579" y="177" on="1"/>
        <pt x="579" y="50" on="1"/>
        <pt x="579" y="36" on="0"/>
        <pt x="569" y="31" on="1"/>
        <pt x="481" y="-12" on="0"/>
        <pt x="368" y="-12" on="1"/>
        <pt x="204" y="-12" on="0"/>
        <pt x="43" y="174" on="0"/>
      </contour>
    </TTGlyph>
    <TTGlyph name="Cacute" xMin="43" yMin="-12" xMax="579" yMax="858">
      <contour>
        <pt x="43" y="336" on="1"/>
        <pt x="43" y="432" on="0"/>
        <pt x="100" y="578" on="0"/>
        <pt x="147" y="618" on="1"/>
        <pt x="239" y="696" on="0"/>
        <pt x="472" y="696" on="0"/>
        <pt x="565" y="645" on="1"/>
        <pt x="578" y="638" on="0"/>
        <pt x="578" y="625" on="1"/>
        <pt x="578" y="496" on="1"/>
        <pt x="578" y="481" on="0"/>
        <pt x="563" y="481" on="1"/>
        <pt x="507" y="481" on="1"/>
        <pt x="492" y="481" on="0"/>
        <pt x="493" y="496" on="1"/>
        <pt x="496" y="566" on="1"/>
        <pt x="434" y="608" on="0"/>
        <pt x="355" y="608" on="1"/>
        <pt x="163" y="608" on="0"/>
        <pt x="163" y="352" on="1"/>
        <pt x="163" y="272" on="0"/>
        <pt x="201" y="153" on="0"/>
        <pt x="297" y="75" on="0"/>
        <pt x="457" y="75" on="0"/>
        <pt x="497" y="107" on="1"/>
        <pt x="493" y="177" on="1"/>
        <pt x="492" y="192" on="0"/>
        <pt x="507" y="192" on="1"/>
        <pt x="564" y="192" on="1"/>
        <pt x="579" y="192" on="0"/>
        <pt x="579" y="177" on="1"/>
        <pt x="579" y="50" on="1"/>
        <pt x="579" y="36" on="0"/>
        <pt x="569" y="31" on="1"/>
        <pt x="481" y="-12" on="0"/>
        <pt x="368" y="-12" on="1"/>
        <pt x="204" y="-12" on="0"/>
        <pt x="43" y="174" on="0"/>
      </contour>
      <contour>
        <pt x="321" y="746" on="1"/>
        <pt x="366" y="844" on="1"/>
        <pt x="372" y="858" on="0"/>
        <pt x="387" y="858" on="1"/>
        <pt x="465" y="858" on="1"/>
        <pt x="474" y="858" on="0"/>
        <pt x="474" y="850" on="0"/>
        <pt x="471" y="846" on="1"/>
        <pt x="401" y="744" on="1"/>
        <pt x="394" y="732" on="0"/>
        <pt x="378" y="732" on="1"/>
        <pt x="330" y="732" on="1"/>
        <pt x="319" y="732" on="0"/>
        <pt x="319" y="739" on="1"/>
        <pt x="319" y="742" on="0"/>
      </contour>
    </TTGlyph>
    <TTGlyph name="Ccaron" xMin="43" yMin="-12" xMax="579" yMax="863">
      <contour>
        <pt x="43" y="336" on="1"/>
        <pt x="43" y="432" on="0"/>
        <pt x="100" y="578" on="0"/>
        <pt x="147" y="618" on="1"/>
        <pt x="239" y="696" on="0"/>
        <pt x="472" y="696" on="0"/>
        <pt x="565" y="645" on="1"/>
        <pt x="578" y="638" on="0"/>
        <pt x="578" y="625" on="1"/>
        <pt x="578" y="496" on="1"/>
        <pt x="578" y="481" on="0"/>
        <pt x="563" y="481" on="1"/>
        <pt x="507" y="481" on="1"/>
        <pt x="492" y="481" on="0"/>
        <pt x="493" y="496" on="1"/>
        <pt x="496" y="566" on="1"/>
        <pt x="434" y="608" on="0"/>
        <pt x="355" y="608" on="1"/>
        <pt x="163" y="608" on="0"/>
        <pt x="163" y="352" on="1"/>
        <pt x="163" y="272" on="0"/>
        <pt x="201" y="153" on="0"/>
        <pt x="297" y="75" on="0"/>
        <pt x="457" y="75" on="0"/>
        <pt x="497" y="107" on="1"/>
        <pt x="493" y="177" on="1"/>
        <pt x="492" y="192" on="0"/>
        <pt x="507" y="192" on="1"/>
        <pt x="564" y="192" on="1"/>
        <pt x="579" y="192" on="0"/>
        <pt x="579" y="177" on="1"/>
        <pt x="579" y="50" on="1"/>
        <pt x="579" y="36" on="0"/>
        <pt x="569" y="31" on="1"/>
        <pt x="481" y="-12" on="0"/>
        <pt x="368" y="-12" on="1"/>
        <pt x="204" y="-12" on="0"/>
        <pt x="43" y="174" on="0"/>
      </contour>
      <contour>
        <pt x="444" y="863" on="1"/>
        <pt x="499" y="863" on="1"/>
        <pt x="508" y="863" on="0"/>
        <pt x="508" y="856" on="0"/>
        <pt x="505" y="851" on="1"/>
        <pt x="423" y="744" on="1"/>
        <pt x="414" y="732" on="0"/>
        <pt x="399" y="732" on="1"/>
        <pt x="323" y="732" on="1"/>
        <pt x="308" y="732" on="0"/>
        <pt x="299" y="744" on="1"/>
        <pt x="217" y="851" on="1"/>
        <pt x="214" y="856" on="0"/>
        <pt x="214" y="863" on="0"/>
        <pt x="223" y="863" on="1"/>
        <pt x="280" y="863" on="1"/>
        <pt x="296" y="863" on="0"/>
        <pt x="305" y="851" on="1"/>
        <pt x="363" y="780" on="1"/>
        <pt x="420" y="851" on="1"/>
        <pt x="429" y="863" on="0"/>
      </contour>
    </TTGlyph>
    <TTGlyph name="Ccedilla" xMin="43" yMin="-216" xMax="579" yMax="696">
      <contour>
        <pt x="43" y="336" on="1"/>
        <pt x="43" y="432" on="0"/>
        <pt x="100" y="578" on="0"/>
        <pt x="147" y="618" on="1"/>
        <pt x="239" y="696" on="0"/>
        <pt x="472" y="696" on="0"/>
        <pt x="565" y="645" on="1"/>
        <pt x="578" y="638" on="0"/>
        <pt x="578" y="625" on="1"/>
        <pt x="578" y="496" on="1"/>
        <pt x="578" y="481" on="0"/>
        <pt x="563" y="481" on="1"/>
        <pt x="507" y="481" on="1"/>
        <pt x="492" y="481" on="0"/>
        <pt x="493" y="496" on="1"/>
        <pt x="496" y="566" on="1"/>
        <pt x="434" y="608" on="0"/>
        <pt x="355" y="608" on="1"/>
        <pt x="163" y="608" on="0"/>
        <pt x="163" y="352" on="1"/>
        <pt x="163" y="272" on="0"/>
        <pt x="201" y="153" on="0"/>
        <pt x="297" y="75" on="0"/>
        <pt x="457" y="75" on="0"/>
        <pt x="497" y="107" on="1"/>
        <pt x="493" y="177" on="1"/>
        <pt x="492" y="192" on="0"/>
        <pt x="507" y="192" on="1"/>
        <pt x="564" y="192" on="1"/>
        <pt x="579" y="192" on="0"/>
        <pt x="579" y="177" on="1"/>
        <pt x="579" y="50" on="1"/>
        <pt x="579" y="36" on="0"/>
        <pt x="569" y="31" on="1"/>
        <pt x="491" y="-7" on="0"/>
        <pt x="392" y="-11" on="1"/>
        <pt x="379" y="-32" on="1"/>
        <pt x="395" y="-46" on="1"/>
        <pt x="433" y="-79" on="0"/>
        <pt x="433" y="-108" on="1"/>
        <pt x="433" y="-149" on="0"/>
        <pt x="337" y="-213" on="1"/>
        <pt x="332" y="-216" on="0"/>
        <pt x="321" y="-216" on="0"/>
        <pt x="316" y="-210" on="1"/>
        <pt x="308" y="-200" on="1"/>
        <pt x="299" y="-189" on="0"/>
        <pt x="309" y="-180" on="1"/>
        <pt x="350" y="-144" on="0"/>
        <pt x="350" y="-104" on="0"/>
        <pt x="328" y="-87" on="1"/>
        <pt x="319" y="-80" on="1"/>
        <pt x="308" y="-71" on="0"/>
        <pt x="316" y="-59" on="1"/>
        <pt x="349" y="-11" on="1"/>
        <pt x="194" y="-6" on="0"/>
        <pt x="43" y="179" on="0"/>
      </contour>
    </TTGlyph>
    <TTGlyph name="Ccircumflex" xMin="43" yMin="-12" xMax="579" yMax="863">
      <contour>
        <pt x="43" y="336" on="1"/>
        <pt x="43" y="432" on="0"/>
        <pt x="100" y="578" on="0"/>
        <pt x="147" y="618" on="1"/>
        <pt x="239" y="696" on="0"/>
        <pt x="472" y="696" on="0"/>
        <pt x="565" y="645" on="1"/>
        <pt x="578" y="638" on="0"/>
        <pt x="578" y="625" on="1"/>
        <pt x="578" y="496" on="1"/>
        <pt x="578" y="481" on="0"/>
        <pt x="563" y="481" on="1"/>
        <pt x="507" y="481" on="1"/>
        <pt x="492" y="481" on="0"/>
        <pt x="493" y="496" on="1"/>
        <pt x="496" y="566" on="1"/>
        <pt x="434" y="608" on="0"/>
        <pt x="355" y="608" on="1"/>
        <pt x="163" y="608" on="0"/>
        <pt x="163" y="352" on="1"/>
        <pt x="163" y="272" on="0"/>
        <pt x="201" y="153" on="0"/>
        <pt x="297" y="75" on="0"/>
        <pt x="457" y="75" on="0"/>
        <pt x="497" y="107" on="1"/>
        <pt x="493" y="177" on="1"/>
        <pt x="492" y="192" on="0"/>
        <pt x="507" y="192" on="1"/>
        <pt x="564" y="192" on="1"/>
        <pt x="579" y="192" on="0"/>
        <pt x="579" y="177" on="1"/>
        <pt x="579" y="50" on="1"/>
        <pt x="579" y="36" on="0"/>
        <pt x="569" y="31" on="1"/>
        <pt x="481" y="-12" on="0"/>
        <pt x="368" y="-12" on="1"/>
        <pt x="204" y="-12" on="0"/>
        <pt x="43" y="174" on="0"/>
      </contour>
      <contour>
        <pt x="277" y="732" on="1"/>
        <pt x="222" y="732" on="1"/>
        <pt x="213" y="732" on="0"/>
        <pt x="213" y="740" on="0"/>
        <pt x="216" y="744" on="1"/>
        <pt x="298" y="851" on="1"/>
        <pt x="307" y="863" on="0"/>
        <pt x="322" y="863" on="1"/>
        <pt x="398" y="863" on="1"/>
        <pt x="413" y="863" on="0"/>
        <pt x="422" y="851" on="1"/>
        <pt x="504" y="744" on="1"/>
        <pt x="507" y="740" on="0"/>
        <pt x="507" y="732" on="0"/>
        <pt x="498" y="732" on="1"/>
        <pt x="441" y="732" on="1"/>
        <pt x="425" y="732" on="0"/>
        <pt x="416" y="744" on="1"/>
        <pt x="358" y="815" on="1"/>
        <pt x="301" y="744" on="1"/>
        <pt x="292" y="732" on="0"/>
      </contour>
    </TTGlyph>
    <TTGlyph name="Cdotaccent" xMin="43" yMin="-12" xMax="579" yMax="873">
      <contour>
        <pt x="43" y="336" on="1"/>
        <pt x="43" y="432" on="0"/>
        <pt x="100" y="578" on="0"/>
        <pt x="147" y="618" on="1"/>
        <pt x="239" y="696" on="0"/>
        <pt x="472" y="696" on="0"/>
        <pt x="565" y="645" on="1"/>
        <pt x="578" y="638" on="0"/>
        <pt x="578" y="625" on="1"/>
        <pt x="578" y="496" on="1"/>
        <pt x="578" y="481" on="0"/>
        <pt x="563" y="481" on="1"/>
        <pt x="507" y="481" on="1"/>
        <pt x="492" y="481" on="0"/>
        <pt x="493" y="496" on="1"/>
        <pt x="496" y="566" on="1"/>
        <pt x="434" y="608" on="0"/>
        <pt x="355" y="608" on="1"/>
        <pt x="163" y="608" on="0"/>
        <pt x="163" y="352" on="1"/>
        <pt x="163" y="272" on="0"/>
        <pt x="201" y="153" on="0"/>
        <pt x="297" y="75" on="0"/>
        <pt x="457" y="75" on="0"/>
        <pt x="497" y="107" on="1"/>
        <pt x="493" y="177" on="1"/>
        <pt x="492" y="192" on="0"/>
        <pt x="507" y="192" on="1"/>
        <pt x="564" y="192" on="1"/>
        <pt x="579" y="192" on="0"/>
        <pt x="579" y="177" on="1"/>
        <pt x="579" y="50" on="1"/>
        <pt x="579" y="36" on="0"/>
        <pt x="569" y="31" on="1"/>
        <pt x="481" y="-12" on="0"/>
        <pt x="368" y="-12" on="1"/>
        <pt x="204" y="-12" on="0"/>
        <pt x="43" y="174" on="0"/>
      </contour>
      <contour>
        <pt x="282" y="770" on="0"/>
        <pt x="282" y="832" on="0"/>
        <pt x="321" y="873" on="0"/>
        <pt x="386" y="873" on="0"/>
        <pt x="425" y="832" on="0"/>
        <pt x="425" y="770" on="0"/>
        <pt x="385" y="730" on="0"/>
        <pt x="320" y="730" on="0"/>
      </contour>
    </TTGlyph>
    <TTGlyph name="D" xMin="40" yMin="0" xMax="636" yMax="685">
      <contour>
        <pt x="55" y="679" on="1"/>
        <pt x="183" y="685" on="0"/>
        <pt x="307" y="685" on="0"/>
        <pt x="368" y="680" on="0"/>
        <pt x="446" y="664" on="0"/>
        <pt x="507" y="637" on="0"/>
        <pt x="569" y="587" on="0"/>
        <pt x="590" y="554" on="1"/>
        <pt x="636" y="478" on="0"/>
        <pt x="636" y="358" on="1"/>
        <pt x="636" y="177" on="0"/>
        <pt x="436" y="0" on="0"/>
        <pt x="263" y="0" on="1"/>
        <pt x="55" y="0" on="1"/>
        <pt x="40" y="0" on="0"/>
        <pt x="40" y="15" on="1"/>
        <pt x="40" y="64" on="1"/>
        <pt x="40" y="79" on="0"/>
        <pt x="55" y="79" on="1"/>
        <pt x="107" y="79" on="1"/>
        <pt x="107" y="598" on="1"/>
        <pt x="55" y="598" on="1"/>
        <pt x="40" y="598" on="0"/>
        <pt x="40" y="613" on="1"/>
        <pt x="40" y="664" on="1"/>
        <pt x="40" y="679" on="0"/>
      </contour>
      <contour>
        <pt x="395" y="78" on="0"/>
        <pt x="516" y="222" on="0"/>
        <pt x="516" y="472" on="0"/>
        <pt x="403" y="602" on="0"/>
        <pt x="283" y="602" on="1"/>
        <pt x="219" y="602" on="1"/>
        <pt x="219" y="78" on="1"/>
        <pt x="285" y="78" on="1"/>
      </contour>
    </TTGlyph>
    <TTGlyph name="Dcaron" xMin="40" yMin="0" xMax="636" yMax="863">
      <contour>
        <pt x="55" y="679" on="1"/>
        <pt x="183" y="685" on="0"/>
        <pt x="307" y="685" on="0"/>
        <pt x="368" y="680" on="0"/>
        <pt x="446" y="664" on="0"/>
        <pt x="507" y="637" on="0"/>
        <pt x="569" y="587" on="0"/>
        <pt x="590" y="554" on="1"/>
        <pt x="636" y="478" on="0"/>
        <pt x="636" y="358" on="1"/>
        <pt x="636" y="177" on="0"/>
        <pt x="436" y="0" on="0"/>
        <pt x="263" y="0" on="1"/>
        <pt x="55" y="0" on="1"/>
        <pt x="40" y="0" on="0"/>
        <pt x="40" y="15" on="1"/>
        <pt x="40" y="64" on="1"/>
        <pt x="40" y="79" on="0"/>
        <pt x="55" y="79" on="1"/>
        <pt x="107" y="79" on="1"/>
        <pt x="107" y="598" on="1"/>
        <pt x="55" y="598" on="1"/>
        <pt x="40" y="598" on="0"/>
        <pt x="40" y="613" on="1"/>
        <pt x="40" y="664" on="1"/>
        <pt x="40" y="679" on="0"/>
      </contour>
      <contour>
        <pt x="395" y="78" on="0"/>
        <pt x="516" y="222" on="0"/>
        <pt x="516" y="472" on="0"/>
        <pt x="403" y="602" on="0"/>
        <pt x="283" y="602" on="1"/>
        <pt x="219" y="602" on="1"/>
        <pt x="219" y="78" on="1"/>
        <pt x="285" y="78" on="1"/>
      </contour>
      <contour>
        <pt x="369" y="863" on="1"/>
        <pt x="424" y="863" on="1"/>
        <pt x="433" y="863" on="0"/>
        <pt x="433" y="856" on="0"/>
        <pt x="430" y="851" on="1"/>
        <pt x="348" y="744" on="1"/>
        <pt x="339" y="732" on="0"/>
        <pt x="324" y="732" on="1"/>
        <pt x="248" y="732" on="1"/>
        <pt x="233" y="732" on="0"/>
        <pt x="224" y="744" on="1"/>
        <pt x="142" y="851" on="1"/>
        <pt x="139" y="856" on="0"/>
        <pt x="139" y="863" on="0"/>
        <pt x="148" y="863" on="1"/>
        <pt x="205" y="863" on="1"/>
        <pt x="221" y="863" on="0"/>
        <pt x="230" y="851" on="1"/>
        <pt x="288" y="780" on="1"/>
        <pt x="345" y="851" on="1"/>
        <pt x="354" y="863" on="0"/>
      </contour>
    </TTGlyph>
    <TTGlyph name="Dcroat" xMin="53" yMin="0" xMax="649" yMax="685">
      <contour>
        <pt x="68" y="679" on="1"/>
        <pt x="196" y="685" on="0"/>
        <pt x="320" y="685" on="0"/>
        <pt x="381" y="680" on="0"/>
        <pt x="459" y="664" on="0"/>
        <pt x="520" y="637" on="0"/>
        <pt x="582" y="587" on="0"/>
        <pt x="602" y="554" on="1"/>
        <pt x="649" y="478" on="0"/>
        <pt x="649" y="358" on="1"/>
        <pt x="649" y="177" on="0"/>
        <pt x="449" y="0" on="0"/>
        <pt x="276" y="0" on="1"/>
        <pt x="68" y="0" on="1"/>
        <pt x="53" y="0" on="0"/>
        <pt x="53" y="15" on="1"/>
        <pt x="53" y="64" on="1"/>
        <pt x="53" y="79" on="0"/>
        <pt x="68" y="79" on="1"/>
        <pt x="120" y="79" on="1"/>
        <pt x="120" y="314" on="1"/>
        <pt x="72" y="314" on="1"/>
        <pt x="61" y="314" on="0"/>
        <pt x="53" y="322" on="0"/>
        <pt x="53" y="333" on="1"/>
        <pt x="53" y="348" on="1"/>
        <pt x="53" y="359" on="0"/>
        <pt x="61" y="367" on="0"/>
        <pt x="72" y="367" on="1"/>
        <pt x="120" y="367" on="1"/>
        <pt x="120" y="598" on="1"/>
        <pt x="68" y="598" on="1"/>
        <pt x="53" y="598" on="0"/>
        <pt x="53" y="613" on="1"/>
        <pt x="53" y="664" on="1"/>
        <pt x="53" y="679" on="0"/>
      </contour>
      <contour>
        <pt x="408" y="78" on="0"/>
        <pt x="529" y="222" on="0"/>
        <pt x="529" y="472" on="0"/>
        <pt x="416" y="602" on="0"/>
        <pt x="296" y="602" on="1"/>
        <pt x="232" y="602" on="1"/>
        <pt x="232" y="367" on="1"/>
        <pt x="382" y="367" on="1"/>
        <pt x="393" y="367" on="0"/>
        <pt x="401" y="359" on="0"/>
        <pt x="401" y="348" on="1"/>
        <pt x="401" y="333" on="1"/>
        <pt x="401" y="322" on="0"/>
        <pt x="393" y="314" on="0"/>
        <pt x="382" y="314" on="1"/>
        <pt x="232" y="314" on="1"/>
        <pt x="232" y="78" on="1"/>
        <pt x="298" y="78" on="1"/>
      </contour>
    </TTGlyph>
    <TTGlyph name="Delta" xMin="37" yMin="0" xMax="668" yMax="679">
      <contour>
        <pt x="668" y="15" on="1"/>
        <pt x="668" y="0" on="0"/>
        <pt x="653" y="0" on="1"/>
        <pt x="51" y="0" on="1"/>
        <pt x="37" y="0" on="0"/>
        <pt x="37" y="10" on="1"/>
        <pt x="37" y="14" on="0"/>
        <pt x="38" y="18" on="1"/>
        <pt x="281" y="665" on="1"/>
        <pt x="287" y="679" on="0"/>
        <pt x="301" y="679" on="1"/>
        <pt x="404" y="679" on="1"/>
        <pt x="418" y="679" on="0"/>
        <pt x="424" y="665" on="1"/>
        <pt x="666" y="23" on="1"/>
        <pt x="668" y="19" on="0"/>
      </contour>
      <contour>
        <pt x="349" y="583" on="1"/>
        <pt x="168" y="79" on="1"/>
        <pt x="532" y="79" on="1"/>
      </contour>
    </TTGlyph>
    <TTGlyph name="E" xMin="40" yMin="0" xMax="530" yMax="679">
      <contour>
        <pt x="220" y="599" on="1"/>
        <pt x="220" y="386" on="1"/>
        <pt x="369" y="386" on="1"/>
        <pt x="365" y="437" on="1"/>
        <pt x="364" y="452" on="0"/>
        <pt x="379" y="452" on="1"/>
        <pt x="435" y="452" on="1"/>
        <pt x="450" y="452" on="0"/>
        <pt x="450" y="437" on="1"/>
        <pt x="450" y="260" on="1"/>
        <pt x="450" y="245" on="0"/>
        <pt x="435" y="245" on="1"/>
        <pt x="379" y="245" on="1"/>
        <pt x="364" y="245" on="0"/>
        <pt x="365" y="260" on="1"/>
        <pt x="368" y="308" on="1"/>
        <pt x="220" y="308" on="1"/>
        <pt x="220" y="78" on="1"/>
        <pt x="449" y="78" on="1"/>
        <pt x="445" y="149" on="1"/>
        <pt x="444" y="164" on="0"/>
        <pt x="459" y="164" on="1"/>
        <pt x="515" y="164" on="1"/>
        <pt x="530" y="164" on="0"/>
        <pt x="530" y="149" on="1"/>
        <pt x="530" y="15" on="1"/>
        <pt x="530" y="0" on="0"/>
        <pt x="515" y="0" on="1"/>
        <pt x="55" y="0" on="1"/>
        <pt x="40" y="0" on="0"/>
        <pt x="40" y="15" on="1"/>
        <pt x="40" y="64" on="1"/>
        <pt x="40" y="79" on="0"/>
        <pt x="55" y="79" on="1"/>
        <pt x="108" y="79" on="1"/>
        <pt x="108" y="598" on="1"/>
        <pt x="55" y="598" on="1"/>
        <pt x="40" y="598" on="0"/>
        <pt x="40" y="613" on="1"/>
        <pt x="40" y="664" on="1"/>
        <pt x="40" y="679" on="0"/>
        <pt x="55" y="679" on="1"/>
        <pt x="495" y="679" on="1"/>
        <pt x="510" y="679" on="0"/>
        <pt x="510" y="664" on="1"/>
        <pt x="510" y="530" on="1"/>
        <pt x="510" y="515" on="0"/>
        <pt x="495" y="515" on="1"/>
        <pt x="439" y="515" on="1"/>
        <pt x="424" y="515" on="0"/>
        <pt x="425" y="530" on="1"/>
        <pt x="429" y="599" on="1"/>
      </contour>
    </TTGlyph>
    <TTGlyph name="Eacute" xMin="40" yMin="0" xMax="530" yMax="858">
      <contour>
        <pt x="220" y="599" on="1"/>
        <pt x="220" y="386" on="1"/>
        <pt x="369" y="386" on="1"/>
        <pt x="365" y="437" on="1"/>
        <pt x="364" y="452" on="0"/>
        <pt x="379" y="452" on="1"/>
        <pt x="435" y="452" on="1"/>
        <pt x="450" y="452" on="0"/>
        <pt x="450" y="437" on="1"/>
        <pt x="450" y="260" on="1"/>
        <pt x="450" y="245" on="0"/>
        <pt x="435" y="245" on="1"/>
        <pt x="379" y="245" on="1"/>
        <pt x="364" y="245" on="0"/>
        <pt x="365" y="260" on="1"/>
        <pt x="368" y="308" on="1"/>
        <pt x="220" y="308" on="1"/>
        <pt x="220" y="78" on="1"/>
        <pt x="449" y="78" on="1"/>
        <pt x="445" y="149" on="1"/>
        <pt x="444" y="164" on="0"/>
        <pt x="459" y="164" on="1"/>
        <pt x="515" y="164" on="1"/>
        <pt x="530" y="164" on="0"/>
        <pt x="530" y="149" on="1"/>
        <pt x="530" y="15" on="1"/>
        <pt x="530" y="0" on="0"/>
        <pt x="515" y="0" on="1"/>
        <pt x="55" y="0" on="1"/>
        <pt x="40" y="0" on="0"/>
        <pt x="40" y="15" on="1"/>
        <pt x="40" y="64" on="1"/>
        <pt x="40" y="79" on="0"/>
        <pt x="55" y="79" on="1"/>
        <pt x="108" y="79" on="1"/>
        <pt x="108" y="598" on="1"/>
        <pt x="55" y="598" on="1"/>
        <pt x="40" y="598" on="0"/>
        <pt x="40" y="613" on="1"/>
        <pt x="40" y="664" on="1"/>
        <pt x="40" y="679" on="0"/>
        <pt x="55" y="679" on="1"/>
        <pt x="495" y="679" on="1"/>
        <pt x="510" y="679" on="0"/>
        <pt x="510" y="664" on="1"/>
        <pt x="510" y="530" on="1"/>
        <pt x="510" y="515" on="0"/>
        <pt x="495" y="515" on="1"/>
        <pt x="439" y="515" on="1"/>
        <pt x="424" y="515" on="0"/>
        <pt x="425" y="530" on="1"/>
        <pt x="429" y="599" on="1"/>
      </contour>
      <contour>
        <pt x="271" y="746" on="1"/>
        <pt x="316" y="844" on="1"/>
        <pt x="322" y="858" on="0"/>
        <pt x="337" y="858" on="1"/>
        <pt x="415" y="858" on="1"/>
        <pt x="424" y="858" on="0"/>
        <pt x="424" y="850" on="0"/>
        <pt x="421" y="846" on="1"/>
        <pt x="351" y="744" on="1"/>
        <pt x="344" y="732" on="0"/>
        <pt x="328" y="732" on="1"/>
        <pt x="280" y="732" on="1"/>
        <pt x="269" y="732" on="0"/>
        <pt x="269" y="739" on="1"/>
        <pt x="269" y="742" on="0"/>
      </contour>
    </TTGlyph>
    <TTGlyph name="Ebreve" xMin="40" yMin="0" xMax="530" yMax="872">
      <contour>
        <pt x="220" y="599" on="1"/>
        <pt x="220" y="386" on="1"/>
        <pt x="369" y="386" on="1"/>
        <pt x="365" y="437" on="1"/>
        <pt x="364" y="452" on="0"/>
        <pt x="379" y="452" on="1"/>
        <pt x="435" y="452" on="1"/>
        <pt x="450" y="452" on="0"/>
        <pt x="450" y="437" on="1"/>
        <pt x="450" y="260" on="1"/>
        <pt x="450" y="245" on="0"/>
        <pt x="435" y="245" on="1"/>
        <pt x="379" y="245" on="1"/>
        <pt x="364" y="245" on="0"/>
        <pt x="365" y="260" on="1"/>
        <pt x="368" y="308" on="1"/>
        <pt x="220" y="308" on="1"/>
        <pt x="220" y="78" on="1"/>
        <pt x="449" y="78" on="1"/>
        <pt x="445" y="149" on="1"/>
        <pt x="444" y="164" on="0"/>
        <pt x="459" y="164" on="1"/>
        <pt x="515" y="164" on="1"/>
        <pt x="530" y="164" on="0"/>
        <pt x="530" y="149" on="1"/>
        <pt x="530" y="15" on="1"/>
        <pt x="530" y="0" on="0"/>
        <pt x="515" y="0" on="1"/>
        <pt x="55" y="0" on="1"/>
        <pt x="40" y="0" on="0"/>
        <pt x="40" y="15" on="1"/>
        <pt x="40" y="64" on="1"/>
        <pt x="40" y="79" on="0"/>
        <pt x="55" y="79" on="1"/>
        <pt x="108" y="79" on="1"/>
        <pt x="108" y="598" on="1"/>
        <pt x="55" y="598" on="1"/>
        <pt x="40" y="598" on="0"/>
        <pt x="40" y="613" on="1"/>
        <pt x="40" y="664" on="1"/>
        <pt x="40" y="679" on="0"/>
        <pt x="55" y="679" on="1"/>
        <pt x="495" y="679" on="1"/>
        <pt x="510" y="679" on="0"/>
        <pt x="510" y="664" on="1"/>
        <pt x="510" y="530" on="1"/>
        <pt x="510" y="515" on="0"/>
        <pt x="495" y="515" on="1"/>
        <pt x="439" y="515" on="1"/>
        <pt x="424" y="515" on="0"/>
        <pt x="425" y="530" on="1"/>
        <pt x="429" y="599" on="1"/>
      </contour>
      <contour>
        <pt x="200" y="853" on="1"/>
        <pt x="210" y="811" on="0"/>
        <pt x="366" y="811" on="0"/>
        <pt x="379" y="853" on="1"/>
        <pt x="383" y="865" on="0"/>
        <pt x="393" y="872" on="0"/>
        <pt x="405" y="872" on="1"/>
        <pt x="436" y="872" on="1"/>
        <pt x="454" y="872" on="0"/>
        <pt x="454" y="857" on="1"/>
        <pt x="454" y="800" on="0"/>
        <pt x="362" y="735" on="0"/>
        <pt x="210" y="735" on="0"/>
        <pt x="127" y="797" on="0"/>
        <pt x="125" y="853" on="1"/>
        <pt x="125" y="864" on="0"/>
        <pt x="133" y="872" on="0"/>
        <pt x="144" y="872" on="1"/>
        <pt x="176" y="872" on="1"/>
        <pt x="188" y="872" on="0"/>
        <pt x="197" y="865" on="0"/>
      </contour>
    </TTGlyph>
    <TTGlyph name="Ecaron" xMin="40" yMin="0" xMax="530" yMax="863">
      <contour>
        <pt x="220" y="599" on="1"/>
        <pt x="220" y="386" on="1"/>
        <pt x="369" y="386" on="1"/>
        <pt x="365" y="437" on="1"/>
        <pt x="364" y="452" on="0"/>
        <pt x="379" y="452" on="1"/>
        <pt x="435" y="452" on="1"/>
        <pt x="450" y="452" on="0"/>
        <pt x="450" y="437" on="1"/>
        <pt x="450" y="260" on="1"/>
        <pt x="450" y="245" on="0"/>
        <pt x="435" y="245" on="1"/>
        <pt x="379" y="245" on="1"/>
        <pt x="364" y="245" on="0"/>
        <pt x="365" y="260" on="1"/>
        <pt x="368" y="308" on="1"/>
        <pt x="220" y="308" on="1"/>
        <pt x="220" y="78" on="1"/>
        <pt x="449" y="78" on="1"/>
        <pt x="445" y="149" on="1"/>
        <pt x="444" y="164" on="0"/>
        <pt x="459" y="164" on="1"/>
        <pt x="515" y="164" on="1"/>
        <pt x="530" y="164" on="0"/>
        <pt x="530" y="149" on="1"/>
        <pt x="530" y="15" on="1"/>
        <pt x="530" y="0" on="0"/>
        <pt x="515" y="0" on="1"/>
        <pt x="55" y="0" on="1"/>
        <pt x="40" y="0" on="0"/>
        <pt x="40" y="15" on="1"/>
        <pt x="40" y="64" on="1"/>
        <pt x="40" y="79" on="0"/>
        <pt x="55" y="79" on="1"/>
        <pt x="108" y="79" on="1"/>
        <pt x="108" y="598" on="1"/>
        <pt x="55" y="598" on="1"/>
        <pt x="40" y="598" on="0"/>
        <pt x="40" y="613" on="1"/>
        <pt x="40" y="664" on="1"/>
        <pt x="40" y="679" on="0"/>
        <pt x="55" y="679" on="1"/>
        <pt x="495" y="679" on="1"/>
        <pt x="510" y="679" on="0"/>
        <pt x="510" y="664" on="1"/>
        <pt x="510" y="530" on="1"/>
        <pt x="510" y="515" on="0"/>
        <pt x="495" y="515" on="1"/>
        <pt x="439" y="515" on="1"/>
        <pt x="424" y="515" on="0"/>
        <pt x="425" y="530" on="1"/>
        <pt x="429" y="599" on="1"/>
      </contour>
      <contour>
        <pt x="376" y="863" on="1"/>
        <pt x="431" y="863" on="1"/>
        <pt x="440" y="863" on="0"/>
        <pt x="440" y="856" on="0"/>
        <pt x="437" y="851" on="1"/>
        <pt x="355" y="744" on="1"/>
        <pt x="346" y="732" on="0"/>
        <pt x="331" y="732" on="1"/>
        <pt x="255" y="732" on="1"/>
        <pt x="240" y="732" on="0"/>
        <pt x="231" y="744" on="1"/>
        <pt x="149" y="851" on="1"/>
        <pt x="146" y="856" on="0"/>
        <pt x="146" y="863" on="0"/>
        <pt x="155" y="863" on="1"/>
        <pt x="212" y="863" on="1"/>
        <pt x="228" y="863" on="0"/>
        <pt x="237" y="851" on="1"/>
        <pt x="295" y="780" on="1"/>
        <pt x="352" y="851" on="1"/>
        <pt x="361" y="863" on="0"/>
      </contour>
    </TTGlyph>
    <TTGlyph name="Ecircumflex" xMin="40" yMin="0" xMax="530" yMax="863">
      <contour>
        <pt x="220" y="599" on="1"/>
        <pt x="220" y="386" on="1"/>
        <pt x="369" y="386" on="1"/>
        <pt x="365" y="437" on="1"/>
        <pt x="364" y="452" on="0"/>
        <pt x="379" y="452" on="1"/>
        <pt x="435" y="452" on="1"/>
        <pt x="450" y="452" on="0"/>
        <pt x="450" y="437" on="1"/>
        <pt x="450" y="260" on="1"/>
        <pt x="450" y="245" on="0"/>
        <pt x="435" y="245" on="1"/>
        <pt x="379" y="245" on="1"/>
        <pt x="364" y="245" on="0"/>
        <pt x="365" y="260" on="1"/>
        <pt x="368" y="308" on="1"/>
        <pt x="220" y="308" on="1"/>
        <pt x="220" y="78" on="1"/>
        <pt x="449" y="78" on="1"/>
        <pt x="445" y="149" on="1"/>
        <pt x="444" y="164" on="0"/>
        <pt x="459" y="164" on="1"/>
        <pt x="515" y="164" on="1"/>
        <pt x="530" y="164" on="0"/>
        <pt x="530" y="149" on="1"/>
        <pt x="530" y="15" on="1"/>
        <pt x="530" y="0" on="0"/>
        <pt x="515" y="0" on="1"/>
        <pt x="55" y="0" on="1"/>
        <pt x="40" y="0" on="0"/>
        <pt x="40" y="15" on="1"/>
        <pt x="40" y="64" on="1"/>
        <pt x="40" y="79" on="0"/>
        <pt x="55" y="79" on="1"/>
        <pt x="108" y="79" on="1"/>
        <pt x="108" y="598" on="1"/>
        <pt x="55" y="598" on="1"/>
        <pt x="40" y="598" on="0"/>
        <pt x="40" y="613" on="1"/>
        <pt x="40" y="664" on="1"/>
        <pt x="40" y="679" on="0"/>
        <pt x="55" y="679" on="1"/>
        <pt x="495" y="679" on="1"/>
        <pt x="510" y="679" on="0"/>
        <pt x="510" y="664" on="1"/>
        <pt x="510" y="530" on="1"/>
        <pt x="510" y="515" on="0"/>
        <pt x="495" y="515" on="1"/>
        <pt x="439" y="515" on="1"/>
        <pt x="424" y="515" on="0"/>
        <pt x="425" y="530" on="1"/>
        <pt x="429" y="599" on="1"/>
      </contour>
      <contour>
        <pt x="205" y="732" on="1"/>
        <pt x="150" y="732" on="1"/>
        <pt x="141" y="732" on="0"/>
        <pt x="141" y="740" on="0"/>
        <pt x="144" y="744" on="1"/>
        <pt x="226" y="851" on="1"/>
        <pt x="235" y="863" on="0"/>
        <pt x="250" y="863" on="1"/>
        <pt x="326" y="863" on="1"/>
        <pt x="341" y="863" on="0"/>
        <pt x="350" y="851" on="1"/>
        <pt x="432" y="744" on="1"/>
        <pt x="435" y="740" on="0"/>
        <pt x="435" y="732" on="0"/>
        <pt x="426" y="732" on="1"/>
        <pt x="369" y="732" on="1"/>
        <pt x="353" y="732" on="0"/>
        <pt x="344" y="744" on="1"/>
        <pt x="286" y="815" on="1"/>
        <pt x="229" y="744" on="1"/>
        <pt x="220" y="732" on="0"/>
      </contour>
    </TTGlyph>
    <TTGlyph name="Edieresis" xMin="40" yMin="0" xMax="530" yMax="860">
      <contour>
        <pt x="220" y="599" on="1"/>
        <pt x="220" y="386" on="1"/>
        <pt x="369" y="386" on="1"/>
        <pt x="365" y="437" on="1"/>
        <pt x="364" y="452" on="0"/>
        <pt x="379" y="452" on="1"/>
        <pt x="435" y="452" on="1"/>
        <pt x="450" y="452" on="0"/>
        <pt x="450" y="437" on="1"/>
        <pt x="450" y="260" on="1"/>
        <pt x="450" y="245" on="0"/>
        <pt x="435" y="245" on="1"/>
        <pt x="379" y="245" on="1"/>
        <pt x="364" y="245" on="0"/>
        <pt x="365" y="260" on="1"/>
        <pt x="368" y="308" on="1"/>
        <pt x="220" y="308" on="1"/>
        <pt x="220" y="78" on="1"/>
        <pt x="449" y="78" on="1"/>
        <pt x="445" y="149" on="1"/>
        <pt x="444" y="164" on="0"/>
        <pt x="459" y="164" on="1"/>
        <pt x="515" y="164" on="1"/>
        <pt x="530" y="164" on="0"/>
        <pt x="530" y="149" on="1"/>
        <pt x="530" y="15" on="1"/>
        <pt x="530" y="0" on="0"/>
        <pt x="515" y="0" on="1"/>
        <pt x="55" y="0" on="1"/>
        <pt x="40" y="0" on="0"/>
        <pt x="40" y="15" on="1"/>
        <pt x="40" y="64" on="1"/>
        <pt x="40" y="79" on="0"/>
        <pt x="55" y="79" on="1"/>
        <pt x="108" y="79" on="1"/>
        <pt x="108" y="598" on="1"/>
        <pt x="55" y="598" on="1"/>
        <pt x="40" y="598" on="0"/>
        <pt x="40" y="613" on="1"/>
        <pt x="40" y="664" on="1"/>
        <pt x="40" y="679" on="0"/>
        <pt x="55" y="679" on="1"/>
        <pt x="495" y="679" on="1"/>
        <pt x="510" y="679" on="0"/>
        <pt x="510" y="664" on="1"/>
        <pt x="510" y="530" on="1"/>
        <pt x="510" y="515" on="0"/>
        <pt x="495" y="515" on="1"/>
        <pt x="439" y="515" on="1"/>
        <pt x="424" y="515" on="0"/>
        <pt x="425" y="530" on="1"/>
        <pt x="429" y="599" on="1"/>
      </contour>
      <contour>
        <pt x="454" y="771" on="0"/>
        <pt x="419" y="738" on="0"/>
        <pt x="364" y="738" on="0"/>
        <pt x="330" y="771" on="0"/>
        <pt x="330" y="828" on="0"/>
        <pt x="364" y="860" on="0"/>
        <pt x="392" y="860" on="1"/>
        <pt x="454" y="860" on="0"/>
        <pt x="454" y="800" on="1"/>
      </contour>
      <contour>
        <pt x="251" y="771" on="0"/>
        <pt x="216" y="738" on="0"/>
        <pt x="161" y="738" on="0"/>
        <pt x="127" y="771" on="0"/>
        <pt x="127" y="828" on="0"/>
        <pt x="161" y="860" on="0"/>
        <pt x="189" y="860" on="1"/>
        <pt x="251" y="860" on="0"/>
        <pt x="251" y="800" on="1"/>
      </contour>
    </TTGlyph>
    <TTGlyph name="Edotaccent" xMin="40" yMin="0" xMax="530" yMax="873">
      <contour>
        <pt x="220" y="599" on="1"/>
        <pt x="220" y="386" on="1"/>
        <pt x="369" y="386" on="1"/>
        <pt x="365" y="437" on="1"/>
        <pt x="364" y="452" on="0"/>
        <pt x="379" y="452" on="1"/>
        <pt x="435" y="452" on="1"/>
        <pt x="450" y="452" on="0"/>
        <pt x="450" y="437" on="1"/>
        <pt x="450" y="260" on="1"/>
        <pt x="450" y="245" on="0"/>
        <pt x="435" y="245" on="1"/>
        <pt x="379" y="245" on="1"/>
        <pt x="364" y="245" on="0"/>
        <pt x="365" y="260" on="1"/>
        <pt x="368" y="308" on="1"/>
        <pt x="220" y="308" on="1"/>
        <pt x="220" y="78" on="1"/>
        <pt x="449" y="78" on="1"/>
        <pt x="445" y="149" on="1"/>
        <pt x="444" y="164" on="0"/>
        <pt x="459" y="164" on="1"/>
        <pt x="515" y="164" on="1"/>
        <pt x="530" y="164" on="0"/>
        <pt x="530" y="149" on="1"/>
        <pt x="530" y="15" on="1"/>
        <pt x="530" y="0" on="0"/>
        <pt x="515" y="0" on="1"/>
        <pt x="55" y="0" on="1"/>
        <pt x="40" y="0" on="0"/>
        <pt x="40" y="15" on="1"/>
        <pt x="40" y="64" on="1"/>
        <pt x="40" y="79" on="0"/>
        <pt x="55" y="79" on="1"/>
        <pt x="108" y="79" on="1"/>
        <pt x="108" y="598" on="1"/>
        <pt x="55" y="598" on="1"/>
        <pt x="40" y="598" on="0"/>
        <pt x="40" y="613" on="1"/>
        <pt x="40" y="664" on="1"/>
        <pt x="40" y="679" on="0"/>
        <pt x="55" y="679" on="1"/>
        <pt x="495" y="679" on="1"/>
        <pt x="510" y="679" on="0"/>
        <pt x="510" y="664" on="1"/>
        <pt x="510" y="530" on="1"/>
        <pt x="510" y="515" on="0"/>
        <pt x="495" y="515" on="1"/>
        <pt x="439" y="515" on="1"/>
        <pt x="424" y="515" on="0"/>
        <pt x="425" y="530" on="1"/>
        <pt x="429" y="599" on="1"/>
      </contour>
      <contour>
        <pt x="221" y="770" on="0"/>
        <pt x="221" y="832" on="0"/>
        <pt x="260" y="873" on="0"/>
        <pt x="325" y="873" on="0"/>
        <pt x="364" y="832" on="0"/>
        <pt x="364" y="770" on="0"/>
        <pt x="324" y="730" on="0"/>
        <pt x="259" y="730" on="0"/>
      </contour>
    </TTGlyph>
    <TTGlyph name="Egrave" xMin="40" yMin="0" xMax="530" yMax="858">
      <contour>
        <pt x="220" y="599" on="1"/>
        <pt x="220" y="386" on="1"/>
        <pt x="369" y="386" on="1"/>
        <pt x="365" y="437" on="1"/>
        <pt x="364" y="452" on="0"/>
        <pt x="379" y="452" on="1"/>
        <pt x="435" y="452" on="1"/>
        <pt x="450" y="452" on="0"/>
        <pt x="450" y="437" on="1"/>
        <pt x="450" y="260" on="1"/>
        <pt x="450" y="245" on="0"/>
        <pt x="435" y="245" on="1"/>
        <pt x="379" y="245" on="1"/>
        <pt x="364" y="245" on="0"/>
        <pt x="365" y="260" on="1"/>
        <pt x="368" y="308" on="1"/>
        <pt x="220" y="308" on="1"/>
        <pt x="220" y="78" on="1"/>
        <pt x="449" y="78" on="1"/>
        <pt x="445" y="149" on="1"/>
        <pt x="444" y="164" on="0"/>
        <pt x="459" y="164" on="1"/>
        <pt x="515" y="164" on="1"/>
        <pt x="530" y="164" on="0"/>
        <pt x="530" y="149" on="1"/>
        <pt x="530" y="15" on="1"/>
        <pt x="530" y="0" on="0"/>
        <pt x="515" y="0" on="1"/>
        <pt x="55" y="0" on="1"/>
        <pt x="40" y="0" on="0"/>
        <pt x="40" y="15" on="1"/>
        <pt x="40" y="64" on="1"/>
        <pt x="40" y="79" on="0"/>
        <pt x="55" y="79" on="1"/>
        <pt x="108" y="79" on="1"/>
        <pt x="108" y="598" on="1"/>
        <pt x="55" y="598" on="1"/>
        <pt x="40" y="598" on="0"/>
        <pt x="40" y="613" on="1"/>
        <pt x="40" y="664" on="1"/>
        <pt x="40" y="679" on="0"/>
        <pt x="55" y="679" on="1"/>
        <pt x="495" y="679" on="1"/>
        <pt x="510" y="679" on="0"/>
        <pt x="510" y="664" on="1"/>
        <pt x="510" y="530" on="1"/>
        <pt x="510" y="515" on="0"/>
        <pt x="495" y="515" on="1"/>
        <pt x="439" y="515" on="1"/>
        <pt x="424" y="515" on="0"/>
        <pt x="425" y="530" on="1"/>
        <pt x="429" y="599" on="1"/>
      </contour>
      <contour>
        <pt x="293" y="841" on="1"/>
        <pt x="334" y="749" on="1"/>
        <pt x="336" y="744" on="0"/>
        <pt x="336" y="740" on="1"/>
        <pt x="336" y="732" on="0"/>
        <pt x="323" y="732" on="1"/>
        <pt x="283" y="732" on="1"/>
        <pt x="264" y="732" on="0"/>
        <pt x="253" y="747" on="1"/>
        <pt x="188" y="843" on="1"/>
        <pt x="184" y="848" on="0"/>
        <pt x="184" y="858" on="0"/>
        <pt x="196" y="858" on="1"/>
        <pt x="266" y="858" on="1"/>
        <pt x="278" y="858" on="0"/>
        <pt x="288" y="852" on="0"/>
      </contour>
    </TTGlyph>
    <TTGlyph name="Emacron" xMin="40" yMin="0" xMax="530" yMax="841">
      <contour>
        <pt x="220" y="599" on="1"/>
        <pt x="220" y="386" on="1"/>
        <pt x="369" y="386" on="1"/>
        <pt x="365" y="437" on="1"/>
        <pt x="364" y="452" on="0"/>
        <pt x="379" y="452" on="1"/>
        <pt x="435" y="452" on="1"/>
        <pt x="450" y="452" on="0"/>
        <pt x="450" y="437" on="1"/>
        <pt x="450" y="260" on="1"/>
        <pt x="450" y="245" on="0"/>
        <pt x="435" y="245" on="1"/>
        <pt x="379" y="245" on="1"/>
        <pt x="364" y="245" on="0"/>
        <pt x="365" y="260" on="1"/>
        <pt x="368" y="308" on="1"/>
        <pt x="220" y="308" on="1"/>
        <pt x="220" y="78" on="1"/>
        <pt x="449" y="78" on="1"/>
        <pt x="445" y="149" on="1"/>
        <pt x="444" y="164" on="0"/>
        <pt x="459" y="164" on="1"/>
        <pt x="515" y="164" on="1"/>
        <pt x="530" y="164" on="0"/>
        <pt x="530" y="149" on="1"/>
        <pt x="530" y="15" on="1"/>
        <pt x="530" y="0" on="0"/>
        <pt x="515" y="0" on="1"/>
        <pt x="55" y="0" on="1"/>
        <pt x="40" y="0" on="0"/>
        <pt x="40" y="15" on="1"/>
        <pt x="40" y="64" on="1"/>
        <pt x="40" y="79" on="0"/>
        <pt x="55" y="79" on="1"/>
        <pt x="108" y="79" on="1"/>
        <pt x="108" y="598" on="1"/>
        <pt x="55" y="598" on="1"/>
        <pt x="40" y="598" on="0"/>
        <pt x="40" y="613" on="1"/>
        <pt x="40" y="664" on="1"/>
        <pt x="40" y="679" on="0"/>
        <pt x="55" y="679" on="1"/>
        <pt x="495" y="679" on="1"/>
        <pt x="510" y="679" on="0"/>
        <pt x="510" y="664" on="1"/>
        <pt x="510" y="530" on="1"/>
        <pt x="510" y="515" on="0"/>
        <pt x="495" y="515" on="1"/>
        <pt x="439" y="515" on="1"/>
        <pt x="424" y="515" on="0"/>
        <pt x="425" y="530" on="1"/>
        <pt x="429" y="599" on="1"/>
      </contour>
      <contour>
        <pt x="424" y="760" on="1"/>
        <pt x="164" y="760" on="1"/>
        <pt x="153" y="760" on="0"/>
        <pt x="145" y="768" on="0"/>
        <pt x="145" y="779" on="1"/>
        <pt x="145" y="822" on="1"/>
        <pt x="145" y="833" on="0"/>
        <pt x="153" y="841" on="0"/>
        <pt x="164" y="841" on="1"/>
        <pt x="424" y="841" on="1"/>
        <pt x="435" y="841" on="0"/>
        <pt x="443" y="833" on="0"/>
        <pt x="443" y="822" on="1"/>
        <pt x="443" y="779" on="1"/>
        <pt x="443" y="768" on="0"/>
        <pt x="435" y="760" on="0"/>
      </contour>
    </TTGlyph>
    <TTGlyph name="Eng" xMin="40" yMin="-240" xMax="713" yMax="679">
      <contour>
        <pt x="645" y="598" on="1"/>
        <pt x="645" y="-41" on="1"/>
        <pt x="645" y="-240" on="0"/>
        <pt x="468" y="-240" on="1"/>
        <pt x="409" y="-240" on="0"/>
        <pt x="355" y="-221" on="1"/>
        <pt x="338" y="-214" on="0"/>
        <pt x="344" y="-196" on="1"/>
        <pt x="359" y="-151" on="1"/>
        <pt x="363" y="-141" on="0"/>
        <pt x="373" y="-136" on="0"/>
        <pt x="413" y="-149" on="0"/>
        <pt x="493" y="-149" on="0"/>
        <pt x="533" y="-98" on="0"/>
        <pt x="533" y="-34" on="1"/>
        <pt x="533" y="13" on="1"/>
        <pt x="195" y="513" on="1"/>
        <pt x="195" y="79" on="1"/>
        <pt x="278" y="79" on="1"/>
        <pt x="293" y="79" on="0"/>
        <pt x="293" y="64" on="1"/>
        <pt x="293" y="15" on="1"/>
        <pt x="293" y="0" on="0"/>
        <pt x="278" y="0" on="1"/>
        <pt x="55" y="0" on="1"/>
        <pt x="40" y="0" on="0"/>
        <pt x="40" y="15" on="1"/>
        <pt x="40" y="64" on="1"/>
        <pt x="40" y="79" on="0"/>
        <pt x="55" y="79" on="1"/>
        <pt x="108" y="79" on="1"/>
        <pt x="108" y="598" on="1"/>
        <pt x="55" y="598" on="1"/>
        <pt x="40" y="598" on="0"/>
        <pt x="40" y="613" on="1"/>
        <pt x="40" y="664" on="1"/>
        <pt x="40" y="679" on="0"/>
        <pt x="55" y="679" on="1"/>
        <pt x="202" y="679" on="1"/>
        <pt x="216" y="679" on="0"/>
        <pt x="225" y="666" on="1"/>
        <pt x="558" y="160" on="1"/>
        <pt x="558" y="598" on="1"/>
        <pt x="505" y="598" on="1"/>
        <pt x="490" y="598" on="0"/>
        <pt x="490" y="613" on="1"/>
        <pt x="490" y="664" on="1"/>
        <pt x="490" y="679" on="0"/>
        <pt x="505" y="679" on="1"/>
        <pt x="698" y="679" on="1"/>
        <pt x="713" y="679" on="0"/>
        <pt x="713" y="664" on="1"/>
        <pt x="713" y="613" on="1"/>
        <pt x="713" y="598" on="0"/>
        <pt x="698" y="598" on="1"/>
      </contour>
    </TTGlyph>
    <TTGlyph name="Eogonek" xMin="40" yMin="-233" xMax="530" yMax="679">
      <contour>
        <pt x="316" y="-147" on="1"/>
        <pt x="316" y="-81" on="0"/>
        <pt x="403" y="0" on="1"/>
        <pt x="55" y="0" on="1"/>
        <pt x="40" y="0" on="0"/>
        <pt x="40" y="15" on="1"/>
        <pt x="40" y="64" on="1"/>
        <pt x="40" y="79" on="0"/>
        <pt x="55" y="79" on="1"/>
        <pt x="108" y="79" on="1"/>
        <pt x="108" y="598" on="1"/>
        <pt x="55" y="598" on="1"/>
        <pt x="40" y="598" on="0"/>
        <pt x="40" y="613" on="1"/>
        <pt x="40" y="664" on="1"/>
        <pt x="40" y="679" on="0"/>
        <pt x="55" y="679" on="1"/>
        <pt x="495" y="679" on="1"/>
        <pt x="510" y="679" on="0"/>
        <pt x="510" y="664" on="1"/>
        <pt x="510" y="530" on="1"/>
        <pt x="510" y="515" on="0"/>
        <pt x="495" y="515" on="1"/>
        <pt x="439" y="515" on="1"/>
        <pt x="424" y="515" on="0"/>
        <pt x="425" y="530" on="1"/>
        <pt x="429" y="599" on="1"/>
        <pt x="220" y="599" on="1"/>
        <pt x="220" y="386" on="1"/>
        <pt x="369" y="386" on="1"/>
        <pt x="365" y="437" on="1"/>
        <pt x="364" y="452" on="0"/>
        <pt x="379" y="452" on="1"/>
        <pt x="435" y="452" on="1"/>
        <pt x="450" y="452" on="0"/>
        <pt x="450" y="437" on="1"/>
        <pt x="450" y="260" on="1"/>
        <pt x="450" y="245" on="0"/>
        <pt x="435" y="245" on="1"/>
        <pt x="379" y="245" on="1"/>
        <pt x="364" y="245" on="0"/>
        <pt x="365" y="260" on="1"/>
        <pt x="368" y="308" on="1"/>
        <pt x="220" y="308" on="1"/>
        <pt x="220" y="78" on="1"/>
        <pt x="449" y="78" on="1"/>
        <pt x="445" y="149" on="1"/>
        <pt x="444" y="164" on="0"/>
        <pt x="459" y="164" on="1"/>
        <pt x="515" y="164" on="1"/>
        <pt x="530" y="164" on="0"/>
        <pt x="530" y="149" on="1"/>
        <pt x="530" y="15" on="1"/>
        <pt x="530" y="0" on="0"/>
        <pt x="515" y="0" on="1"/>
        <pt x="467" y="0" on="1"/>
        <pt x="395" y="-78" on="0"/>
        <pt x="395" y="-128" on="1"/>
        <pt x="395" y="-164" on="0"/>
        <pt x="428" y="-164" on="1"/>
        <pt x="446" y="-164" on="0"/>
        <pt x="480" y="-147" on="0"/>
        <pt x="486" y="-159" on="1"/>
        <pt x="496" y="-179" on="1"/>
        <pt x="504" y="-194" on="0"/>
        <pt x="489" y="-203" on="1"/>
        <pt x="445" y="-233" on="0"/>
        <pt x="360" y="-233" on="0"/>
        <pt x="316" y="-185" on="0"/>
      </contour>
    </TTGlyph>
    <TTGlyph name="Eth" xMin="53" yMin="0" xMax="649" yMax="685">
      <contour>
        <pt x="68" y="679" on="1"/>
        <pt x="196" y="685" on="0"/>
        <pt x="320" y="685" on="0"/>
        <pt x="381" y="680" on="0"/>
        <pt x="459" y="664" on="0"/>
        <pt x="520" y="637" on="0"/>
        <pt x="582" y="587" on="0"/>
        <pt x="602" y="554" on="1"/>
        <pt x="649" y="478" on="0"/>
        <pt x="649" y="358" on="1"/>
        <pt x="649" y="177" on="0"/>
        <pt x="449" y="0" on="0"/>
        <pt x="276" y="0" on="1"/>
        <pt x="68" y="0" on="1"/>
        <pt x="53" y="0" on="0"/>
        <pt x="53" y="15" on="1"/>
        <pt x="53" y="64" on="1"/>
        <pt x="53" y="79" on="0"/>
        <pt x="68" y="79" on="1"/>
        <pt x="120" y="79" on="1"/>
        <pt x="120" y="314" on="1"/>
        <pt x="72" y="314" on="1"/>
        <pt x="61" y="314" on="0"/>
        <pt x="53" y="322" on="0"/>
        <pt x="53" y="333" on="1"/>
        <pt x="53" y="348" on="1"/>
        <pt x="53" y="359" on="0"/>
        <pt x="61" y="367" on="0"/>
        <pt x="72" y="367" on="1"/>
        <pt x="120" y="367" on="1"/>
        <pt x="120" y="598" on="1"/>
        <pt x="68" y="598" on="1"/>
        <pt x="53" y="598" on="0"/>
        <pt x="53" y="613" on="1"/>
        <pt x="53" y="664" on="1"/>
        <pt x="53" y="679" on="0"/>
      </contour>
      <contour>
        <pt x="408" y="78" on="0"/>
        <pt x="529" y="222" on="0"/>
        <pt x="529" y="472" on="0"/>
        <pt x="416" y="602" on="0"/>
        <pt x="296" y="602" on="1"/>
        <pt x="232" y="602" on="1"/>
        <pt x="232" y="367" on="1"/>
        <pt x="382" y="367" on="1"/>
        <pt x="393" y="367" on="0"/>
        <pt x="401" y="359" on="0"/>
        <pt x="401" y="348" on="1"/>
        <pt x="401" y="333" on="1"/>
        <pt x="401" y="322" on="0"/>
        <pt x="393" y="314" on="0"/>
        <pt x="382" y="314" on="1"/>
        <pt x="232" y="314" on="1"/>
        <pt x="232" y="78" on="1"/>
        <pt x="298" y="78" on="1"/>
      </contour>
    </TTGlyph>
    <TTGlyph name="Euro" xMin="22" yMin="-12" xMax="500" yMax="531">
      <contour>
        <pt x="31" y="293" on="1"/>
        <pt x="33" y="308" on="1"/>
        <pt x="34" y="320" on="0"/>
        <pt x="43" y="327" on="0"/>
        <pt x="55" y="327" on="1"/>
        <pt x="92" y="327" on="1"/>
        <pt x="104" y="399" on="0"/>
        <pt x="183" y="495" on="0"/>
        <pt x="275" y="531" on="0"/>
        <pt x="328" y="531" on="1"/>
        <pt x="420" y="531" on="0"/>
        <pt x="483" y="494" on="1"/>
        <pt x="499" y="485" on="0"/>
        <pt x="499" y="467" on="1"/>
        <pt x="499" y="379" on="1"/>
        <pt x="499" y="368" on="0"/>
        <pt x="491" y="360" on="0"/>
        <pt x="480" y="360" on="1"/>
        <pt x="437" y="360" on="1"/>
        <pt x="426" y="360" on="0"/>
        <pt x="418" y="368" on="0"/>
        <pt x="419" y="379" on="1"/>
        <pt x="423" y="429" on="1"/>
        <pt x="387" y="461" on="0"/>
        <pt x="264" y="461" on="0"/>
        <pt x="196" y="387" on="0"/>
        <pt x="190" y="327" on="1"/>
        <pt x="382" y="327" on="1"/>
        <pt x="393" y="327" on="0"/>
        <pt x="400" y="320" on="0"/>
        <pt x="398" y="309" on="1"/>
        <pt x="395" y="292" on="1"/>
        <pt x="394" y="281" on="0"/>
        <pt x="385" y="274" on="0"/>
        <pt x="373" y="274" on="1"/>
        <pt x="188" y="274" on="1"/>
        <pt x="188" y="267" on="0"/>
        <pt x="188" y="247" on="0"/>
        <pt x="189" y="235" on="1"/>
        <pt x="368" y="235" on="1"/>
        <pt x="379" y="235" on="0"/>
        <pt x="386" y="227" on="0"/>
        <pt x="384" y="216" on="1"/>
        <pt x="382" y="201" on="1"/>
        <pt x="381" y="189" on="0"/>
        <pt x="372" y="182" on="0"/>
        <pt x="360" y="182" on="1"/>
        <pt x="195" y="182" on="1"/>
        <pt x="220" y="61" on="0"/>
        <pt x="341" y="61" on="1"/>
        <pt x="392" y="61" on="0"/>
        <pt x="423" y="80" on="1"/>
        <pt x="419" y="133" on="1"/>
        <pt x="418" y="144" on="0"/>
        <pt x="425" y="152" on="0"/>
        <pt x="436" y="152" on="1"/>
        <pt x="481" y="152" on="1"/>
        <pt x="492" y="152" on="0"/>
        <pt x="500" y="144" on="0"/>
        <pt x="500" y="133" on="1"/>
        <pt x="500" y="47" on="1"/>
        <pt x="500" y="28" on="0"/>
        <pt x="483" y="20" on="1"/>
        <pt x="415" y="-12" on="0"/>
        <pt x="337" y="-12" on="1"/>
        <pt x="124" y="-12" on="0"/>
        <pt x="92" y="182" on="1"/>
        <pt x="39" y="182" on="1"/>
        <pt x="28" y="182" on="0"/>
        <pt x="21" y="190" on="0"/>
        <pt x="22" y="201" on="1"/>
        <pt x="24" y="216" on="1"/>
        <pt x="26" y="227" on="0"/>
        <pt x="34" y="235" on="0"/>
        <pt x="45" y="235" on="1"/>
        <pt x="87" y="235" on="1"/>
        <pt x="86" y="244" on="0"/>
        <pt x="86" y="264" on="0"/>
        <pt x="87" y="274" on="1"/>
        <pt x="47" y="274" on="1"/>
        <pt x="36" y="274" on="0"/>
        <pt x="29" y="282" on="0"/>
      </contour>
    </TTGlyph>
    <TTGlyph name="F" xMin="40" yMin="0" xMax="520" yMax="679">
      <contour>
        <pt x="220" y="599" on="1"/>
        <pt x="220" y="391" on="1"/>
        <pt x="379" y="391" on="1"/>
        <pt x="375" y="442" on="1"/>
        <pt x="374" y="457" on="0"/>
        <pt x="389" y="457" on="1"/>
        <pt x="445" y="457" on="1"/>
        <pt x="460" y="457" on="0"/>
        <pt x="460" y="442" on="1"/>
        <pt x="460" y="265" on="1"/>
        <pt x="460" y="250" on="0"/>
        <pt x="445" y="250" on="1"/>
        <pt x="389" y="250" on="1"/>
        <pt x="374" y="250" on="0"/>
        <pt x="375" y="265" on="1"/>
        <pt x="378" y="313" on="1"/>
        <pt x="220" y="313" on="1"/>
        <pt x="220" y="79" on="1"/>
        <pt x="323" y="79" on="1"/>
        <pt x="338" y="79" on="0"/>
        <pt x="338" y="64" on="1"/>
        <pt x="338" y="15" on="1"/>
        <pt x="338" y="0" on="0"/>
        <pt x="323" y="0" on="1"/>
        <pt x="55" y="0" on="1"/>
        <pt x="40" y="0" on="0"/>
        <pt x="40" y="15" on="1"/>
        <pt x="40" y="64" on="1"/>
        <pt x="40" y="79" on="0"/>
        <pt x="55" y="79" on="1"/>
        <pt x="108" y="79" on="1"/>
        <pt x="108" y="598" on="1"/>
        <pt x="55" y="598" on="1"/>
        <pt x="40" y="598" on="0"/>
        <pt x="40" y="613" on="1"/>
        <pt x="40" y="664" on="1"/>
        <pt x="40" y="679" on="0"/>
        <pt x="55" y="679" on="1"/>
        <pt x="505" y="679" on="1"/>
        <pt x="520" y="679" on="0"/>
        <pt x="520" y="664" on="1"/>
        <pt x="520" y="530" on="1"/>
        <pt x="520" y="515" on="0"/>
        <pt x="505" y="515" on="1"/>
        <pt x="449" y="515" on="1"/>
        <pt x="434" y="515" on="0"/>
        <pt x="435" y="530" on="1"/>
        <pt x="439" y="599" on="1"/>
      </contour>
    </TTGlyph>
    <TTGlyph name="G" xMin="43" yMin="-12" xMax="675" yMax="696">
      <contour>
        <pt x="607" y="234" on="1"/>
        <pt x="607" y="64" on="1"/>
        <pt x="607" y="50" on="0"/>
        <pt x="593" y="43" on="1"/>
        <pt x="550" y="20" on="0"/>
        <pt x="423" y="-12" on="0"/>
        <pt x="282" y="-12" on="0"/>
        <pt x="154" y="42" on="0"/>
        <pt x="116" y="91" on="1"/>
        <pt x="43" y="187" on="0"/>
        <pt x="43" y="341" on="1"/>
        <pt x="43" y="435" on="0"/>
        <pt x="100" y="578" on="0"/>
        <pt x="147" y="618" on="1"/>
        <pt x="239" y="696" on="0"/>
        <pt x="478" y="696" on="0"/>
        <pt x="564" y="643" on="1"/>
        <pt x="578" y="635" on="0"/>
        <pt x="578" y="621" on="1"/>
        <pt x="578" y="496" on="1"/>
        <pt x="578" y="481" on="0"/>
        <pt x="563" y="481" on="1"/>
        <pt x="506" y="481" on="1"/>
        <pt x="491" y="481" on="0"/>
        <pt x="492" y="496" on="1"/>
        <pt x="495" y="563" on="1"/>
        <pt x="432" y="608" on="0"/>
        <pt x="285" y="608" on="0"/>
        <pt x="196" y="535" on="0"/>
        <pt x="163" y="428" on="0"/>
        <pt x="163" y="277" on="0"/>
        <pt x="200" y="157" on="0"/>
        <pt x="297" y="77" on="0"/>
        <pt x="452" y="77" on="0"/>
        <pt x="504" y="112" on="1"/>
        <pt x="504" y="234" on="1"/>
        <pt x="440" y="234" on="1"/>
        <pt x="425" y="234" on="0"/>
        <pt x="425" y="249" on="1"/>
        <pt x="425" y="299" on="1"/>
        <pt x="425" y="314" on="0"/>
        <pt x="440" y="314" on="1"/>
        <pt x="660" y="314" on="1"/>
        <pt x="675" y="314" on="0"/>
        <pt x="675" y="299" on="1"/>
        <pt x="675" y="249" on="1"/>
        <pt x="675" y="234" on="0"/>
        <pt x="660" y="234" on="1"/>
      </contour>
    </TTGlyph>
    <TTGlyph name="Gbreve" xMin="43" yMin="-12" xMax="675" yMax="872">
      <contour>
        <pt x="607" y="234" on="1"/>
        <pt x="607" y="64" on="1"/>
        <pt x="607" y="50" on="0"/>
        <pt x="593" y="43" on="1"/>
        <pt x="550" y="20" on="0"/>
        <pt x="423" y="-12" on="0"/>
        <pt x="282" y="-12" on="0"/>
        <pt x="154" y="42" on="0"/>
        <pt x="116" y="91" on="1"/>
        <pt x="43" y="187" on="0"/>
        <pt x="43" y="341" on="1"/>
        <pt x="43" y="435" on="0"/>
        <pt x="100" y="578" on="0"/>
        <pt x="147" y="618" on="1"/>
        <pt x="239" y="696" on="0"/>
        <pt x="478" y="696" on="0"/>
        <pt x="564" y="643" on="1"/>
        <pt x="578" y="635" on="0"/>
        <pt x="578" y="621" on="1"/>
        <pt x="578" y="496" on="1"/>
        <pt x="578" y="481" on="0"/>
        <pt x="563" y="481" on="1"/>
        <pt x="506" y="481" on="1"/>
        <pt x="491" y="481" on="0"/>
        <pt x="492" y="496" on="1"/>
        <pt x="495" y="563" on="1"/>
        <pt x="432" y="608" on="0"/>
        <pt x="285" y="608" on="0"/>
        <pt x="196" y="535" on="0"/>
        <pt x="163" y="428" on="0"/>
        <pt x="163" y="277" on="0"/>
        <pt x="200" y="157" on="0"/>
        <pt x="297" y="77" on="0"/>
        <pt x="452" y="77" on="0"/>
        <pt x="504" y="112" on="1"/>
        <pt x="504" y="234" on="1"/>
        <pt x="440" y="234" on="1"/>
        <pt x="425" y="234" on="0"/>
        <pt x="425" y="249" on="1"/>
        <pt x="425" y="299" on="1"/>
        <pt x="425" y="314" on="0"/>
        <pt x="440" y="314" on="1"/>
        <pt x="660" y="314" on="1"/>
        <pt x="675" y="314" on="0"/>
        <pt x="675" y="299" on="1"/>
        <pt x="675" y="249" on="1"/>
        <pt x="675" y="234" on="0"/>
        <pt x="660" y="234" on="1"/>
      </contour>
      <contour>
        <pt x="279" y="853" on="1"/>
        <pt x="290" y="811" on="0"/>
        <pt x="445" y="811" on="0"/>
        <pt x="458" y="853" on="1"/>
        <pt x="462" y="865" on="0"/>
        <pt x="472" y="872" on="0"/>
        <pt x="484" y="872" on="1"/>
        <pt x="515" y="872" on="1"/>
        <pt x="533" y="872" on="0"/>
        <pt x="533" y="857" on="1"/>
        <pt x="533" y="800" on="0"/>
        <pt x="441" y="735" on="0"/>
        <pt x="289" y="735" on="0"/>
        <pt x="206" y="797" on="0"/>
        <pt x="204" y="853" on="1"/>
        <pt x="204" y="864" on="0"/>
        <pt x="212" y="872" on="0"/>
        <pt x="223" y="872" on="1"/>
        <pt x="255" y="872" on="1"/>
        <pt x="267" y="872" on="0"/>
        <pt x="276" y="865" on="0"/>
      </contour>
    </TTGlyph>
    <TTGlyph name="Gcircumflex" xMin="43" yMin="-12" xMax="675" yMax="863">
      <contour>
        <pt x="607" y="234" on="1"/>
        <pt x="607" y="64" on="1"/>
        <pt x="607" y="50" on="0"/>
        <pt x="593" y="43" on="1"/>
        <pt x="550" y="20" on="0"/>
        <pt x="423" y="-12" on="0"/>
        <pt x="282" y="-12" on="0"/>
        <pt x="154" y="42" on="0"/>
        <pt x="116" y="91" on="1"/>
        <pt x="43" y="187" on="0"/>
        <pt x="43" y="341" on="1"/>
        <pt x="43" y="435" on="0"/>
        <pt x="100" y="578" on="0"/>
        <pt x="147" y="618" on="1"/>
        <pt x="239" y="696" on="0"/>
        <pt x="478" y="696" on="0"/>
        <pt x="564" y="643" on="1"/>
        <pt x="578" y="635" on="0"/>
        <pt x="578" y="621" on="1"/>
        <pt x="578" y="496" on="1"/>
        <pt x="578" y="481" on="0"/>
        <pt x="563" y="481" on="1"/>
        <pt x="506" y="481" on="1"/>
        <pt x="491" y="481" on="0"/>
        <pt x="492" y="496" on="1"/>
        <pt x="495" y="563" on="1"/>
        <pt x="432" y="608" on="0"/>
        <pt x="285" y="608" on="0"/>
        <pt x="196" y="535" on="0"/>
        <pt x="163" y="428" on="0"/>
        <pt x="163" y="277" on="0"/>
        <pt x="200" y="157" on="0"/>
        <pt x="297" y="77" on="0"/>
        <pt x="452" y="77" on="0"/>
        <pt x="504" y="112" on="1"/>
        <pt x="504" y="234" on="1"/>
        <pt x="440" y="234" on="1"/>
        <pt x="425" y="234" on="0"/>
        <pt x="425" y="249" on="1"/>
        <pt x="425" y="299" on="1"/>
        <pt x="425" y="314" on="0"/>
        <pt x="440" y="314" on="1"/>
        <pt x="660" y="314" on="1"/>
        <pt x="675" y="314" on="0"/>
        <pt x="675" y="299" on="1"/>
        <pt x="675" y="249" on="1"/>
        <pt x="675" y="234" on="0"/>
        <pt x="660" y="234" on="1"/>
      </contour>
      <contour>
        <pt x="273" y="732" on="1"/>
        <pt x="218" y="732" on="1"/>
        <pt x="209" y="732" on="0"/>
        <pt x="209" y="740" on="0"/>
        <pt x="212" y="744" on="1"/>
        <pt x="294" y="851" on="1"/>
        <pt x="303" y="863" on="0"/>
        <pt x="318" y="863" on="1"/>
        <pt x="394" y="863" on="1"/>
        <pt x="409" y="863" on="0"/>
        <pt x="418" y="851" on="1"/>
        <pt x="500" y="744" on="1"/>
        <pt x="503" y="740" on="0"/>
        <pt x="503" y="732" on="0"/>
        <pt x="494" y="732" on="1"/>
        <pt x="437" y="732" on="1"/>
        <pt x="421" y="732" on="0"/>
        <pt x="412" y="744" on="1"/>
        <pt x="354" y="815" on="1"/>
        <pt x="297" y="744" on="1"/>
        <pt x="288" y="732" on="0"/>
      </contour>
    </TTGlyph>
    <TTGlyph name="Gcommaaccent" xMin="43" yMin="-277" xMax="675" yMax="696">
      <contour>
        <pt x="607" y="234" on="1"/>
        <pt x="607" y="64" on="1"/>
        <pt x="607" y="50" on="0"/>
        <pt x="593" y="43" on="1"/>
        <pt x="550" y="20" on="0"/>
        <pt x="423" y="-12" on="0"/>
        <pt x="282" y="-12" on="0"/>
        <pt x="154" y="42" on="0"/>
        <pt x="116" y="91" on="1"/>
        <pt x="43" y="187" on="0"/>
        <pt x="43" y="341" on="1"/>
        <pt x="43" y="435" on="0"/>
        <pt x="100" y="578" on="0"/>
        <pt x="147" y="618" on="1"/>
        <pt x="239" y="696" on="0"/>
        <pt x="478" y="696" on="0"/>
        <pt x="564" y="643" on="1"/>
        <pt x="578" y="635" on="0"/>
        <pt x="578" y="621" on="1"/>
        <pt x="578" y="496" on="1"/>
        <pt x="578" y="481" on="0"/>
        <pt x="563" y="481" on="1"/>
        <pt x="506" y="481" on="1"/>
        <pt x="491" y="481" on="0"/>
        <pt x="492" y="496" on="1"/>
        <pt x="495" y="563" on="1"/>
        <pt x="432" y="608" on="0"/>
        <pt x="285" y="608" on="0"/>
        <pt x="196" y="535" on="0"/>
        <pt x="163" y="428" on="0"/>
        <pt x="163" y="277" on="0"/>
        <pt x="200" y="157" on="0"/>
        <pt x="297" y="77" on="0"/>
        <pt x="452" y="77" on="0"/>
        <pt x="504" y="112" on="1"/>
        <pt x="504" y="234" on="1"/>
        <pt x="440" y="234" on="1"/>
        <pt x="425" y="234" on="0"/>
        <pt x="425" y="249" on="1"/>
        <pt x="425" y="299" on="1"/>
        <pt x="425" y="314" on="0"/>
        <pt x="440" y="314" on="1"/>
        <pt x="660" y="314" on="1"/>
        <pt x="675" y="314" on="0"/>
        <pt x="675" y="299" on="1"/>
        <pt x="675" y="249" on="1"/>
        <pt x="675" y="234" on="0"/>
        <pt x="660" y="234" on="1"/>
      </contour>
      <contour>
        <pt x="369" y="-212" on="1"/>
        <pt x="331" y="-270" on="1"/>
        <pt x="326" y="-277" on="0"/>
        <pt x="317" y="-277" on="0"/>
        <pt x="314" y="-276" on="1"/>
        <pt x="302" y="-271" on="1"/>
        <pt x="291" y="-267" on="0"/>
        <pt x="296" y="-255" on="1"/>
        <pt x="318" y="-183" on="1"/>
        <pt x="309" y="-174" on="0"/>
        <pt x="300" y="-158" on="0"/>
        <pt x="296" y="-151" on="1"/>
        <pt x="288" y="-137" on="0"/>
        <pt x="288" y="-97" on="0"/>
        <pt x="317" y="-70" on="0"/>
        <pt x="345" y="-70" on="1"/>
        <pt x="405" y="-70" on="0"/>
        <pt x="405" y="-123" on="1"/>
        <pt x="405" y="-154" on="0"/>
      </contour>
    </TTGlyph>
    <TTGlyph name="Gdotaccent" xMin="43" yMin="-12" xMax="675" yMax="873">
      <contour>
        <pt x="607" y="234" on="1"/>
        <pt x="607" y="64" on="1"/>
        <pt x="607" y="50" on="0"/>
        <pt x="593" y="43" on="1"/>
        <pt x="550" y="20" on="0"/>
        <pt x="423" y="-12" on="0"/>
        <pt x="282" y="-12" on="0"/>
        <pt x="154" y="42" on="0"/>
        <pt x="116" y="91" on="1"/>
        <pt x="43" y="187" on="0"/>
        <pt x="43" y="341" on="1"/>
        <pt x="43" y="435" on="0"/>
        <pt x="100" y="578" on="0"/>
        <pt x="147" y="618" on="1"/>
        <pt x="239" y="696" on="0"/>
        <pt x="478" y="696" on="0"/>
        <pt x="564" y="643" on="1"/>
        <pt x="578" y="635" on="0"/>
        <pt x="578" y="621" on="1"/>
        <pt x="578" y="496" on="1"/>
        <pt x="578" y="481" on="0"/>
        <pt x="563" y="481" on="1"/>
        <pt x="506" y="481" on="1"/>
        <pt x="491" y="481" on="0"/>
        <pt x="492" y="496" on="1"/>
        <pt x="495" y="563" on="1"/>
        <pt x="432" y="608" on="0"/>
        <pt x="285" y="608" on="0"/>
        <pt x="196" y="535" on="0"/>
        <pt x="163" y="428" on="0"/>
        <pt x="163" y="277" on="0"/>
        <pt x="200" y="157" on="0"/>
        <pt x="297" y="77" on="0"/>
        <pt x="452" y="77" on="0"/>
        <pt x="504" y="112" on="1"/>
        <pt x="504" y="234" on="1"/>
        <pt x="440" y="234" on="1"/>
        <pt x="425" y="234" on="0"/>
        <pt x="425" y="249" on="1"/>
        <pt x="425" y="299" on="1"/>
        <pt x="425" y="314" on="0"/>
        <pt x="440" y="314" on="1"/>
        <pt x="660" y="314" on="1"/>
        <pt x="675" y="314" on="0"/>
        <pt x="675" y="299" on="1"/>
        <pt x="675" y="249" on="1"/>
        <pt x="675" y="234" on="0"/>
        <pt x="660" y="234" on="1"/>
      </contour>
      <contour>
        <pt x="292" y="770" on="0"/>
        <pt x="292" y="832" on="0"/>
        <pt x="331" y="873" on="0"/>
        <pt x="396" y="873" on="0"/>
        <pt x="435" y="832" on="0"/>
        <pt x="435" y="770" on="0"/>
        <pt x="395" y="730" on="0"/>
        <pt x="330" y="730" on="0"/>
      </contour>
    </TTGlyph>
    <TTGlyph name="H" xMin="40" yMin="0" xMax="703" yMax="679">
      <contour>
        <pt x="220" y="598" on="1"/>
        <pt x="220" y="392" on="1"/>
        <pt x="523" y="392" on="1"/>
        <pt x="523" y="598" on="1"/>
        <pt x="470" y="598" on="1"/>
        <pt x="455" y="598" on="0"/>
        <pt x="455" y="613" on="1"/>
        <pt x="455" y="664" on="1"/>
        <pt x="455" y="679" on="0"/>
        <pt x="470" y="679" on="1"/>
        <pt x="688" y="679" on="1"/>
        <pt x="703" y="679" on="0"/>
        <pt x="703" y="664" on="1"/>
        <pt x="703" y="613" on="1"/>
        <pt x="703" y="598" on="0"/>
        <pt x="688" y="598" on="1"/>
        <pt x="635" y="598" on="1"/>
        <pt x="635" y="79" on="1"/>
        <pt x="688" y="79" on="1"/>
        <pt x="703" y="79" on="0"/>
        <pt x="703" y="64" on="1"/>
        <pt x="703" y="15" on="1"/>
        <pt x="703" y="0" on="0"/>
        <pt x="688" y="0" on="1"/>
        <pt x="470" y="0" on="1"/>
        <pt x="455" y="0" on="0"/>
        <pt x="455" y="15" on="1"/>
        <pt x="455" y="64" on="1"/>
        <pt x="455" y="79" on="0"/>
        <pt x="470" y="79" on="1"/>
        <pt x="523" y="79" on="1"/>
        <pt x="523" y="306" on="1"/>
        <pt x="220" y="306" on="1"/>
        <pt x="220" y="79" on="1"/>
        <pt x="273" y="79" on="1"/>
        <pt x="288" y="79" on="0"/>
        <pt x="288" y="64" on="1"/>
        <pt x="288" y="15" on="1"/>
        <pt x="288" y="0" on="0"/>
        <pt x="273" y="0" on="1"/>
        <pt x="55" y="0" on="1"/>
        <pt x="40" y="0" on="0"/>
        <pt x="40" y="15" on="1"/>
        <pt x="40" y="64" on="1"/>
        <pt x="40" y="79" on="0"/>
        <pt x="55" y="79" on="1"/>
        <pt x="108" y="79" on="1"/>
        <pt x="108" y="598" on="1"/>
        <pt x="55" y="598" on="1"/>
        <pt x="40" y="598" on="0"/>
        <pt x="40" y="613" on="1"/>
        <pt x="40" y="664" on="1"/>
        <pt x="40" y="679" on="0"/>
        <pt x="55" y="679" on="1"/>
        <pt x="273" y="679" on="1"/>
        <pt x="288" y="679" on="0"/>
        <pt x="288" y="664" on="1"/>
        <pt x="288" y="613" on="1"/>
        <pt x="288" y="598" on="0"/>
        <pt x="273" y="598" on="1"/>
      </contour>
    </TTGlyph>
    <TTGlyph name="Hbar" xMin="39" yMin="0" xMax="703" yMax="679">
      <contour>
        <pt x="220" y="598" on="1"/>
        <pt x="220" y="539" on="1"/>
        <pt x="523" y="539" on="1"/>
        <pt x="523" y="598" on="1"/>
        <pt x="470" y="598" on="1"/>
        <pt x="455" y="598" on="0"/>
        <pt x="455" y="613" on="1"/>
        <pt x="455" y="664" on="1"/>
        <pt x="455" y="679" on="0"/>
        <pt x="470" y="679" on="1"/>
        <pt x="688" y="679" on="1"/>
        <pt x="703" y="679" on="0"/>
        <pt x="703" y="664" on="1"/>
        <pt x="703" y="613" on="1"/>
        <pt x="703" y="598" on="0"/>
        <pt x="688" y="598" on="1"/>
        <pt x="635" y="598" on="1"/>
        <pt x="635" y="539" on="1"/>
        <pt x="684" y="539" on="1"/>
        <pt x="695" y="539" on="0"/>
        <pt x="703" y="531" on="0"/>
        <pt x="703" y="520" on="1"/>
        <pt x="703" y="505" on="1"/>
        <pt x="703" y="494" on="0"/>
        <pt x="695" y="486" on="0"/>
        <pt x="684" y="486" on="1"/>
        <pt x="635" y="486" on="1"/>
        <pt x="635" y="79" on="1"/>
        <pt x="688" y="79" on="1"/>
        <pt x="703" y="79" on="0"/>
        <pt x="703" y="64" on="1"/>
        <pt x="703" y="15" on="1"/>
        <pt x="703" y="0" on="0"/>
        <pt x="688" y="0" on="1"/>
        <pt x="470" y="0" on="1"/>
        <pt x="455" y="0" on="0"/>
        <pt x="455" y="15" on="1"/>
        <pt x="455" y="64" on="1"/>
        <pt x="455" y="79" on="0"/>
        <pt x="470" y="79" on="1"/>
        <pt x="523" y="79" on="1"/>
        <pt x="523" y="306" on="1"/>
        <pt x="220" y="306" on="1"/>
        <pt x="220" y="79" on="1"/>
        <pt x="273" y="79" on="1"/>
        <pt x="288" y="79" on="0"/>
        <pt x="288" y="64" on="1"/>
        <pt x="288" y="15" on="1"/>
        <pt x="288" y="0" on="0"/>
        <pt x="273" y="0" on="1"/>
        <pt x="55" y="0" on="1"/>
        <pt x="40" y="0" on="0"/>
        <pt x="40" y="15" on="1"/>
        <pt x="40" y="64" on="1"/>
        <pt x="40" y="79" on="0"/>
        <pt x="55" y="79" on="1"/>
        <pt x="108" y="79" on="1"/>
        <pt x="108" y="486" on="1"/>
        <pt x="58" y="486" on="1"/>
        <pt x="47" y="486" on="0"/>
        <pt x="39" y="494" on="0"/>
        <pt x="39" y="505" on="1"/>
        <pt x="39" y="520" on="1"/>
        <pt x="39" y="531" on="0"/>
        <pt x="47" y="539" on="0"/>
        <pt x="58" y="539" on="1"/>
        <pt x="108" y="539" on="1"/>
        <pt x="108" y="598" on="1"/>
        <pt x="55" y="598" on="1"/>
        <pt x="40" y="598" on="0"/>
        <pt x="40" y="613" on="1"/>
        <pt x="40" y="664" on="1"/>
        <pt x="40" y="679" on="0"/>
        <pt x="55" y="679" on="1"/>
        <pt x="273" y="679" on="1"/>
        <pt x="288" y="679" on="0"/>
        <pt x="288" y="664" on="1"/>
        <pt x="288" y="613" on="1"/>
        <pt x="288" y="598" on="0"/>
        <pt x="273" y="598" on="1"/>
      </contour>
      <contour>
        <pt x="220" y="392" on="1"/>
        <pt x="523" y="392" on="1"/>
        <pt x="523" y="486" on="1"/>
        <pt x="220" y="486" on="1"/>
      </contour>
    </TTGlyph>
    <TTGlyph name="Hcircumflex" xMin="40" yMin="0" xMax="703" yMax="863">
      <contour>
        <pt x="220" y="598" on="1"/>
        <pt x="220" y="392" on="1"/>
        <pt x="523" y="392" on="1"/>
        <pt x="523" y="598" on="1"/>
        <pt x="470" y="598" on="1"/>
        <pt x="455" y="598" on="0"/>
        <pt x="455" y="613" on="1"/>
        <pt x="455" y="664" on="1"/>
        <pt x="455" y="679" on="0"/>
        <pt x="470" y="679" on="1"/>
        <pt x="688" y="679" on="1"/>
        <pt x="703" y="679" on="0"/>
        <pt x="703" y="664" on="1"/>
        <pt x="703" y="613" on="1"/>
        <pt x="703" y="598" on="0"/>
        <pt x="688" y="598" on="1"/>
        <pt x="635" y="598" on="1"/>
        <pt x="635" y="79" on="1"/>
        <pt x="688" y="79" on="1"/>
        <pt x="703" y="79" on="0"/>
        <pt x="703" y="64" on="1"/>
        <pt x="703" y="15" on="1"/>
        <pt x="703" y="0" on="0"/>
        <pt x="688" y="0" on="1"/>
        <pt x="470" y="0" on="1"/>
        <pt x="455" y="0" on="0"/>
        <pt x="455" y="15" on="1"/>
        <pt x="455" y="64" on="1"/>
        <pt x="455" y="79" on="0"/>
        <pt x="470" y="79" on="1"/>
        <pt x="523" y="79" on="1"/>
        <pt x="523" y="306" on="1"/>
        <pt x="220" y="306" on="1"/>
        <pt x="220" y="79" on="1"/>
        <pt x="273" y="79" on="1"/>
        <pt x="288" y="79" on="0"/>
        <pt x="288" y="64" on="1"/>
        <pt x="288" y="15" on="1"/>
        <pt x="288" y="0" on="0"/>
        <pt x="273" y="0" on="1"/>
        <pt x="55" y="0" on="1"/>
        <pt x="40" y="0" on="0"/>
        <pt x="40" y="15" on="1"/>
        <pt x="40" y="64" on="1"/>
        <pt x="40" y="79" on="0"/>
        <pt x="55" y="79" on="1"/>
        <pt x="108" y="79" on="1"/>
        <pt x="108" y="598" on="1"/>
        <pt x="55" y="598" on="1"/>
        <pt x="40" y="598" on="0"/>
        <pt x="40" y="613" on="1"/>
        <pt x="40" y="664" on="1"/>
        <pt x="40" y="679" on="0"/>
        <pt x="55" y="679" on="1"/>
        <pt x="273" y="679" on="1"/>
        <pt x="288" y="679" on="0"/>
        <pt x="288" y="664" on="1"/>
        <pt x="288" y="613" on="1"/>
        <pt x="288" y="598" on="0"/>
        <pt x="273" y="598" on="1"/>
      </contour>
      <contour>
        <pt x="288" y="732" on="1"/>
        <pt x="233" y="732" on="1"/>
        <pt x="224" y="732" on="0"/>
        <pt x="224" y="740" on="0"/>
        <pt x="227" y="744" on="1"/>
        <pt x="309" y="851" on="1"/>
        <pt x="318" y="863" on="0"/>
        <pt x="333" y="863" on="1"/>
        <pt x="409" y="863" on="1"/>
        <pt x="424" y="863" on="0"/>
        <pt x="433" y="851" on="1"/>
        <pt x="515" y="744" on="1"/>
        <pt x="518" y="740" on="0"/>
        <pt x="518" y="732" on="0"/>
        <pt x="509" y="732" on="1"/>
        <pt x="452" y="732" on="1"/>
        <pt x="436" y="732" on="0"/>
        <pt x="427" y="744" on="1"/>
        <pt x="369" y="815" on="1"/>
        <pt x="312" y="744" on="1"/>
        <pt x="303" y="732" on="0"/>
      </contour>
    </TTGlyph>
    <TTGlyph name="I" xMin="40" yMin="0" xMax="288" yMax="679">
      <contour>
        <pt x="220" y="598" on="1"/>
        <pt x="220" y="79" on="1"/>
        <pt x="273" y="79" on="1"/>
        <pt x="288" y="79" on="0"/>
        <pt x="288" y="64" on="1"/>
        <pt x="288" y="15" on="1"/>
        <pt x="288" y="0" on="0"/>
        <pt x="273" y="0" on="1"/>
        <pt x="55" y="0" on="1"/>
        <pt x="40" y="0" on="0"/>
        <pt x="40" y="15" on="1"/>
        <pt x="40" y="64" on="1"/>
        <pt x="40" y="79" on="0"/>
        <pt x="55" y="79" on="1"/>
        <pt x="108" y="79" on="1"/>
        <pt x="108" y="598" on="1"/>
        <pt x="55" y="598" on="1"/>
        <pt x="40" y="598" on="0"/>
        <pt x="40" y="613" on="1"/>
        <pt x="40" y="664" on="1"/>
        <pt x="40" y="679" on="0"/>
        <pt x="55" y="679" on="1"/>
        <pt x="273" y="679" on="1"/>
        <pt x="288" y="679" on="0"/>
        <pt x="288" y="664" on="1"/>
        <pt x="288" y="613" on="1"/>
        <pt x="288" y="598" on="0"/>
        <pt x="273" y="598" on="1"/>
      </contour>
    </TTGlyph>
    <TTGlyph name="IJ" xMin="40" yMin="-240" xMax="617" yMax="679">
      <contour>
        <pt x="220" y="598" on="1"/>
        <pt x="220" y="79" on="1"/>
        <pt x="273" y="79" on="1"/>
        <pt x="288" y="79" on="0"/>
        <pt x="288" y="64" on="1"/>
        <pt x="288" y="15" on="1"/>
        <pt x="288" y="0" on="0"/>
        <pt x="273" y="0" on="1"/>
        <pt x="55" y="0" on="1"/>
        <pt x="40" y="0" on="0"/>
        <pt x="40" y="15" on="1"/>
        <pt x="40" y="64" on="1"/>
        <pt x="40" y="79" on="0"/>
        <pt x="55" y="79" on="1"/>
        <pt x="108" y="79" on="1"/>
        <pt x="108" y="598" on="1"/>
        <pt x="55" y="598" on="1"/>
        <pt x="40" y="598" on="0"/>
        <pt x="40" y="613" on="1"/>
        <pt x="40" y="664" on="1"/>
        <pt x="40" y="679" on="0"/>
        <pt x="55" y="679" on="1"/>
        <pt x="273" y="679" on="1"/>
        <pt x="288" y="679" on="0"/>
        <pt x="288" y="664" on="1"/>
        <pt x="288" y="613" on="1"/>
        <pt x="288" y="598" on="0"/>
        <pt x="273" y="598" on="1"/>
      </contour>
      <contour>
        <pt x="437" y="-38" on="1"/>
        <pt x="437" y="598" on="1"/>
        <pt x="384" y="598" on="1"/>
        <pt x="369" y="598" on="0"/>
        <pt x="369" y="613" on="1"/>
        <pt x="369" y="664" on="1"/>
        <pt x="369" y="679" on="0"/>
        <pt x="384" y="679" on="1"/>
        <pt x="602" y="679" on="1"/>
        <pt x="617" y="679" on="0"/>
        <pt x="617" y="664" on="1"/>
        <pt x="617" y="613" on="1"/>
        <pt x="617" y="598" on="0"/>
        <pt x="602" y="598" on="1"/>
        <pt x="549" y="598" on="1"/>
        <pt x="549" y="-42" on="1"/>
        <pt x="549" y="-240" on="0"/>
        <pt x="366" y="-240" on="1"/>
        <pt x="297" y="-240" on="0"/>
        <pt x="253" y="-219" on="1"/>
        <pt x="246" y="-216" on="0"/>
        <pt x="246" y="-205" on="0"/>
        <pt x="248" y="-200" on="1"/>
        <pt x="266" y="-148" on="1"/>
        <pt x="271" y="-133" on="0"/>
        <pt x="284" y="-138" on="1"/>
        <pt x="318" y="-151" on="0"/>
        <pt x="397" y="-151" on="0"/>
        <pt x="437" y="-99" on="0"/>
      </contour>
    </TTGlyph>
    <TTGlyph name="Iacute" xMin="40" yMin="0" xMax="288" yMax="858">
      <contour>
        <pt x="220" y="598" on="1"/>
        <pt x="220" y="79" on="1"/>
        <pt x="273" y="79" on="1"/>
        <pt x="288" y="79" on="0"/>
        <pt x="288" y="64" on="1"/>
        <pt x="288" y="15" on="1"/>
        <pt x="288" y="0" on="0"/>
        <pt x="273" y="0" on="1"/>
        <pt x="55" y="0" on="1"/>
        <pt x="40" y="0" on="0"/>
        <pt x="40" y="15" on="1"/>
        <pt x="40" y="64" on="1"/>
        <pt x="40" y="79" on="0"/>
        <pt x="55" y="79" on="1"/>
        <pt x="108" y="79" on="1"/>
        <pt x="108" y="598" on="1"/>
        <pt x="55" y="598" on="1"/>
        <pt x="40" y="598" on="0"/>
        <pt x="40" y="613" on="1"/>
        <pt x="40" y="664" on="1"/>
        <pt x="40" y="679" on="0"/>
        <pt x="55" y="679" on="1"/>
        <pt x="273" y="679" on="1"/>
        <pt x="288" y="679" on="0"/>
        <pt x="288" y="664" on="1"/>
        <pt x="288" y="613" on="1"/>
        <pt x="288" y="598" on="0"/>
        <pt x="273" y="598" on="1"/>
      </contour>
      <contour>
        <pt x="116" y="746" on="1"/>
        <pt x="161" y="844" on="1"/>
        <pt x="167" y="858" on="0"/>
        <pt x="182" y="858" on="1"/>
        <pt x="260" y="858" on="1"/>
        <pt x="269" y="858" on="0"/>
        <pt x="269" y="850" on="0"/>
        <pt x="266" y="846" on="1"/>
        <pt x="196" y="744" on="1"/>
        <pt x="188" y="732" on="0"/>
        <pt x="173" y="732" on="1"/>
        <pt x="125" y="732" on="1"/>
        <pt x="114" y="732" on="0"/>
        <pt x="114" y="739" on="1"/>
        <pt x="114" y="742" on="0"/>
      </contour>
    </TTGlyph>
    <TTGlyph name="Ibreve" xMin="4" yMin="0" xMax="333" yMax="872">
      <contour>
        <pt x="220" y="598" on="1"/>
        <pt x="220" y="79" on="1"/>
        <pt x="273" y="79" on="1"/>
        <pt x="288" y="79" on="0"/>
        <pt x="288" y="64" on="1"/>
        <pt x="288" y="15" on="1"/>
        <pt x="288" y="0" on="0"/>
        <pt x="273" y="0" on="1"/>
        <pt x="55" y="0" on="1"/>
        <pt x="40" y="0" on="0"/>
        <pt x="40" y="15" on="1"/>
        <pt x="40" y="64" on="1"/>
        <pt x="40" y="79" on="0"/>
        <pt x="55" y="79" on="1"/>
        <pt x="108" y="79" on="1"/>
        <pt x="108" y="598" on="1"/>
        <pt x="55" y="598" on="1"/>
        <pt x="40" y="598" on="0"/>
        <pt x="40" y="613" on="1"/>
        <pt x="40" y="664" on="1"/>
        <pt x="40" y="679" on="0"/>
        <pt x="55" y="679" on="1"/>
        <pt x="273" y="679" on="1"/>
        <pt x="288" y="679" on="0"/>
        <pt x="288" y="664" on="1"/>
        <pt x="288" y="613" on="1"/>
        <pt x="288" y="598" on="0"/>
        <pt x="273" y="598" on="1"/>
      </contour>
      <contour>
        <pt x="79" y="853" on="1"/>
        <pt x="90" y="811" on="0"/>
        <pt x="245" y="811" on="0"/>
        <pt x="258" y="853" on="1"/>
        <pt x="262" y="865" on="0"/>
        <pt x="272" y="872" on="0"/>
        <pt x="284" y="872" on="1"/>
        <pt x="315" y="872" on="1"/>
        <pt x="333" y="872" on="0"/>
        <pt x="333" y="857" on="1"/>
        <pt x="333" y="800" on="0"/>
        <pt x="241" y="735" on="0"/>
        <pt x="89" y="735" on="0"/>
        <pt x="6" y="797" on="0"/>
        <pt x="4" y="853" on="1"/>
        <pt x="4" y="864" on="0"/>
        <pt x="12" y="872" on="0"/>
        <pt x="23" y="872" on="1"/>
        <pt x="55" y="872" on="1"/>
        <pt x="67" y="872" on="0"/>
        <pt x="76" y="865" on="0"/>
      </contour>
    </TTGlyph>
    <TTGlyph name="Icircumflex" xMin="17" yMin="0" xMax="311" yMax="863">
      <contour>
        <pt x="220" y="598" on="1"/>
        <pt x="220" y="79" on="1"/>
        <pt x="273" y="79" on="1"/>
        <pt x="288" y="79" on="0"/>
        <pt x="288" y="64" on="1"/>
        <pt x="288" y="15" on="1"/>
        <pt x="288" y="0" on="0"/>
        <pt x="273" y="0" on="1"/>
        <pt x="55" y="0" on="1"/>
        <pt x="40" y="0" on="0"/>
        <pt x="40" y="15" on="1"/>
        <pt x="40" y="64" on="1"/>
        <pt x="40" y="79" on="0"/>
        <pt x="55" y="79" on="1"/>
        <pt x="108" y="79" on="1"/>
        <pt x="108" y="598" on="1"/>
        <pt x="55" y="598" on="1"/>
        <pt x="40" y="598" on="0"/>
        <pt x="40" y="613" on="1"/>
        <pt x="40" y="664" on="1"/>
        <pt x="40" y="679" on="0"/>
        <pt x="55" y="679" on="1"/>
        <pt x="273" y="679" on="1"/>
        <pt x="288" y="679" on="0"/>
        <pt x="288" y="664" on="1"/>
        <pt x="288" y="613" on="1"/>
        <pt x="288" y="598" on="0"/>
        <pt x="273" y="598" on="1"/>
      </contour>
      <contour>
        <pt x="81" y="732" on="1"/>
        <pt x="26" y="732" on="1"/>
        <pt x="17" y="732" on="0"/>
        <pt x="17" y="740" on="0"/>
        <pt x="20" y="744" on="1"/>
        <pt x="102" y="851" on="1"/>
        <pt x="111" y="863" on="0"/>
        <pt x="126" y="863" on="1"/>
        <pt x="202" y="863" on="1"/>
        <pt x="217" y="863" on="0"/>
        <pt x="226" y="851" on="1"/>
        <pt x="308" y="744" on="1"/>
        <pt x="311" y="740" on="0"/>
        <pt x="311" y="732" on="0"/>
        <pt x="302" y="732" on="1"/>
        <pt x="245" y="732" on="1"/>
        <pt x="229" y="732" on="0"/>
        <pt x="220" y="744" on="1"/>
        <pt x="162" y="815" on="1"/>
        <pt x="105" y="744" on="1"/>
        <pt x="96" y="732" on="0"/>
      </contour>
    </TTGlyph>
    <TTGlyph name="Idieresis" xMin="0" yMin="0" xMax="327" yMax="860">
      <contour>
        <pt x="220" y="598" on="1"/>
        <pt x="220" y="79" on="1"/>
        <pt x="273" y="79" on="1"/>
        <pt x="288" y="79" on="0"/>
        <pt x="288" y="64" on="1"/>
        <pt x="288" y="15" on="1"/>
        <pt x="288" y="0" on="0"/>
        <pt x="273" y="0" on="1"/>
        <pt x="55" y="0" on="1"/>
        <pt x="40" y="0" on="0"/>
        <pt x="40" y="15" on="1"/>
        <pt x="40" y="64" on="1"/>
        <pt x="40" y="79" on="0"/>
        <pt x="55" y="79" on="1"/>
        <pt x="108" y="79" on="1"/>
        <pt x="108" y="598" on="1"/>
        <pt x="55" y="598" on="1"/>
        <pt x="40" y="598" on="0"/>
        <pt x="40" y="613" on="1"/>
        <pt x="40" y="664" on="1"/>
        <pt x="40" y="679" on="0"/>
        <pt x="55" y="679" on="1"/>
        <pt x="273" y="679" on="1"/>
        <pt x="288" y="679" on="0"/>
        <pt x="288" y="664" on="1"/>
        <pt x="288" y="613" on="1"/>
        <pt x="288" y="598" on="0"/>
        <pt x="273" y="598" on="1"/>
      </contour>
      <contour>
        <pt x="327" y="771" on="0"/>
        <pt x="292" y="738" on="0"/>
        <pt x="237" y="738" on="0"/>
        <pt x="203" y="771" on="0"/>
        <pt x="203" y="828" on="0"/>
        <pt x="237" y="860" on="0"/>
        <pt x="265" y="860" on="1"/>
        <pt x="327" y="860" on="0"/>
        <pt x="327" y="800" on="1"/>
      </contour>
      <contour>
        <pt x="124" y="771" on="0"/>
        <pt x="89" y="738" on="0"/>
        <pt x="34" y="738" on="0"/>
        <pt x="0" y="771" on="0"/>
        <pt x="0" y="828" on="0"/>
        <pt x="34" y="860" on="0"/>
        <pt x="62" y="860" on="1"/>
        <pt x="124" y="860" on="0"/>
        <pt x="124" y="800" on="1"/>
      </contour>
    </TTGlyph>
    <TTGlyph name="Idotaccent" xMin="40" yMin="0" xMax="288" yMax="873">
      <contour>
        <pt x="220" y="598" on="1"/>
        <pt x="220" y="79" on="1"/>
        <pt x="273" y="79" on="1"/>
        <pt x="288" y="79" on="0"/>
        <pt x="288" y="64" on="1"/>
        <pt x="288" y="15" on="1"/>
        <pt x="288" y="0" on="0"/>
        <pt x="273" y="0" on="1"/>
        <pt x="55" y="0" on="1"/>
        <pt x="40" y="0" on="0"/>
        <pt x="40" y="15" on="1"/>
        <pt x="40" y="64" on="1"/>
        <pt x="40" y="79" on="0"/>
        <pt x="55" y="79" on="1"/>
        <pt x="108" y="79" on="1"/>
        <pt x="108" y="598" on="1"/>
        <pt x="55" y="598" on="1"/>
        <pt x="40" y="598" on="0"/>
        <pt x="40" y="613" on="1"/>
        <pt x="40" y="664" on="1"/>
        <pt x="40" y="679" on="0"/>
        <pt x="55" y="679" on="1"/>
        <pt x="273" y="679" on="1"/>
        <pt x="288" y="679" on="0"/>
        <pt x="288" y="664" on="1"/>
        <pt x="288" y="613" on="1"/>
        <pt x="288" y="598" on="0"/>
        <pt x="273" y="598" on="1"/>
      </contour>
      <contour>
        <pt x="89" y="770" on="0"/>
        <pt x="89" y="832" on="0"/>
        <pt x="128" y="873" on="0"/>
        <pt x="193" y="873" on="0"/>
        <pt x="232" y="832" on="0"/>
        <pt x="232" y="770" on="0"/>
        <pt x="192" y="730" on="0"/>
        <pt x="127" y="730" on="0"/>
      </contour>
    </TTGlyph>
    <TTGlyph name="Igrave" xMin="40" yMin="0" xMax="288" yMax="858">
      <contour>
        <pt x="220" y="598" on="1"/>
        <pt x="220" y="79" on="1"/>
        <pt x="273" y="79" on="1"/>
        <pt x="288" y="79" on="0"/>
        <pt x="288" y="64" on="1"/>
        <pt x="288" y="15" on="1"/>
        <pt x="288" y="0" on="0"/>
        <pt x="273" y="0" on="1"/>
        <pt x="55" y="0" on="1"/>
        <pt x="40" y="0" on="0"/>
        <pt x="40" y="15" on="1"/>
        <pt x="40" y="64" on="1"/>
        <pt x="40" y="79" on="0"/>
        <pt x="55" y="79" on="1"/>
        <pt x="108" y="79" on="1"/>
        <pt x="108" y="598" on="1"/>
        <pt x="55" y="598" on="1"/>
        <pt x="40" y="598" on="0"/>
        <pt x="40" y="613" on="1"/>
        <pt x="40" y="664" on="1"/>
        <pt x="40" y="679" on="0"/>
        <pt x="55" y="679" on="1"/>
        <pt x="273" y="679" on="1"/>
        <pt x="288" y="679" on="0"/>
        <pt x="288" y="664" on="1"/>
        <pt x="288" y="613" on="1"/>
        <pt x="288" y="598" on="0"/>
        <pt x="273" y="598" on="1"/>
      </contour>
      <contour>
        <pt x="161" y="841" on="1"/>
        <pt x="202" y="749" on="1"/>
        <pt x="204" y="744" on="0"/>
        <pt x="204" y="740" on="1"/>
        <pt x="204" y="732" on="0"/>
        <pt x="191" y="732" on="1"/>
        <pt x="151" y="732" on="1"/>
        <pt x="132" y="732" on="0"/>
        <pt x="121" y="747" on="1"/>
        <pt x="56" y="843" on="1"/>
        <pt x="52" y="848" on="0"/>
        <pt x="52" y="858" on="0"/>
        <pt x="64" y="858" on="1"/>
        <pt x="134" y="858" on="1"/>
        <pt x="146" y="858" on="0"/>
        <pt x="156" y="852" on="0"/>
      </contour>
    </TTGlyph>
    <TTGlyph name="Imacron" xMin="15" yMin="0" xMax="313" yMax="841">
      <contour>
        <pt x="220" y="598" on="1"/>
        <pt x="220" y="79" on="1"/>
        <pt x="273" y="79" on="1"/>
        <pt x="288" y="79" on="0"/>
        <pt x="288" y="64" on="1"/>
        <pt x="288" y="15" on="1"/>
        <pt x="288" y="0" on="0"/>
        <pt x="273" y="0" on="1"/>
        <pt x="55" y="0" on="1"/>
        <pt x="40" y="0" on="0"/>
        <pt x="40" y="15" on="1"/>
        <pt x="40" y="64" on="1"/>
        <pt x="40" y="79" on="0"/>
        <pt x="55" y="79" on="1"/>
        <pt x="108" y="79" on="1"/>
        <pt x="108" y="598" on="1"/>
        <pt x="55" y="598" on="1"/>
        <pt x="40" y="598" on="0"/>
        <pt x="40" y="613" on="1"/>
        <pt x="40" y="664" on="1"/>
        <pt x="40" y="679" on="0"/>
        <pt x="55" y="679" on="1"/>
        <pt x="273" y="679" on="1"/>
        <pt x="288" y="679" on="0"/>
        <pt x="288" y="664" on="1"/>
        <pt x="288" y="613" on="1"/>
        <pt x="288" y="598" on="0"/>
        <pt x="273" y="598" on="1"/>
      </contour>
      <contour>
        <pt x="294" y="760" on="1"/>
        <pt x="34" y="760" on="1"/>
        <pt x="23" y="760" on="0"/>
        <pt x="15" y="768" on="0"/>
        <pt x="15" y="779" on="1"/>
        <pt x="15" y="822" on="1"/>
        <pt x="15" y="833" on="0"/>
        <pt x="23" y="841" on="0"/>
        <pt x="34" y="841" on="1"/>
        <pt x="294" y="841" on="1"/>
        <pt x="305" y="841" on="0"/>
        <pt x="313" y="833" on="0"/>
        <pt x="313" y="822" on="1"/>
        <pt x="313" y="779" on="1"/>
        <pt x="313" y="768" on="0"/>
        <pt x="305" y="760" on="0"/>
      </contour>
    </TTGlyph>
    <TTGlyph name="Iogonek" xMin="40" yMin="-233" xMax="288" yMax="679">
      <contour>
        <pt x="62" y="-147" on="1"/>
        <pt x="62" y="-81" on="0"/>
        <pt x="149" y="0" on="1"/>
        <pt x="55" y="0" on="1"/>
        <pt x="40" y="0" on="0"/>
        <pt x="40" y="15" on="1"/>
        <pt x="40" y="64" on="1"/>
        <pt x="40" y="79" on="0"/>
        <pt x="55" y="79" on="1"/>
        <pt x="108" y="79" on="1"/>
        <pt x="108" y="598" on="1"/>
        <pt x="55" y="598" on="1"/>
        <pt x="40" y="598" on="0"/>
        <pt x="40" y="613" on="1"/>
        <pt x="40" y="664" on="1"/>
        <pt x="40" y="679" on="0"/>
        <pt x="55" y="679" on="1"/>
        <pt x="273" y="679" on="1"/>
        <pt x="288" y="679" on="0"/>
        <pt x="288" y="664" on="1"/>
        <pt x="288" y="613" on="1"/>
        <pt x="288" y="598" on="0"/>
        <pt x="273" y="598" on="1"/>
        <pt x="220" y="598" on="1"/>
        <pt x="220" y="79" on="1"/>
        <pt x="273" y="79" on="1"/>
        <pt x="288" y="79" on="0"/>
        <pt x="288" y="64" on="1"/>
        <pt x="288" y="15" on="1"/>
        <pt x="288" y="0" on="0"/>
        <pt x="273" y="0" on="1"/>
        <pt x="213" y="0" on="1"/>
        <pt x="141" y="-78" on="0"/>
        <pt x="141" y="-128" on="1"/>
        <pt x="141" y="-164" on="0"/>
        <pt x="174" y="-164" on="1"/>
        <pt x="192" y="-164" on="0"/>
        <pt x="226" y="-147" on="0"/>
        <pt x="232" y="-159" on="1"/>
        <pt x="242" y="-179" on="1"/>
        <pt x="250" y="-194" on="0"/>
        <pt x="235" y="-203" on="1"/>
        <pt x="191" y="-233" on="0"/>
        <pt x="106" y="-233" on="0"/>
        <pt x="62" y="-185" on="0"/>
      </contour>
    </TTGlyph>
    <TTGlyph name="Itilde" xMin="-6" yMin="0" xMax="334" yMax="858">
      <contour>
        <pt x="220" y="598" on="1"/>
        <pt x="220" y="79" on="1"/>
        <pt x="273" y="79" on="1"/>
        <pt x="288" y="79" on="0"/>
        <pt x="288" y="64" on="1"/>
        <pt x="288" y="15" on="1"/>
        <pt x="288" y="0" on="0"/>
        <pt x="273" y="0" on="1"/>
        <pt x="55" y="0" on="1"/>
        <pt x="40" y="0" on="0"/>
        <pt x="40" y="15" on="1"/>
        <pt x="40" y="64" on="1"/>
        <pt x="40" y="79" on="0"/>
        <pt x="55" y="79" on="1"/>
        <pt x="108" y="79" on="1"/>
        <pt x="108" y="598" on="1"/>
        <pt x="55" y="598" on="1"/>
        <pt x="40" y="598" on="0"/>
        <pt x="40" y="613" on="1"/>
        <pt x="40" y="664" on="1"/>
        <pt x="40" y="679" on="0"/>
        <pt x="55" y="679" on="1"/>
        <pt x="273" y="679" on="1"/>
        <pt x="288" y="679" on="0"/>
        <pt x="288" y="664" on="1"/>
        <pt x="288" y="613" on="1"/>
        <pt x="288" y="598" on="0"/>
        <pt x="273" y="598" on="1"/>
      </contour>
      <contour>
        <pt x="-6" y="817" on="0"/>
        <pt x="38" y="858" on="0"/>
        <pt x="94" y="858" on="0"/>
        <pt x="226" y="817" on="0"/>
        <pt x="249" y="817" on="1"/>
        <pt x="283" y="817" on="0"/>
        <pt x="283" y="844" on="1"/>
        <pt x="283" y="857" on="0"/>
        <pt x="298" y="857" on="1"/>
        <pt x="322" y="857" on="1"/>
        <pt x="334" y="857" on="0"/>
        <pt x="334" y="843" on="1"/>
        <pt x="334" y="793" on="0"/>
        <pt x="291" y="744" on="0"/>
        <pt x="226" y="744" on="0"/>
        <pt x="94" y="782" on="0"/>
        <pt x="79" y="782" on="1"/>
        <pt x="49" y="782" on="0"/>
        <pt x="49" y="760" on="1"/>
        <pt x="49" y="753" on="0"/>
        <pt x="45" y="750" on="0"/>
        <pt x="37" y="750" on="1"/>
        <pt x="6" y="750" on="1"/>
        <pt x="-6" y="750" on="0"/>
        <pt x="-6" y="764" on="1"/>
      </contour>
    </TTGlyph>
    <TTGlyph name="J" xMin="-82" yMin="-240" xMax="289" yMax="679">
      <contour>
        <pt x="109" y="-38" on="1"/>
        <pt x="109" y="598" on="1"/>
        <pt x="56" y="598" on="1"/>
        <pt x="41" y="598" on="0"/>
        <pt x="41" y="613" on="1"/>
        <pt x="41" y="664" on="1"/>
        <pt x="41" y="679" on="0"/>
        <pt x="56" y="679" on="1"/>
        <pt x="274" y="679" on="1"/>
        <pt x="289" y="679" on="0"/>
        <pt x="289" y="664" on="1"/>
        <pt x="289" y="613" on="1"/>
        <pt x="289" y="598" on="0"/>
        <pt x="274" y="598" on="1"/>
        <pt x="221" y="598" on="1"/>
        <pt x="221" y="-42" on="1"/>
        <pt x="221" y="-240" on="0"/>
        <pt x="38" y="-240" on="1"/>
        <pt x="-31" y="-240" on="0"/>
        <pt x="-75" y="-219" on="1"/>
        <pt x="-82" y="-216" on="0"/>
        <pt x="-82" y="-205" on="0"/>
        <pt x="-80" y="-200" on="1"/>
        <pt x="-62" y="-148" on="1"/>
        <pt x="-57" y="-133" on="0"/>
        <pt x="-44" y="-138" on="1"/>
        <pt x="-10" y="-151" on="0"/>
        <pt x="69" y="-151" on="0"/>
        <pt x="109" y="-99" on="0"/>
      </contour>
    </TTGlyph>
    <TTGlyph name="Jcircumflex" xMin="-82" yMin="-240" xMax="311" yMax="863">
      <contour>
        <pt x="109" y="-38" on="1"/>
        <pt x="109" y="598" on="1"/>
        <pt x="56" y="598" on="1"/>
        <pt x="41" y="598" on="0"/>
        <pt x="41" y="613" on="1"/>
        <pt x="41" y="664" on="1"/>
        <pt x="41" y="679" on="0"/>
        <pt x="56" y="679" on="1"/>
        <pt x="274" y="679" on="1"/>
        <pt x="289" y="679" on="0"/>
        <pt x="289" y="664" on="1"/>
        <pt x="289" y="613" on="1"/>
        <pt x="289" y="598" on="0"/>
        <pt x="274" y="598" on="1"/>
        <pt x="221" y="598" on="1"/>
        <pt x="221" y="-42" on="1"/>
        <pt x="221" y="-240" on="0"/>
        <pt x="38" y="-240" on="1"/>
        <pt x="-31" y="-240" on="0"/>
        <pt x="-75" y="-219" on="1"/>
        <pt x="-82" y="-216" on="0"/>
        <pt x="-82" y="-205" on="0"/>
        <pt x="-80" y="-200" on="1"/>
        <pt x="-62" y="-148" on="1"/>
        <pt x="-57" y="-133" on="0"/>
        <pt x="-44" y="-138" on="1"/>
        <pt x="-10" y="-151" on="0"/>
        <pt x="69" y="-151" on="0"/>
        <pt x="109" y="-99" on="0"/>
      </contour>
      <contour>
        <pt x="81" y="732" on="1"/>
        <pt x="26" y="732" on="1"/>
        <pt x="17" y="732" on="0"/>
        <pt x="17" y="740" on="0"/>
        <pt x="20" y="744" on="1"/>
        <pt x="102" y="851" on="1"/>
        <pt x="111" y="863" on="0"/>
        <pt x="126" y="863" on="1"/>
        <pt x="202" y="863" on="1"/>
        <pt x="217" y="863" on="0"/>
        <pt x="226" y="851" on="1"/>
        <pt x="308" y="744" on="1"/>
        <pt x="311" y="740" on="0"/>
        <pt x="311" y="732" on="0"/>
        <pt x="302" y="732" on="1"/>
        <pt x="245" y="732" on="1"/>
        <pt x="229" y="732" on="0"/>
        <pt x="220" y="744" on="1"/>
        <pt x="162" y="815" on="1"/>
        <pt x="105" y="744" on="1"/>
        <pt x="96" y="732" on="0"/>
      </contour>
    </TTGlyph>
    <TTGlyph name="K" xMin="40" yMin="0" xMax="639" yMax="679">
      <contour>
        <pt x="220" y="598" on="1"/>
        <pt x="220" y="384" on="1"/>
        <pt x="272" y="384" on="1"/>
        <pt x="458" y="598" on="1"/>
        <pt x="405" y="598" on="1"/>
        <pt x="390" y="598" on="0"/>
        <pt x="390" y="613" on="1"/>
        <pt x="390" y="664" on="1"/>
        <pt x="390" y="679" on="0"/>
        <pt x="405" y="679" on="1"/>
        <pt x="609" y="679" on="1"/>
        <pt x="624" y="679" on="0"/>
        <pt x="624" y="664" on="1"/>
        <pt x="624" y="611" on="1"/>
        <pt x="624" y="596" on="0"/>
        <pt x="609" y="596" on="1"/>
        <pt x="558" y="596" on="1"/>
        <pt x="360" y="365" on="1"/>
        <pt x="559" y="79" on="1"/>
        <pt x="624" y="79" on="1"/>
        <pt x="639" y="79" on="0"/>
        <pt x="639" y="64" on="1"/>
        <pt x="639" y="15" on="1"/>
        <pt x="639" y="0" on="0"/>
        <pt x="624" y="0" on="1"/>
        <pt x="496" y="0" on="1"/>
        <pt x="481" y="0" on="0"/>
        <pt x="472" y="12" on="1"/>
        <pt x="271" y="302" on="1"/>
        <pt x="220" y="302" on="1"/>
        <pt x="220" y="79" on="1"/>
        <pt x="273" y="79" on="1"/>
        <pt x="288" y="79" on="0"/>
        <pt x="288" y="64" on="1"/>
        <pt x="288" y="15" on="1"/>
        <pt x="288" y="0" on="0"/>
        <pt x="273" y="0" on="1"/>
        <pt x="55" y="0" on="1"/>
        <pt x="40" y="0" on="0"/>
        <pt x="40" y="15" on="1"/>
        <pt x="40" y="64" on="1"/>
        <pt x="40" y="79" on="0"/>
        <pt x="55" y="79" on="1"/>
        <pt x="108" y="79" on="1"/>
        <pt x="108" y="598" on="1"/>
        <pt x="55" y="598" on="1"/>
        <pt x="40" y="598" on="0"/>
        <pt x="40" y="613" on="1"/>
        <pt x="40" y="664" on="1"/>
        <pt x="40" y="679" on="0"/>
        <pt x="55" y="679" on="1"/>
        <pt x="273" y="679" on="1"/>
        <pt x="288" y="679" on="0"/>
        <pt x="288" y="664" on="1"/>
        <pt x="288" y="613" on="1"/>
        <pt x="288" y="598" on="0"/>
        <pt x="273" y="598" on="1"/>
      </contour>
    </TTGlyph>
    <TTGlyph name="Kcommaaccent" xMin="40" yMin="-277" xMax="639" yMax="679">
      <contour>
        <pt x="220" y="598" on="1"/>
        <pt x="220" y="384" on="1"/>
        <pt x="272" y="384" on="1"/>
        <pt x="458" y="598" on="1"/>
        <pt x="405" y="598" on="1"/>
        <pt x="390" y="598" on="0"/>
        <pt x="390" y="613" on="1"/>
        <pt x="390" y="664" on="1"/>
        <pt x="390" y="679" on="0"/>
        <pt x="405" y="679" on="1"/>
        <pt x="609" y="679" on="1"/>
        <pt x="624" y="679" on="0"/>
        <pt x="624" y="664" on="1"/>
        <pt x="624" y="611" on="1"/>
        <pt x="624" y="596" on="0"/>
        <pt x="609" y="596" on="1"/>
        <pt x="558" y="596" on="1"/>
        <pt x="360" y="365" on="1"/>
        <pt x="559" y="79" on="1"/>
        <pt x="624" y="79" on="1"/>
        <pt x="639" y="79" on="0"/>
        <pt x="639" y="64" on="1"/>
        <pt x="639" y="15" on="1"/>
        <pt x="639" y="0" on="0"/>
        <pt x="624" y="0" on="1"/>
        <pt x="496" y="0" on="1"/>
        <pt x="481" y="0" on="0"/>
        <pt x="472" y="12" on="1"/>
        <pt x="271" y="302" on="1"/>
        <pt x="220" y="302" on="1"/>
        <pt x="220" y="79" on="1"/>
        <pt x="273" y="79" on="1"/>
        <pt x="288" y="79" on="0"/>
        <pt x="288" y="64" on="1"/>
        <pt x="288" y="15" on="1"/>
        <pt x="288" y="0" on="0"/>
        <pt x="273" y="0" on="1"/>
        <pt x="55" y="0" on="1"/>
        <pt x="40" y="0" on="0"/>
        <pt x="40" y="15" on="1"/>
        <pt x="40" y="64" on="1"/>
        <pt x="40" y="79" on="0"/>
        <pt x="55" y="79" on="1"/>
        <pt x="108" y="79" on="1"/>
        <pt x="108" y="598" on="1"/>
        <pt x="55" y="598" on="1"/>
        <pt x="40" y="598" on="0"/>
        <pt x="40" y="613" on="1"/>
        <pt x="40" y="664" on="1"/>
        <pt x="40" y="679" on="0"/>
        <pt x="55" y="679" on="1"/>
        <pt x="273" y="679" on="1"/>
        <pt x="288" y="679" on="0"/>
        <pt x="288" y="664" on="1"/>
        <pt x="288" y="613" on="1"/>
        <pt x="288" y="598" on="0"/>
        <pt x="273" y="598" on="1"/>
      </contour>
      <contour>
        <pt x="357" y="-212" on="1"/>
        <pt x="319" y="-270" on="1"/>
        <pt x="314" y="-277" on="0"/>
        <pt x="305" y="-277" on="0"/>
        <pt x="302" y="-276" on="1"/>
        <pt x="290" y="-271" on="1"/>
        <pt x="279" y="-267" on="0"/>
        <pt x="284" y="-255" on="1"/>
        <pt x="306" y="-183" on="1"/>
        <pt x="297" y="-174" on="0"/>
        <pt x="288" y="-158" on="0"/>
        <pt x="284" y="-151" on="1"/>
        <pt x="276" y="-137" on="0"/>
        <pt x="276" y="-97" on="0"/>
        <pt x="305" y="-70" on="0"/>
        <pt x="333" y="-70" on="1"/>
        <pt x="393" y="-70" on="0"/>
        <pt x="393" y="-123" on="1"/>
        <pt x="393" y="-154" on="0"/>
      </contour>
    </TTGlyph>
    <TTGlyph name="L" xMin="40" yMin="-63" xMax="510" yMax="679">
      <contour>
        <pt x="220" y="598" on="1"/>
        <pt x="220" y="79" on="1"/>
        <pt x="429" y="79" on="1"/>
        <pt x="425" y="149" on="1"/>
        <pt x="424" y="164" on="0"/>
        <pt x="439" y="164" on="1"/>
        <pt x="495" y="164" on="1"/>
        <pt x="510" y="164" on="0"/>
        <pt x="510" y="149" on="1"/>
        <pt x="510" y="-48" on="1"/>
        <pt x="510" y="-63" on="0"/>
        <pt x="495" y="-63" on="1"/>
        <pt x="439" y="-63" on="1"/>
        <pt x="424" y="-63" on="0"/>
        <pt x="425" y="-48" on="1"/>
        <pt x="428" y="0" on="1"/>
        <pt x="55" y="0" on="1"/>
        <pt x="40" y="0" on="0"/>
        <pt x="40" y="15" on="1"/>
        <pt x="40" y="64" on="1"/>
        <pt x="40" y="79" on="0"/>
        <pt x="55" y="79" on="1"/>
        <pt x="108" y="79" on="1"/>
        <pt x="108" y="598" on="1"/>
        <pt x="55" y="598" on="1"/>
        <pt x="40" y="598" on="0"/>
        <pt x="40" y="613" on="1"/>
        <pt x="40" y="664" on="1"/>
        <pt x="40" y="679" on="0"/>
        <pt x="55" y="679" on="1"/>
        <pt x="293" y="679" on="1"/>
        <pt x="308" y="679" on="0"/>
        <pt x="308" y="664" on="1"/>
        <pt x="308" y="613" on="1"/>
        <pt x="308" y="598" on="0"/>
        <pt x="293" y="598" on="1"/>
      </contour>
    </TTGlyph>
    <TTGlyph name="Lacute" xMin="40" yMin="-63" xMax="510" yMax="858">
      <contour>
        <pt x="220" y="598" on="1"/>
        <pt x="220" y="79" on="1"/>
        <pt x="429" y="79" on="1"/>
        <pt x="425" y="149" on="1"/>
        <pt x="424" y="164" on="0"/>
        <pt x="439" y="164" on="1"/>
        <pt x="495" y="164" on="1"/>
        <pt x="510" y="164" on="0"/>
        <pt x="510" y="149" on="1"/>
        <pt x="510" y="-48" on="1"/>
        <pt x="510" y="-63" on="0"/>
        <pt x="495" y="-63" on="1"/>
        <pt x="439" y="-63" on="1"/>
        <pt x="424" y="-63" on="0"/>
        <pt x="425" y="-48" on="1"/>
        <pt x="428" y="0" on="1"/>
        <pt x="55" y="0" on="1"/>
        <pt x="40" y="0" on="0"/>
        <pt x="40" y="15" on="1"/>
        <pt x="40" y="64" on="1"/>
        <pt x="40" y="79" on="0"/>
        <pt x="55" y="79" on="1"/>
        <pt x="108" y="79" on="1"/>
        <pt x="108" y="598" on="1"/>
        <pt x="55" y="598" on="1"/>
        <pt x="40" y="598" on="0"/>
        <pt x="40" y="613" on="1"/>
        <pt x="40" y="664" on="1"/>
        <pt x="40" y="679" on="0"/>
        <pt x="55" y="679" on="1"/>
        <pt x="293" y="679" on="1"/>
        <pt x="308" y="679" on="0"/>
        <pt x="308" y="664" on="1"/>
        <pt x="308" y="613" on="1"/>
        <pt x="308" y="598" on="0"/>
        <pt x="293" y="598" on="1"/>
      </contour>
      <contour>
        <pt x="120" y="746" on="1"/>
        <pt x="165" y="844" on="1"/>
        <pt x="171" y="858" on="0"/>
        <pt x="186" y="858" on="1"/>
        <pt x="264" y="858" on="1"/>
        <pt x="273" y="858" on="0"/>
        <pt x="273" y="850" on="0"/>
        <pt x="270" y="846" on="1"/>
        <pt x="200" y="744" on="1"/>
        <pt x="192" y="732" on="0"/>
        <pt x="177" y="732" on="1"/>
        <pt x="129" y="732" on="1"/>
        <pt x="118" y="732" on="0"/>
        <pt x="118" y="739" on="1"/>
        <pt x="118" y="742" on="0"/>
      </contour>
    </TTGlyph>
    <TTGlyph name="Lcaron" xMin="40" yMin="-63" xMax="510" yMax="679">
      <contour>
        <pt x="220" y="598" on="1"/>
        <pt x="220" y="79" on="1"/>
        <pt x="429" y="79" on="1"/>
        <pt x="425" y="149" on="1"/>
        <pt x="424" y="164" on="0"/>
        <pt x="439" y="164" on="1"/>
        <pt x="495" y="164" on="1"/>
        <pt x="510" y="164" on="0"/>
        <pt x="510" y="149" on="1"/>
        <pt x="510" y="-48" on="1"/>
        <pt x="510" y="-63" on="0"/>
        <pt x="495" y="-63" on="1"/>
        <pt x="439" y="-63" on="1"/>
        <pt x="424" y="-63" on="0"/>
        <pt x="425" y="-48" on="1"/>
        <pt x="428" y="0" on="1"/>
        <pt x="55" y="0" on="1"/>
        <pt x="40" y="0" on="0"/>
        <pt x="40" y="15" on="1"/>
        <pt x="40" y="64" on="1"/>
        <pt x="40" y="79" on="0"/>
        <pt x="55" y="79" on="1"/>
        <pt x="108" y="79" on="1"/>
        <pt x="108" y="598" on="1"/>
        <pt x="55" y="598" on="1"/>
        <pt x="40" y="598" on="0"/>
        <pt x="40" y="613" on="1"/>
        <pt x="40" y="664" on="1"/>
        <pt x="40" y="679" on="0"/>
        <pt x="55" y="679" on="1"/>
        <pt x="293" y="679" on="1"/>
        <pt x="308" y="679" on="0"/>
        <pt x="308" y="664" on="1"/>
        <pt x="308" y="613" on="1"/>
        <pt x="308" y="598" on="0"/>
        <pt x="293" y="598" on="1"/>
      </contour>
      <contour>
        <pt x="371" y="664" on="1"/>
        <pt x="371" y="679" on="0"/>
        <pt x="386" y="679" on="1"/>
        <pt x="458" y="679" on="1"/>
        <pt x="472" y="679" on="0"/>
        <pt x="471" y="664" on="1"/>
        <pt x="439" y="474" on="1"/>
        <pt x="436" y="459" on="0"/>
        <pt x="421" y="459" on="1"/>
        <pt x="386" y="459" on="1"/>
        <pt x="371" y="459" on="0"/>
        <pt x="371" y="474" on="1"/>
      </contour>
    </TTGlyph>
    <TTGlyph name="Lcommaaccent" xMin="40" yMin="-277" xMax="510" yMax="679">
      <contour>
        <pt x="220" y="598" on="1"/>
        <pt x="220" y="79" on="1"/>
        <pt x="429" y="79" on="1"/>
        <pt x="425" y="149" on="1"/>
        <pt x="424" y="164" on="0"/>
        <pt x="439" y="164" on="1"/>
        <pt x="495" y="164" on="1"/>
        <pt x="510" y="164" on="0"/>
        <pt x="510" y="149" on="1"/>
        <pt x="510" y="-48" on="1"/>
        <pt x="510" y="-63" on="0"/>
        <pt x="495" y="-63" on="1"/>
        <pt x="439" y="-63" on="1"/>
        <pt x="424" y="-63" on="0"/>
        <pt x="425" y="-48" on="1"/>
        <pt x="428" y="0" on="1"/>
        <pt x="55" y="0" on="1"/>
        <pt x="40" y="0" on="0"/>
        <pt x="40" y="15" on="1"/>
        <pt x="40" y="64" on="1"/>
        <pt x="40" y="79" on="0"/>
        <pt x="55" y="79" on="1"/>
        <pt x="108" y="79" on="1"/>
        <pt x="108" y="598" on="1"/>
        <pt x="55" y="598" on="1"/>
        <pt x="40" y="598" on="0"/>
        <pt x="40" y="613" on="1"/>
        <pt x="40" y="664" on="1"/>
        <pt x="40" y="679" on="0"/>
        <pt x="55" y="679" on="1"/>
        <pt x="293" y="679" on="1"/>
        <pt x="308" y="679" on="0"/>
        <pt x="308" y="664" on="1"/>
        <pt x="308" y="613" on="1"/>
        <pt x="308" y="598" on="0"/>
        <pt x="293" y="598" on="1"/>
      </contour>
      <contour>
        <pt x="287" y="-212" on="1"/>
        <pt x="249" y="-270" on="1"/>
        <pt x="244" y="-277" on="0"/>
        <pt x="235" y="-277" on="0"/>
        <pt x="232" y="-276" on="1"/>
        <pt x="220" y="-271" on="1"/>
        <pt x="209" y="-267" on="0"/>
        <pt x="214" y="-255" on="1"/>
        <pt x="236" y="-183" on="1"/>
        <pt x="227" y="-174" on="0"/>
        <pt x="218" y="-158" on="0"/>
        <pt x="214" y="-151" on="1"/>
        <pt x="206" y="-137" on="0"/>
        <pt x="206" y="-97" on="0"/>
        <pt x="235" y="-70" on="0"/>
        <pt x="263" y="-70" on="1"/>
        <pt x="323" y="-70" on="0"/>
        <pt x="323" y="-123" on="1"/>
        <pt x="323" y="-154" on="0"/>
      </contour>
    </TTGlyph>
    <TTGlyph name="Ldot" xMin="40" yMin="-63" xMax="510" yMax="679">
      <contour>
        <pt x="220" y="598" on="1"/>
        <pt x="220" y="79" on="1"/>
        <pt x="429" y="79" on="1"/>
        <pt x="425" y="149" on="1"/>
        <pt x="424" y="164" on="0"/>
        <pt x="439" y="164" on="1"/>
        <pt x="495" y="164" on="1"/>
        <pt x="510" y="164" on="0"/>
        <pt x="510" y="149" on="1"/>
        <pt x="510" y="-48" on="1"/>
        <pt x="510" y="-63" on="0"/>
        <pt x="495" y="-63" on="1"/>
        <pt x="439" y="-63" on="1"/>
        <pt x="424" y="-63" on="0"/>
        <pt x="425" y="-48" on="1"/>
        <pt x="428" y="0" on="1"/>
        <pt x="55" y="0" on="1"/>
        <pt x="40" y="0" on="0"/>
        <pt x="40" y="15" on="1"/>
        <pt x="40" y="64" on="1"/>
        <pt x="40" y="79" on="0"/>
        <pt x="55" y="79" on="1"/>
        <pt x="108" y="79" on="1"/>
        <pt x="108" y="598" on="1"/>
        <pt x="55" y="598" on="1"/>
        <pt x="40" y="598" on="0"/>
        <pt x="40" y="613" on="1"/>
        <pt x="40" y="664" on="1"/>
        <pt x="40" y="679" on="0"/>
        <pt x="55" y="679" on="1"/>
        <pt x="293" y="679" on="1"/>
        <pt x="308" y="679" on="0"/>
        <pt x="308" y="664" on="1"/>
        <pt x="308" y="613" on="1"/>
        <pt x="308" y="598" on="0"/>
        <pt x="293" y="598" on="1"/>
      </contour>
      <contour>
        <pt x="344" y="296" on="0"/>
        <pt x="344" y="358" on="0"/>
        <pt x="383" y="399" on="0"/>
        <pt x="448" y="399" on="0"/>
        <pt x="487" y="358" on="0"/>
        <pt x="487" y="296" on="0"/>
        <pt x="447" y="256" on="0"/>
        <pt x="382" y="256" on="0"/>
      </contour>
    </TTGlyph>
    <TTGlyph name="Lslash" xMin="39" yMin="-63" xMax="510" yMax="679">
      <contour>
        <pt x="220" y="598" on="1"/>
        <pt x="220" y="386" on="1"/>
        <pt x="402" y="440" on="1"/>
        <pt x="412" y="443" on="0"/>
        <pt x="420" y="437" on="0"/>
        <pt x="420" y="426" on="1"/>
        <pt x="420" y="400" on="1"/>
        <pt x="420" y="388" on="0"/>
        <pt x="413" y="379" on="0"/>
        <pt x="402" y="376" on="1"/>
        <pt x="220" y="322" on="1"/>
        <pt x="220" y="79" on="1"/>
        <pt x="429" y="79" on="1"/>
        <pt x="425" y="149" on="1"/>
        <pt x="424" y="164" on="0"/>
        <pt x="439" y="164" on="1"/>
        <pt x="495" y="164" on="1"/>
        <pt x="510" y="164" on="0"/>
        <pt x="510" y="149" on="1"/>
        <pt x="510" y="-48" on="1"/>
        <pt x="510" y="-63" on="0"/>
        <pt x="495" y="-63" on="1"/>
        <pt x="439" y="-63" on="1"/>
        <pt x="424" y="-63" on="0"/>
        <pt x="425" y="-48" on="1"/>
        <pt x="428" y="0" on="1"/>
        <pt x="55" y="0" on="1"/>
        <pt x="40" y="0" on="0"/>
        <pt x="40" y="15" on="1"/>
        <pt x="40" y="64" on="1"/>
        <pt x="40" y="79" on="0"/>
        <pt x="55" y="79" on="1"/>
        <pt x="108" y="79" on="1"/>
        <pt x="108" y="296" on="1"/>
        <pt x="57" y="281" on="1"/>
        <pt x="46" y="278" on="0"/>
        <pt x="39" y="284" on="0"/>
        <pt x="39" y="295" on="1"/>
        <pt x="39" y="321" on="1"/>
        <pt x="39" y="333" on="0"/>
        <pt x="46" y="342" on="0"/>
        <pt x="57" y="345" on="1"/>
        <pt x="108" y="360" on="1"/>
        <pt x="108" y="598" on="1"/>
        <pt x="55" y="598" on="1"/>
        <pt x="40" y="598" on="0"/>
        <pt x="40" y="613" on="1"/>
        <pt x="40" y="664" on="1"/>
        <pt x="40" y="679" on="0"/>
        <pt x="55" y="679" on="1"/>
        <pt x="293" y="679" on="1"/>
        <pt x="308" y="679" on="0"/>
        <pt x="308" y="664" on="1"/>
        <pt x="308" y="613" on="1"/>
        <pt x="308" y="598" on="0"/>
        <pt x="293" y="598" on="1"/>
      </contour>
    </TTGlyph>
    <TTGlyph name="M" xMin="40" yMin="0" xMax="869" yMax="679">
      <contour>
        <pt x="476" y="0" on="1"/>
        <pt x="410" y="0" on="1"/>
        <pt x="395" y="0" on="0"/>
        <pt x="389" y="14" on="1"/>
        <pt x="195" y="507" on="1"/>
        <pt x="195" y="79" on="1"/>
        <pt x="258" y="79" on="1"/>
        <pt x="273" y="79" on="0"/>
        <pt x="273" y="64" on="1"/>
        <pt x="273" y="15" on="1"/>
        <pt x="273" y="0" on="0"/>
        <pt x="258" y="0" on="1"/>
        <pt x="55" y="0" on="1"/>
        <pt x="40" y="0" on="0"/>
        <pt x="40" y="15" on="1"/>
        <pt x="40" y="64" on="1"/>
        <pt x="40" y="79" on="0"/>
        <pt x="55" y="79" on="1"/>
        <pt x="108" y="79" on="1"/>
        <pt x="108" y="598" on="1"/>
        <pt x="55" y="598" on="1"/>
        <pt x="40" y="598" on="0"/>
        <pt x="40" y="613" on="1"/>
        <pt x="40" y="664" on="1"/>
        <pt x="40" y="679" on="0"/>
        <pt x="55" y="679" on="1"/>
        <pt x="230" y="679" on="1"/>
        <pt x="246" y="679" on="0"/>
        <pt x="250" y="665" on="1"/>
        <pt x="456" y="128" on="1"/>
        <pt x="667" y="665" on="1"/>
        <pt x="671" y="679" on="0"/>
        <pt x="687" y="679" on="1"/>
        <pt x="854" y="679" on="1"/>
        <pt x="869" y="679" on="0"/>
        <pt x="869" y="664" on="1"/>
        <pt x="869" y="613" on="1"/>
        <pt x="869" y="598" on="0"/>
        <pt x="854" y="598" on="1"/>
        <pt x="801" y="598" on="1"/>
        <pt x="801" y="79" on="1"/>
        <pt x="854" y="79" on="1"/>
        <pt x="869" y="79" on="0"/>
        <pt x="869" y="64" on="1"/>
        <pt x="869" y="15" on="1"/>
        <pt x="869" y="0" on="0"/>
        <pt x="854" y="0" on="1"/>
        <pt x="634" y="0" on="1"/>
        <pt x="619" y="0" on="0"/>
        <pt x="619" y="15" on="1"/>
        <pt x="619" y="64" on="1"/>
        <pt x="619" y="79" on="0"/>
        <pt x="634" y="79" on="1"/>
        <pt x="694" y="79" on="1"/>
        <pt x="694" y="506" on="1"/>
        <pt x="497" y="14" on="1"/>
        <pt x="491" y="0" on="0"/>
      </contour>
    </TTGlyph>
    <TTGlyph name="N" xMin="40" yMin="0" xMax="713" yMax="679">
      <contour>
        <pt x="645" y="598" on="1"/>
        <pt x="645" y="15" on="1"/>
        <pt x="645" y="0" on="0"/>
        <pt x="630" y="0" on="1"/>
        <pt x="557" y="0" on="1"/>
        <pt x="542" y="0" on="0"/>
        <pt x="534" y="12" on="1"/>
        <pt x="195" y="513" on="1"/>
        <pt x="195" y="79" on="1"/>
        <pt x="278" y="79" on="1"/>
        <pt x="293" y="79" on="0"/>
        <pt x="293" y="64" on="1"/>
        <pt x="293" y="15" on="1"/>
        <pt x="293" y="0" on="0"/>
        <pt x="278" y="0" on="1"/>
        <pt x="55" y="0" on="1"/>
        <pt x="40" y="0" on="0"/>
        <pt x="40" y="15" on="1"/>
        <pt x="40" y="64" on="1"/>
        <pt x="40" y="79" on="0"/>
        <pt x="55" y="79" on="1"/>
        <pt x="108" y="79" on="1"/>
        <pt x="108" y="598" on="1"/>
        <pt x="55" y="598" on="1"/>
        <pt x="40" y="598" on="0"/>
        <pt x="40" y="613" on="1"/>
        <pt x="40" y="664" on="1"/>
        <pt x="40" y="679" on="0"/>
        <pt x="55" y="679" on="1"/>
        <pt x="202" y="679" on="1"/>
        <pt x="216" y="679" on="0"/>
        <pt x="225" y="666" on="1"/>
        <pt x="558" y="160" on="1"/>
        <pt x="558" y="598" on="1"/>
        <pt x="505" y="598" on="1"/>
        <pt x="490" y="598" on="0"/>
        <pt x="490" y="613" on="1"/>
        <pt x="490" y="664" on="1"/>
        <pt x="490" y="679" on="0"/>
        <pt x="505" y="679" on="1"/>
        <pt x="698" y="679" on="1"/>
        <pt x="713" y="679" on="0"/>
        <pt x="713" y="664" on="1"/>
        <pt x="713" y="613" on="1"/>
        <pt x="713" y="598" on="0"/>
        <pt x="698" y="598" on="1"/>
      </contour>
    </TTGlyph>
    <TTGlyph name="Nacute" xMin="40" yMin="0" xMax="713" yMax="858">
      <contour>
        <pt x="645" y="598" on="1"/>
        <pt x="645" y="15" on="1"/>
        <pt x="645" y="0" on="0"/>
        <pt x="630" y="0" on="1"/>
        <pt x="557" y="0" on="1"/>
        <pt x="542" y="0" on="0"/>
        <pt x="534" y="12" on="1"/>
        <pt x="195" y="513" on="1"/>
        <pt x="195" y="79" on="1"/>
        <pt x="278" y="79" on="1"/>
        <pt x="293" y="79" on="0"/>
        <pt x="293" y="64" on="1"/>
        <pt x="293" y="15" on="1"/>
        <pt x="293" y="0" on="0"/>
        <pt x="278" y="0" on="1"/>
        <pt x="55" y="0" on="1"/>
        <pt x="40" y="0" on="0"/>
        <pt x="40" y="15" on="1"/>
        <pt x="40" y="64" on="1"/>
        <pt x="40" y="79" on="0"/>
        <pt x="55" y="79" on="1"/>
        <pt x="108" y="79" on="1"/>
        <pt x="108" y="598" on="1"/>
        <pt x="55" y="598" on="1"/>
        <pt x="40" y="598" on="0"/>
        <pt x="40" y="613" on="1"/>
        <pt x="40" y="664" on="1"/>
        <pt x="40" y="679" on="0"/>
        <pt x="55" y="679" on="1"/>
        <pt x="202" y="679" on="1"/>
        <pt x="216" y="679" on="0"/>
        <pt x="225" y="666" on="1"/>
        <pt x="558" y="160" on="1"/>
        <pt x="558" y="598" on="1"/>
        <pt x="505" y="598" on="1"/>
        <pt x="490" y="598" on="0"/>
        <pt x="490" y="613" on="1"/>
        <pt x="490" y="664" on="1"/>
        <pt x="490" y="679" on="0"/>
        <pt x="505" y="679" on="1"/>
        <pt x="698" y="679" on="1"/>
        <pt x="713" y="679" on="0"/>
        <pt x="713" y="664" on="1"/>
        <pt x="713" y="613" on="1"/>
        <pt x="713" y="598" on="0"/>
        <pt x="698" y="598" on="1"/>
      </contour>
      <contour>
        <pt x="340" y="746" on="1"/>
        <pt x="385" y="844" on="1"/>
        <pt x="391" y="858" on="0"/>
        <pt x="406" y="858" on="1"/>
        <pt x="484" y="858" on="1"/>
        <pt x="493" y="858" on="0"/>
        <pt x="493" y="850" on="0"/>
        <pt x="490" y="846" on="1"/>
        <pt x="420" y="744" on="1"/>
        <pt x="412" y="732" on="0"/>
        <pt x="397" y="732" on="1"/>
        <pt x="349" y="732" on="1"/>
        <pt x="338" y="732" on="0"/>
        <pt x="338" y="739" on="1"/>
        <pt x="338" y="742" on="0"/>
      </contour>
    </TTGlyph>
    <TTGlyph name="Ncaron" xMin="40" yMin="0" xMax="713" yMax="863">
      <contour>
        <pt x="645" y="598" on="1"/>
        <pt x="645" y="15" on="1"/>
        <pt x="645" y="0" on="0"/>
        <pt x="630" y="0" on="1"/>
        <pt x="557" y="0" on="1"/>
        <pt x="542" y="0" on="0"/>
        <pt x="534" y="12" on="1"/>
        <pt x="195" y="513" on="1"/>
        <pt x="195" y="79" on="1"/>
        <pt x="278" y="79" on="1"/>
        <pt x="293" y="79" on="0"/>
        <pt x="293" y="64" on="1"/>
        <pt x="293" y="15" on="1"/>
        <pt x="293" y="0" on="0"/>
        <pt x="278" y="0" on="1"/>
        <pt x="55" y="0" on="1"/>
        <pt x="40" y="0" on="0"/>
        <pt x="40" y="15" on="1"/>
        <pt x="40" y="64" on="1"/>
        <pt x="40" y="79" on="0"/>
        <pt x="55" y="79" on="1"/>
        <pt x="108" y="79" on="1"/>
        <pt x="108" y="598" on="1"/>
        <pt x="55" y="598" on="1"/>
        <pt x="40" y="598" on="0"/>
        <pt x="40" y="613" on="1"/>
        <pt x="40" y="664" on="1"/>
        <pt x="40" y="679" on="0"/>
        <pt x="55" y="679" on="1"/>
        <pt x="202" y="679" on="1"/>
        <pt x="216" y="679" on="0"/>
        <pt x="225" y="666" on="1"/>
        <pt x="558" y="160" on="1"/>
        <pt x="558" y="598" on="1"/>
        <pt x="505" y="598" on="1"/>
        <pt x="490" y="598" on="0"/>
        <pt x="490" y="613" on="1"/>
        <pt x="490" y="664" on="1"/>
        <pt x="490" y="679" on="0"/>
        <pt x="505" y="679" on="1"/>
        <pt x="698" y="679" on="1"/>
        <pt x="713" y="679" on="0"/>
        <pt x="713" y="664" on="1"/>
        <pt x="713" y="613" on="1"/>
        <pt x="713" y="598" on="0"/>
        <pt x="698" y="598" on="1"/>
      </contour>
      <contour>
        <pt x="464" y="863" on="1"/>
        <pt x="519" y="863" on="1"/>
        <pt x="528" y="863" on="0"/>
        <pt x="528" y="856" on="0"/>
        <pt x="525" y="851" on="1"/>
        <pt x="443" y="744" on="1"/>
        <pt x="434" y="732" on="0"/>
        <pt x="419" y="732" on="1"/>
        <pt x="343" y="732" on="1"/>
        <pt x="328" y="732" on="0"/>
        <pt x="319" y="744" on="1"/>
        <pt x="237" y="851" on="1"/>
        <pt x="234" y="856" on="0"/>
        <pt x="234" y="863" on="0"/>
        <pt x="243" y="863" on="1"/>
        <pt x="300" y="863" on="1"/>
        <pt x="316" y="863" on="0"/>
        <pt x="325" y="851" on="1"/>
        <pt x="383" y="780" on="1"/>
        <pt x="440" y="851" on="1"/>
        <pt x="449" y="863" on="0"/>
      </contour>
    </TTGlyph>
    <TTGlyph name="Ncommaaccent" xMin="40" yMin="-277" xMax="713" yMax="679">
      <contour>
        <pt x="645" y="598" on="1"/>
        <pt x="645" y="15" on="1"/>
        <pt x="645" y="0" on="0"/>
        <pt x="630" y="0" on="1"/>
        <pt x="557" y="0" on="1"/>
        <pt x="542" y="0" on="0"/>
        <pt x="534" y="12" on="1"/>
        <pt x="195" y="513" on="1"/>
        <pt x="195" y="79" on="1"/>
        <pt x="278" y="79" on="1"/>
        <pt x="293" y="79" on="0"/>
        <pt x="293" y="64" on="1"/>
        <pt x="293" y="15" on="1"/>
        <pt x="293" y="0" on="0"/>
        <pt x="278" y="0" on="1"/>
        <pt x="55" y="0" on="1"/>
        <pt x="40" y="0" on="0"/>
        <pt x="40" y="15" on="1"/>
        <pt x="40" y="64" on="1"/>
        <pt x="40" y="79" on="0"/>
        <pt x="55" y="79" on="1"/>
        <pt x="108" y="79" on="1"/>
        <pt x="108" y="598" on="1"/>
        <pt x="55" y="598" on="1"/>
        <pt x="40" y="598" on="0"/>
        <pt x="40" y="613" on="1"/>
        <pt x="40" y="664" on="1"/>
        <pt x="40" y="679" on="0"/>
        <pt x="55" y="679" on="1"/>
        <pt x="202" y="679" on="1"/>
        <pt x="216" y="679" on="0"/>
        <pt x="225" y="666" on="1"/>
        <pt x="558" y="160" on="1"/>
        <pt x="558" y="598" on="1"/>
        <pt x="505" y="598" on="1"/>
        <pt x="490" y="598" on="0"/>
        <pt x="490" y="613" on="1"/>
        <pt x="490" y="664" on="1"/>
        <pt x="490" y="679" on="0"/>
        <pt x="505" y="679" on="1"/>
        <pt x="698" y="679" on="1"/>
        <pt x="713" y="679" on="0"/>
        <pt x="713" y="664" on="1"/>
        <pt x="713" y="613" on="1"/>
        <pt x="713" y="598" on="0"/>
        <pt x="698" y="598" on="1"/>
      </contour>
      <contour>
        <pt x="407" y="-212" on="1"/>
        <pt x="369" y="-270" on="1"/>
        <pt x="364" y="-277" on="0"/>
        <pt x="355" y="-277" on="0"/>
        <pt x="352" y="-276" on="1"/>
        <pt x="340" y="-271" on="1"/>
        <pt x="329" y="-267" on="0"/>
        <pt x="334" y="-255" on="1"/>
        <pt x="356" y="-183" on="1"/>
        <pt x="347" y="-174" on="0"/>
        <pt x="338" y="-158" on="0"/>
        <pt x="334" y="-151" on="1"/>
        <pt x="326" y="-137" on="0"/>
        <pt x="326" y="-97" on="0"/>
        <pt x="355" y="-70" on="0"/>
        <pt x="383" y="-70" on="1"/>
        <pt x="443" y="-70" on="0"/>
        <pt x="443" y="-123" on="1"/>
        <pt x="443" y="-154" on="0"/>
      </contour>
    </TTGlyph>
    <TTGlyph name="Ntilde" xMin="40" yMin="0" xMax="713" yMax="858">
      <contour>
        <pt x="645" y="598" on="1"/>
        <pt x="645" y="15" on="1"/>
        <pt x="645" y="0" on="0"/>
        <pt x="630" y="0" on="1"/>
        <pt x="557" y="0" on="1"/>
        <pt x="542" y="0" on="0"/>
        <pt x="534" y="12" on="1"/>
        <pt x="195" y="513" on="1"/>
        <pt x="195" y="79" on="1"/>
        <pt x="278" y="79" on="1"/>
        <pt x="293" y="79" on="0"/>
        <pt x="293" y="64" on="1"/>
        <pt x="293" y="15" on="1"/>
        <pt x="293" y="0" on="0"/>
        <pt x="278" y="0" on="1"/>
        <pt x="55" y="0" on="1"/>
        <pt x="40" y="0" on="0"/>
        <pt x="40" y="15" on="1"/>
        <pt x="40" y="64" on="1"/>
        <pt x="40" y="79" on="0"/>
        <pt x="55" y="79" on="1"/>
        <pt x="108" y="79" on="1"/>
        <pt x="108" y="598" on="1"/>
        <pt x="55" y="598" on="1"/>
        <pt x="40" y="598" on="0"/>
        <pt x="40" y="613" on="1"/>
        <pt x="40" y="664" on="1"/>
        <pt x="40" y="679" on="0"/>
        <pt x="55" y="679" on="1"/>
        <pt x="202" y="679" on="1"/>
        <pt x="216" y="679" on="0"/>
        <pt x="225" y="666" on="1"/>
        <pt x="558" y="160" on="1"/>
        <pt x="558" y="598" on="1"/>
        <pt x="505" y="598" on="1"/>
        <pt x="490" y="598" on="0"/>
        <pt x="490" y="613" on="1"/>
        <pt x="490" y="664" on="1"/>
        <pt x="490" y="679" on="0"/>
        <pt x="505" y="679" on="1"/>
        <pt x="698" y="679" on="1"/>
        <pt x="713" y="679" on="0"/>
        <pt x="713" y="664" on="1"/>
        <pt x="713" y="613" on="1"/>
        <pt x="713" y="598" on="0"/>
        <pt x="698" y="598" on="1"/>
      </contour>
      <contour>
        <pt x="201" y="817" on="0"/>
        <pt x="245" y="858" on="0"/>
        <pt x="301" y="858" on="0"/>
        <pt x="433" y="817" on="0"/>
        <pt x="456" y="817" on="1"/>
        <pt x="490" y="817" on="0"/>
        <pt x="490" y="844" on="1"/>
        <pt x="490" y="857" on="0"/>
        <pt x="505" y="857" on="1"/>
        <pt x="529" y="857" on="1"/>
        <pt x="541" y="857" on="0"/>
        <pt x="541" y="843" on="1"/>
        <pt x="541" y="793" on="0"/>
        <pt x="498" y="744" on="0"/>
        <pt x="432" y="744" on="0"/>
        <pt x="300" y="782" on="0"/>
        <pt x="286" y="782" on="1"/>
        <pt x="256" y="782" on="0"/>
        <pt x="256" y="760" on="1"/>
        <pt x="256" y="753" on="0"/>
        <pt x="252" y="750" on="0"/>
        <pt x="244" y="750" on="1"/>
        <pt x="213" y="750" on="1"/>
        <pt x="201" y="750" on="0"/>
        <pt x="201" y="764" on="1"/>
      </contour>
    </TTGlyph>
    <TTGlyph name="O" xMin="43" yMin="-12" xMax="649" yMax="696">
      <contour>
        <pt x="43" y="333" on="1"/>
        <pt x="43" y="433" on="0"/>
        <pt x="103" y="582" on="0"/>
        <pt x="152" y="621" on="1"/>
        <pt x="245" y="696" on="0"/>
        <pt x="354" y="696" on="1"/>
        <pt x="391" y="696" on="0"/>
        <pt x="459" y="684" on="0"/>
        <pt x="545" y="643" on="0"/>
        <pt x="606" y="574" on="0"/>
        <pt x="649" y="446" on="0"/>
        <pt x="649" y="361" on="1"/>
        <pt x="649" y="181" on="0"/>
        <pt x="472" y="-12" on="0"/>
        <pt x="195" y="-12" on="0"/>
        <pt x="43" y="164" on="0"/>
      </contour>
      <contour>
        <pt x="345" y="82" on="1"/>
        <pt x="524" y="82" on="0"/>
        <pt x="524" y="608" on="0"/>
        <pt x="342" y="608" on="1"/>
        <pt x="278" y="608" on="0"/>
        <pt x="195" y="539" on="0"/>
        <pt x="163" y="436" on="0"/>
        <pt x="163" y="368" on="1"/>
        <pt x="163" y="82" on="0"/>
      </contour>
    </TTGlyph>
    <TTGlyph name="OE" xMin="50" yMin="-12" xMax="956" yMax="696">
      <contour>
        <pt x="855" y="599" on="1"/>
        <pt x="646" y="599" on="1"/>
        <pt x="646" y="386" on="1"/>
        <pt x="795" y="386" on="1"/>
        <pt x="791" y="433" on="1"/>
        <pt x="790" y="444" on="0"/>
        <pt x="798" y="452" on="0"/>
        <pt x="809" y="452" on="1"/>
        <pt x="857" y="452" on="1"/>
        <pt x="868" y="452" on="0"/>
        <pt x="876" y="444" on="0"/>
        <pt x="876" y="433" on="1"/>
        <pt x="876" y="264" on="1"/>
        <pt x="876" y="253" on="0"/>
        <pt x="868" y="245" on="0"/>
        <pt x="857" y="245" on="1"/>
        <pt x="809" y="245" on="1"/>
        <pt x="798" y="245" on="0"/>
        <pt x="790" y="253" on="0"/>
        <pt x="791" y="264" on="1"/>
        <pt x="794" y="308" on="1"/>
        <pt x="646" y="308" on="1"/>
        <pt x="646" y="82" on="1"/>
        <pt x="875" y="82" on="1"/>
        <pt x="871" y="145" on="1"/>
        <pt x="870" y="156" on="0"/>
        <pt x="878" y="164" on="0"/>
        <pt x="889" y="164" on="1"/>
        <pt x="937" y="164" on="1"/>
        <pt x="948" y="164" on="0"/>
        <pt x="956" y="156" on="0"/>
        <pt x="956" y="145" on="1"/>
        <pt x="956" y="19" on="1"/>
        <pt x="956" y="8" on="0"/>
        <pt x="948" y="0" on="0"/>
        <pt x="937" y="0" on="1"/>
        <pt x="553" y="0" on="1"/>
        <pt x="542" y="0" on="0"/>
        <pt x="534" y="8" on="0"/>
        <pt x="534" y="19" on="1"/>
        <pt x="534" y="55" on="1"/>
        <pt x="464" y="-12" on="0"/>
        <pt x="201" y="-12" on="0"/>
        <pt x="50" y="161" on="0"/>
        <pt x="50" y="330" on="1"/>
        <pt x="50" y="411" on="0"/>
        <pt x="91" y="541" on="0"/>
        <pt x="154" y="621" on="0"/>
        <pt x="196" y="648" on="1"/>
        <pt x="272" y="696" on="0"/>
        <pt x="467" y="696" on="0"/>
        <pt x="534" y="641" on="1"/>
        <pt x="534" y="660" on="1"/>
        <pt x="534" y="671" on="0"/>
        <pt x="542" y="679" on="0"/>
        <pt x="553" y="679" on="1"/>
        <pt x="917" y="679" on="1"/>
        <pt x="928" y="679" on="0"/>
        <pt x="936" y="671" on="0"/>
        <pt x="936" y="660" on="1"/>
        <pt x="936" y="534" on="1"/>
        <pt x="936" y="523" on="0"/>
        <pt x="928" y="515" on="0"/>
        <pt x="917" y="515" on="1"/>
        <pt x="869" y="515" on="1"/>
        <pt x="858" y="515" on="0"/>
        <pt x="850" y="523" on="0"/>
        <pt x="851" y="534" on="1"/>
      </contour>
      <contour>
        <pt x="170" y="368" on="1"/>
        <pt x="170" y="82" on="0"/>
        <pt x="352" y="82" on="1"/>
        <pt x="445" y="82" on="0"/>
        <pt x="531" y="221" on="0"/>
        <pt x="531" y="461" on="0"/>
        <pt x="445" y="608" on="0"/>
        <pt x="256" y="608" on="0"/>
        <pt x="170" y="472" on="0"/>
      </contour>
    </TTGlyph>
    <TTGlyph name="Oacute" xMin="43" yMin="-12" xMax="649" yMax="858">
      <contour>
        <pt x="43" y="333" on="1"/>
        <pt x="43" y="433" on="0"/>
        <pt x="103" y="582" on="0"/>
        <pt x="152" y="621" on="1"/>
        <pt x="245" y="696" on="0"/>
        <pt x="354" y="696" on="1"/>
        <pt x="391" y="696" on="0"/>
        <pt x="459" y="684" on="0"/>
        <pt x="545" y="643" on="0"/>
        <pt x="606" y="574" on="0"/>
        <pt x="649" y="446" on="0"/>
        <pt x="649" y="361" on="1"/>
        <pt x="649" y="181" on="0"/>
        <pt x="472" y="-12" on="0"/>
        <pt x="195" y="-12" on="0"/>
        <pt x="43" y="164" on="0"/>
      </contour>
      <contour>
        <pt x="345" y="82" on="1"/>
        <pt x="524" y="82" on="0"/>
        <pt x="524" y="608" on="0"/>
        <pt x="342" y="608" on="1"/>
        <pt x="278" y="608" on="0"/>
        <pt x="195" y="539" on="0"/>
        <pt x="163" y="436" on="0"/>
        <pt x="163" y="368" on="1"/>
        <pt x="163" y="82" on="0"/>
      </contour>
      <contour>
        <pt x="315" y="746" on="1"/>
        <pt x="360" y="844" on="1"/>
        <pt x="366" y="858" on="0"/>
        <pt x="381" y="858" on="1"/>
        <pt x="459" y="858" on="1"/>
        <pt x="468" y="858" on="0"/>
        <pt x="468" y="850" on="0"/>
        <pt x="465" y="846" on="1"/>
        <pt x="395" y="744" on="1"/>
        <pt x="388" y="732" on="0"/>
        <pt x="372" y="732" on="1"/>
        <pt x="324" y="732" on="1"/>
        <pt x="313" y="732" on="0"/>
        <pt x="313" y="739" on="1"/>
        <pt x="313" y="742" on="0"/>
      </contour>
    </TTGlyph>
    <TTGlyph name="Obreve" xMin="43" yMin="-12" xMax="649" yMax="872">
      <contour>
        <pt x="43" y="333" on="1"/>
        <pt x="43" y="433" on="0"/>
        <pt x="103" y="582" on="0"/>
        <pt x="152" y="621" on="1"/>
        <pt x="245" y="696" on="0"/>
        <pt x="354" y="696" on="1"/>
        <pt x="391" y="696" on="0"/>
        <pt x="459" y="684" on="0"/>
        <pt x="545" y="643" on="0"/>
        <pt x="606" y="574" on="0"/>
        <pt x="649" y="446" on="0"/>
        <pt x="649" y="361" on="1"/>
        <pt x="649" y="181" on="0"/>
        <pt x="472" y="-12" on="0"/>
        <pt x="195" y="-12" on="0"/>
        <pt x="43" y="164" on="0"/>
      </contour>
      <contour>
        <pt x="345" y="82" on="1"/>
        <pt x="524" y="82" on="0"/>
        <pt x="524" y="608" on="0"/>
        <pt x="342" y="608" on="1"/>
        <pt x="278" y="608" on="0"/>
        <pt x="195" y="539" on="0"/>
        <pt x="163" y="436" on="0"/>
        <pt x="163" y="368" on="1"/>
        <pt x="163" y="82" on="0"/>
      </contour>
      <contour>
        <pt x="270" y="853" on="1"/>
        <pt x="280" y="811" on="0"/>
        <pt x="436" y="811" on="0"/>
        <pt x="449" y="853" on="1"/>
        <pt x="453" y="865" on="0"/>
        <pt x="463" y="872" on="0"/>
        <pt x="475" y="872" on="1"/>
        <pt x="506" y="872" on="1"/>
        <pt x="524" y="872" on="0"/>
        <pt x="524" y="857" on="1"/>
        <pt x="524" y="800" on="0"/>
        <pt x="432" y="735" on="0"/>
        <pt x="280" y="735" on="0"/>
        <pt x="197" y="797" on="0"/>
        <pt x="195" y="853" on="1"/>
        <pt x="195" y="864" on="0"/>
        <pt x="203" y="872" on="0"/>
        <pt x="214" y="872" on="1"/>
        <pt x="246" y="872" on="1"/>
        <pt x="258" y="872" on="0"/>
        <pt x="267" y="865" on="0"/>
      </contour>
    </TTGlyph>
    <TTGlyph name="Ocircumflex" xMin="43" yMin="-12" xMax="649" yMax="863">
      <contour>
        <pt x="43" y="333" on="1"/>
        <pt x="43" y="433" on="0"/>
        <pt x="103" y="582" on="0"/>
        <pt x="152" y="621" on="1"/>
        <pt x="245" y="696" on="0"/>
        <pt x="354" y="696" on="1"/>
        <pt x="391" y="696" on="0"/>
        <pt x="459" y="684" on="0"/>
        <pt x="545" y="643" on="0"/>
        <pt x="606" y="574" on="0"/>
        <pt x="649" y="446" on="0"/>
        <pt x="649" y="361" on="1"/>
        <pt x="649" y="181" on="0"/>
        <pt x="472" y="-12" on="0"/>
        <pt x="195" y="-12" on="0"/>
        <pt x="43" y="164" on="0"/>
      </contour>
      <contour>
        <pt x="345" y="82" on="1"/>
        <pt x="524" y="82" on="0"/>
        <pt x="524" y="608" on="0"/>
        <pt x="342" y="608" on="1"/>
        <pt x="278" y="608" on="0"/>
        <pt x="195" y="539" on="0"/>
        <pt x="163" y="436" on="0"/>
        <pt x="163" y="368" on="1"/>
        <pt x="163" y="82" on="0"/>
      </contour>
      <contour>
        <pt x="273" y="732" on="1"/>
        <pt x="218" y="732" on="1"/>
        <pt x="209" y="732" on="0"/>
        <pt x="209" y="740" on="0"/>
        <pt x="212" y="744" on="1"/>
        <pt x="294" y="851" on="1"/>
        <pt x="303" y="863" on="0"/>
        <pt x="318" y="863" on="1"/>
        <pt x="394" y="863" on="1"/>
        <pt x="409" y="863" on="0"/>
        <pt x="418" y="851" on="1"/>
        <pt x="500" y="744" on="1"/>
        <pt x="503" y="740" on="0"/>
        <pt x="503" y="732" on="0"/>
        <pt x="494" y="732" on="1"/>
        <pt x="437" y="732" on="1"/>
        <pt x="421" y="732" on="0"/>
        <pt x="412" y="744" on="1"/>
        <pt x="354" y="815" on="1"/>
        <pt x="297" y="744" on="1"/>
        <pt x="288" y="732" on="0"/>
      </contour>
    </TTGlyph>
    <TTGlyph name="Odieresis" xMin="43" yMin="-12" xMax="649" yMax="860">
      <contour>
        <pt x="43" y="333" on="1"/>
        <pt x="43" y="433" on="0"/>
        <pt x="103" y="582" on="0"/>
        <pt x="152" y="621" on="1"/>
        <pt x="245" y="696" on="0"/>
        <pt x="354" y="696" on="1"/>
        <pt x="391" y="696" on="0"/>
        <pt x="459" y="684" on="0"/>
        <pt x="545" y="643" on="0"/>
        <pt x="606" y="574" on="0"/>
        <pt x="649" y="446" on="0"/>
        <pt x="649" y="361" on="1"/>
        <pt x="649" y="181" on="0"/>
        <pt x="472" y="-12" on="0"/>
        <pt x="195" y="-12" on="0"/>
        <pt x="43" y="164" on="0"/>
      </contour>
      <contour>
        <pt x="345" y="82" on="1"/>
        <pt x="524" y="82" on="0"/>
        <pt x="524" y="608" on="0"/>
        <pt x="342" y="608" on="1"/>
        <pt x="278" y="608" on="0"/>
        <pt x="195" y="539" on="0"/>
        <pt x="163" y="436" on="0"/>
        <pt x="163" y="368" on="1"/>
        <pt x="163" y="82" on="0"/>
      </contour>
      <contour>
        <pt x="509" y="771" on="0"/>
        <pt x="474" y="738" on="0"/>
        <pt x="419" y="738" on="0"/>
        <pt x="385" y="771" on="0"/>
        <pt x="385" y="828" on="0"/>
        <pt x="419" y="860" on="0"/>
        <pt x="447" y="860" on="1"/>
        <pt x="509" y="860" on="0"/>
        <pt x="509" y="800" on="1"/>
      </contour>
      <contour>
        <pt x="306" y="771" on="0"/>
        <pt x="271" y="738" on="0"/>
        <pt x="216" y="738" on="0"/>
        <pt x="182" y="771" on="0"/>
        <pt x="182" y="828" on="0"/>
        <pt x="216" y="860" on="0"/>
        <pt x="244" y="860" on="1"/>
        <pt x="306" y="860" on="0"/>
        <pt x="306" y="800" on="1"/>
      </contour>
    </TTGlyph>
    <TTGlyph name="Ograve" xMin="43" yMin="-12" xMax="649" yMax="858">
      <contour>
        <pt x="43" y="333" on="1"/>
        <pt x="43" y="433" on="0"/>
        <pt x="103" y="582" on="0"/>
        <pt x="152" y="621" on="1"/>
        <pt x="245" y="696" on="0"/>
        <pt x="354" y="696" on="1"/>
        <pt x="391" y="696" on="0"/>
        <pt x="459" y="684" on="0"/>
        <pt x="545" y="643" on="0"/>
        <pt x="606" y="574" on="0"/>
        <pt x="649" y="446" on="0"/>
        <pt x="649" y="361" on="1"/>
        <pt x="649" y="181" on="0"/>
        <pt x="472" y="-12" on="0"/>
        <pt x="195" y="-12" on="0"/>
        <pt x="43" y="164" on="0"/>
      </contour>
      <contour>
        <pt x="345" y="82" on="1"/>
        <pt x="524" y="82" on="0"/>
        <pt x="524" y="608" on="0"/>
        <pt x="342" y="608" on="1"/>
        <pt x="278" y="608" on="0"/>
        <pt x="195" y="539" on="0"/>
        <pt x="163" y="436" on="0"/>
        <pt x="163" y="368" on="1"/>
        <pt x="163" y="82" on="0"/>
      </contour>
      <contour>
        <pt x="364" y="841" on="1"/>
        <pt x="405" y="749" on="1"/>
        <pt x="407" y="744" on="0"/>
        <pt x="407" y="740" on="1"/>
        <pt x="407" y="732" on="0"/>
        <pt x="394" y="732" on="1"/>
        <pt x="354" y="732" on="1"/>
        <pt x="335" y="732" on="0"/>
        <pt x="324" y="747" on="1"/>
        <pt x="259" y="843" on="1"/>
        <pt x="255" y="848" on="0"/>
        <pt x="255" y="858" on="0"/>
        <pt x="267" y="858" on="1"/>
        <pt x="337" y="858" on="1"/>
        <pt x="356" y="858" on="0"/>
      </contour>
    </TTGlyph>
    <TTGlyph name="Ohungarumlaut" xMin="43" yMin="-12" xMax="649" yMax="858">
      <contour>
        <pt x="43" y="333" on="1"/>
        <pt x="43" y="433" on="0"/>
        <pt x="103" y="582" on="0"/>
        <pt x="152" y="621" on="1"/>
        <pt x="245" y="696" on="0"/>
        <pt x="354" y="696" on="1"/>
        <pt x="391" y="696" on="0"/>
        <pt x="459" y="684" on="0"/>
        <pt x="545" y="643" on="0"/>
        <pt x="606" y="574" on="0"/>
        <pt x="649" y="446" on="0"/>
        <pt x="649" y="361" on="1"/>
        <pt x="649" y="181" on="0"/>
        <pt x="472" y="-12" on="0"/>
        <pt x="195" y="-12" on="0"/>
        <pt x="43" y="164" on="0"/>
      </contour>
      <contour>
        <pt x="345" y="82" on="1"/>
        <pt x="524" y="82" on="0"/>
        <pt x="524" y="608" on="0"/>
        <pt x="342" y="608" on="1"/>
        <pt x="278" y="608" on="0"/>
        <pt x="195" y="539" on="0"/>
        <pt x="163" y="436" on="0"/>
        <pt x="163" y="368" on="1"/>
        <pt x="163" y="82" on="0"/>
      </contour>
      <contour>
        <pt x="395" y="746" on="1"/>
        <pt x="440" y="844" on="1"/>
        <pt x="446" y="858" on="0"/>
        <pt x="461" y="858" on="1"/>
        <pt x="529" y="858" on="1"/>
        <pt x="538" y="858" on="0"/>
        <pt x="538" y="850" on="0"/>
        <pt x="535" y="846" on="1"/>
        <pt x="465" y="744" on="1"/>
        <pt x="458" y="732" on="0"/>
        <pt x="442" y="732" on="1"/>
        <pt x="404" y="732" on="1"/>
        <pt x="389" y="732" on="0"/>
      </contour>
      <contour>
        <pt x="261" y="746" on="1"/>
        <pt x="306" y="844" on="1"/>
        <pt x="312" y="858" on="0"/>
        <pt x="327" y="858" on="1"/>
        <pt x="395" y="858" on="1"/>
        <pt x="404" y="858" on="0"/>
        <pt x="404" y="850" on="0"/>
        <pt x="401" y="846" on="1"/>
        <pt x="331" y="744" on="1"/>
        <pt x="324" y="732" on="0"/>
        <pt x="308" y="732" on="1"/>
        <pt x="270" y="732" on="1"/>
        <pt x="259" y="732" on="0"/>
        <pt x="259" y="739" on="1"/>
        <pt x="259" y="742" on="0"/>
      </contour>
    </TTGlyph>
    <TTGlyph name="Omacron" xMin="43" yMin="-12" xMax="649" yMax="841">
      <contour>
        <pt x="43" y="333" on="1"/>
        <pt x="43" y="433" on="0"/>
        <pt x="103" y="582" on="0"/>
        <pt x="152" y="621" on="1"/>
        <pt x="245" y="696" on="0"/>
        <pt x="354" y="696" on="1"/>
        <pt x="391" y="696" on="0"/>
        <pt x="459" y="684" on="0"/>
        <pt x="545" y="643" on="0"/>
        <pt x="606" y="574" on="0"/>
        <pt x="649" y="446" on="0"/>
        <pt x="649" y="361" on="1"/>
        <pt x="649" y="181" on="0"/>
        <pt x="472" y="-12" on="0"/>
        <pt x="195" y="-12" on="0"/>
        <pt x="43" y="164" on="0"/>
      </contour>
      <contour>
        <pt x="345" y="82" on="1"/>
        <pt x="524" y="82" on="0"/>
        <pt x="524" y="608" on="0"/>
        <pt x="342" y="608" on="1"/>
        <pt x="278" y="608" on="0"/>
        <pt x="195" y="539" on="0"/>
        <pt x="163" y="436" on="0"/>
        <pt x="163" y="368" on="1"/>
        <pt x="163" y="82" on="0"/>
      </contour>
      <contour>
        <pt x="476" y="760" on="1"/>
        <pt x="216" y="760" on="1"/>
        <pt x="205" y="760" on="0"/>
        <pt x="197" y="768" on="0"/>
        <pt x="197" y="779" on="1"/>
        <pt x="197" y="822" on="1"/>
        <pt x="197" y="833" on="0"/>
        <pt x="205" y="841" on="0"/>
        <pt x="216" y="841" on="1"/>
        <pt x="476" y="841" on="1"/>
        <pt x="487" y="841" on="0"/>
        <pt x="495" y="833" on="0"/>
        <pt x="495" y="822" on="1"/>
        <pt x="495" y="779" on="1"/>
        <pt x="495" y="768" on="0"/>
        <pt x="487" y="760" on="0"/>
      </contour>
    </TTGlyph>
    <TTGlyph name="Omega" xMin="72" yMin="0" xMax="721" yMax="697">
      <contour>
        <pt x="344" y="79" on="1"/>
        <pt x="359" y="73" on="0"/>
        <pt x="359" y="59" on="1"/>
        <pt x="359" y="15" on="1"/>
        <pt x="359" y="0" on="0"/>
        <pt x="344" y="0" on="1"/>
        <pt x="87" y="0" on="1"/>
        <pt x="72" y="0" on="0"/>
        <pt x="72" y="15" on="1"/>
        <pt x="72" y="64" on="1"/>
        <pt x="72" y="79" on="0"/>
        <pt x="87" y="79" on="1"/>
        <pt x="218" y="79" on="1"/>
        <pt x="158" y="119" on="0"/>
        <pt x="86" y="265" on="0"/>
        <pt x="86" y="350" on="1"/>
        <pt x="86" y="512" on="0"/>
        <pt x="259" y="697" on="0"/>
        <pt x="531" y="697" on="0"/>
        <pt x="693" y="519" on="0"/>
        <pt x="693" y="363" on="1"/>
        <pt x="693" y="275" on="0"/>
        <pt x="621" y="124" on="0"/>
        <pt x="560" y="79" on="1"/>
        <pt x="706" y="79" on="1"/>
        <pt x="721" y="79" on="0"/>
        <pt x="721" y="64" on="1"/>
        <pt x="721" y="15" on="1"/>
        <pt x="721" y="0" on="0"/>
        <pt x="706" y="0" on="1"/>
        <pt x="449" y="0" on="1"/>
        <pt x="434" y="0" on="0"/>
        <pt x="434" y="15" on="1"/>
        <pt x="434" y="59" on="1"/>
        <pt x="434" y="70" on="0"/>
        <pt x="447" y="78" on="1"/>
        <pt x="509" y="117" on="0"/>
        <pt x="577" y="243" on="0"/>
        <pt x="577" y="352" on="1"/>
        <pt x="577" y="608" on="0"/>
        <pt x="390" y="608" on="1"/>
        <pt x="301" y="608" on="0"/>
        <pt x="202" y="481" on="0"/>
        <pt x="202" y="347" on="1"/>
        <pt x="202" y="248" on="0"/>
        <pt x="283" y="103" on="0"/>
      </contour>
    </TTGlyph>
    <TTGlyph name="Oslash" xMin="43" yMin="-85" xMax="649" yMax="761">
      <contour>
        <pt x="43" y="333" on="1"/>
        <pt x="43" y="433" on="0"/>
        <pt x="103" y="582" on="0"/>
        <pt x="152" y="621" on="1"/>
        <pt x="245" y="696" on="0"/>
        <pt x="354" y="696" on="1"/>
        <pt x="395" y="696" on="0"/>
        <pt x="434" y="688" on="1"/>
        <pt x="455" y="743" on="1"/>
        <pt x="459" y="754" on="0"/>
        <pt x="468" y="761" on="0"/>
        <pt x="480" y="761" on="1"/>
        <pt x="511" y="761" on="1"/>
        <pt x="522" y="761" on="0"/>
        <pt x="528" y="754" on="0"/>
        <pt x="524" y="743" on="1"/>
        <pt x="496" y="667" on="1"/>
        <pt x="649" y="594" on="0"/>
        <pt x="649" y="361" on="1"/>
        <pt x="649" y="181" on="0"/>
        <pt x="472" y="-12" on="0"/>
        <pt x="333" y="-12" on="1"/>
        <pt x="286" y="-12" on="0"/>
        <pt x="249" y="-2" on="1"/>
        <pt x="225" y="-67" on="1"/>
        <pt x="221" y="-78" on="0"/>
        <pt x="212" y="-85" on="0"/>
        <pt x="200" y="-85" on="1"/>
        <pt x="170" y="-85" on="1"/>
        <pt x="159" y="-85" on="0"/>
        <pt x="153" y="-78" on="0"/>
        <pt x="157" y="-67" on="1"/>
        <pt x="189" y="19" on="1"/>
        <pt x="43" y="95" on="0"/>
      </contour>
      <contour>
        <pt x="345" y="82" on="1"/>
        <pt x="524" y="82" on="0"/>
        <pt x="524" y="342" on="1"/>
        <pt x="524" y="498" on="0"/>
        <pt x="458" y="564" on="1"/>
        <pt x="284" y="92" on="1"/>
        <pt x="312" y="82" on="0"/>
      </contour>
      <contour>
        <pt x="163" y="368" on="1"/>
        <pt x="163" y="194" on="0"/>
        <pt x="228" y="127" on="1"/>
        <pt x="402" y="599" on="1"/>
        <pt x="375" y="608" on="0"/>
        <pt x="342" y="608" on="1"/>
        <pt x="278" y="608" on="0"/>
        <pt x="195" y="539" on="0"/>
        <pt x="163" y="436" on="0"/>
      </contour>
    </TTGlyph>
    <TTGlyph name="Oslashacute" xMin="43" yMin="-85" xMax="649" yMax="858">
      <contour>
        <pt x="43" y="333" on="1"/>
        <pt x="43" y="433" on="0"/>
        <pt x="103" y="582" on="0"/>
        <pt x="152" y="621" on="1"/>
        <pt x="245" y="696" on="0"/>
        <pt x="354" y="696" on="1"/>
        <pt x="395" y="696" on="0"/>
        <pt x="434" y="688" on="1"/>
        <pt x="455" y="743" on="1"/>
        <pt x="459" y="754" on="0"/>
        <pt x="468" y="761" on="0"/>
        <pt x="480" y="761" on="1"/>
        <pt x="511" y="761" on="1"/>
        <pt x="522" y="761" on="0"/>
        <pt x="528" y="754" on="0"/>
        <pt x="524" y="743" on="1"/>
        <pt x="496" y="667" on="1"/>
        <pt x="649" y="594" on="0"/>
        <pt x="649" y="361" on="1"/>
        <pt x="649" y="181" on="0"/>
        <pt x="472" y="-12" on="0"/>
        <pt x="333" y="-12" on="1"/>
        <pt x="286" y="-12" on="0"/>
        <pt x="249" y="-2" on="1"/>
        <pt x="225" y="-67" on="1"/>
        <pt x="221" y="-78" on="0"/>
        <pt x="212" y="-85" on="0"/>
        <pt x="200" y="-85" on="1"/>
        <pt x="170" y="-85" on="1"/>
        <pt x="159" y="-85" on="0"/>
        <pt x="153" y="-78" on="0"/>
        <pt x="157" y="-67" on="1"/>
        <pt x="189" y="19" on="1"/>
        <pt x="43" y="95" on="0"/>
      </contour>
      <contour>
        <pt x="345" y="82" on="1"/>
        <pt x="524" y="82" on="0"/>
        <pt x="524" y="342" on="1"/>
        <pt x="524" y="498" on="0"/>
        <pt x="458" y="564" on="1"/>
        <pt x="284" y="92" on="1"/>
        <pt x="312" y="82" on="0"/>
      </contour>
      <contour>
        <pt x="163" y="368" on="1"/>
        <pt x="163" y="194" on="0"/>
        <pt x="228" y="127" on="1"/>
        <pt x="402" y="599" on="1"/>
        <pt x="375" y="608" on="0"/>
        <pt x="342" y="608" on="1"/>
        <pt x="278" y="608" on="0"/>
        <pt x="195" y="539" on="0"/>
        <pt x="163" y="436" on="0"/>
      </contour>
      <contour>
        <pt x="301" y="746" on="1"/>
        <pt x="346" y="844" on="1"/>
        <pt x="352" y="858" on="0"/>
        <pt x="367" y="858" on="1"/>
        <pt x="445" y="858" on="1"/>
        <pt x="454" y="858" on="0"/>
        <pt x="454" y="850" on="0"/>
        <pt x="451" y="846" on="1"/>
        <pt x="381" y="744" on="1"/>
        <pt x="374" y="732" on="0"/>
        <pt x="358" y="732" on="1"/>
        <pt x="310" y="732" on="1"/>
        <pt x="299" y="732" on="0"/>
        <pt x="299" y="739" on="1"/>
        <pt x="299" y="742" on="0"/>
      </contour>
    </TTGlyph>
    <TTGlyph name="Otilde" xMin="43" yMin="-12" xMax="649" yMax="858">
      <contour>
        <pt x="43" y="333" on="1"/>
        <pt x="43" y="433" on="0"/>
        <pt x="103" y="582" on="0"/>
        <pt x="152" y="621" on="1"/>
        <pt x="245" y="696" on="0"/>
        <pt x="354" y="696" on="1"/>
        <pt x="391" y="696" on="0"/>
        <pt x="459" y="684" on="0"/>
        <pt x="545" y="643" on="0"/>
        <pt x="606" y="574" on="0"/>
        <pt x="649" y="446" on="0"/>
        <pt x="649" y="361" on="1"/>
        <pt x="649" y="181" on="0"/>
        <pt x="472" y="-12" on="0"/>
        <pt x="195" y="-12" on="0"/>
        <pt x="43" y="164" on="0"/>
      </contour>
      <contour>
        <pt x="345" y="82" on="1"/>
        <pt x="524" y="82" on="0"/>
        <pt x="524" y="608" on="0"/>
        <pt x="342" y="608" on="1"/>
        <pt x="278" y="608" on="0"/>
        <pt x="195" y="539" on="0"/>
        <pt x="163" y="436" on="0"/>
        <pt x="163" y="368" on="1"/>
        <pt x="163" y="82" on="0"/>
      </contour>
      <contour>
        <pt x="176" y="817" on="0"/>
        <pt x="220" y="858" on="0"/>
        <pt x="276" y="858" on="0"/>
        <pt x="408" y="817" on="0"/>
        <pt x="431" y="817" on="1"/>
        <pt x="465" y="817" on="0"/>
        <pt x="465" y="844" on="1"/>
        <pt x="465" y="857" on="0"/>
        <pt x="480" y="857" on="1"/>
        <pt x="504" y="857" on="1"/>
        <pt x="516" y="857" on="0"/>
        <pt x="516" y="843" on="1"/>
        <pt x="516" y="793" on="0"/>
        <pt x="473" y="744" on="0"/>
        <pt x="408" y="744" on="0"/>
        <pt x="276" y="782" on="0"/>
        <pt x="261" y="782" on="1"/>
        <pt x="231" y="782" on="0"/>
        <pt x="231" y="760" on="1"/>
        <pt x="231" y="753" on="0"/>
        <pt x="227" y="750" on="0"/>
        <pt x="219" y="750" on="1"/>
        <pt x="188" y="750" on="1"/>
        <pt x="176" y="750" on="0"/>
        <pt x="176" y="764" on="1"/>
      </contour>
    </TTGlyph>
    <TTGlyph name="P" xMin="40" yMin="0" xMax="530" yMax="685">
      <contour>
        <pt x="40" y="15" on="1"/>
        <pt x="40" y="64" on="1"/>
        <pt x="40" y="79" on="0"/>
        <pt x="55" y="79" on="1"/>
        <pt x="107" y="79" on="1"/>
        <pt x="107" y="599" on="1"/>
        <pt x="55" y="599" on="1"/>
        <pt x="40" y="599" on="0"/>
        <pt x="40" y="614" on="1"/>
        <pt x="40" y="664" on="1"/>
        <pt x="40" y="679" on="0"/>
        <pt x="55" y="679" on="1"/>
        <pt x="183" y="685" on="0"/>
        <pt x="264" y="685" on="1"/>
        <pt x="530" y="685" on="0"/>
        <pt x="530" y="490" on="1"/>
        <pt x="530" y="389" on="0"/>
        <pt x="400" y="271" on="0"/>
        <pt x="288" y="271" on="1"/>
        <pt x="244" y="271" on="0"/>
        <pt x="219" y="274" on="1"/>
        <pt x="219" y="79" on="1"/>
        <pt x="302" y="79" on="1"/>
        <pt x="317" y="79" on="0"/>
        <pt x="317" y="64" on="1"/>
        <pt x="317" y="15" on="1"/>
        <pt x="317" y="0" on="0"/>
        <pt x="302" y="0" on="1"/>
        <pt x="55" y="0" on="1"/>
        <pt x="40" y="0" on="0"/>
      </contour>
      <contour>
        <pt x="219" y="602" on="1"/>
        <pt x="219" y="351" on="1"/>
        <pt x="228" y="350" on="0"/>
        <pt x="265" y="350" on="1"/>
        <pt x="415" y="350" on="0"/>
        <pt x="415" y="483" on="1"/>
        <pt x="415" y="531" on="0"/>
        <pt x="366" y="586" on="0"/>
        <pt x="301" y="602" on="0"/>
        <pt x="255" y="602" on="1"/>
      </contour>
    </TTGlyph>
    <TTGlyph name="Q" xMin="43" yMin="-163" xMax="649" yMax="696">
      <contour>
        <pt x="357" y="-11" on="1"/>
        <pt x="333" y="-12" on="1"/>
        <pt x="194" y="-12" on="0"/>
        <pt x="43" y="163" on="0"/>
        <pt x="43" y="332" on="1"/>
        <pt x="43" y="413" on="0"/>
        <pt x="84" y="542" on="0"/>
        <pt x="147" y="622" on="0"/>
        <pt x="190" y="648" on="1"/>
        <pt x="266" y="696" on="0"/>
        <pt x="354" y="696" on="1"/>
        <pt x="391" y="696" on="0"/>
        <pt x="459" y="684" on="0"/>
        <pt x="545" y="642" on="0"/>
        <pt x="606" y="573" on="0"/>
        <pt x="649" y="445" on="0"/>
        <pt x="649" y="360" on="1"/>
        <pt x="649" y="234" on="0"/>
        <pt x="559" y="65" on="0"/>
        <pt x="481" y="23" on="1"/>
        <pt x="500" y="-46" on="0"/>
        <pt x="572" y="-108" on="1"/>
        <pt x="583" y="-117" on="0"/>
        <pt x="574" y="-129" on="1"/>
        <pt x="551" y="-157" on="1"/>
        <pt x="546" y="-163" on="0"/>
        <pt x="535" y="-163" on="0"/>
        <pt x="529" y="-160" on="1"/>
        <pt x="397" y="-92" on="0"/>
      </contour>
      <contour>
        <pt x="345" y="82" on="1"/>
        <pt x="524" y="82" on="0"/>
        <pt x="524" y="608" on="0"/>
        <pt x="342" y="608" on="1"/>
        <pt x="278" y="608" on="0"/>
        <pt x="195" y="538" on="0"/>
        <pt x="163" y="435" on="0"/>
        <pt x="163" y="367" on="1"/>
        <pt x="163" y="82" on="0"/>
      </contour>
    </TTGlyph>
    <TTGlyph name="R" xMin="40" yMin="0" xMax="601" yMax="685">
      <contour>
        <pt x="40" y="15" on="1"/>
        <pt x="40" y="64" on="1"/>
        <pt x="40" y="79" on="0"/>
        <pt x="55" y="79" on="1"/>
        <pt x="107" y="79" on="1"/>
        <pt x="107" y="599" on="1"/>
        <pt x="55" y="599" on="1"/>
        <pt x="40" y="599" on="0"/>
        <pt x="40" y="614" on="1"/>
        <pt x="40" y="664" on="1"/>
        <pt x="40" y="679" on="0"/>
        <pt x="55" y="679" on="1"/>
        <pt x="183" y="685" on="0"/>
        <pt x="268" y="685" on="1"/>
        <pt x="528" y="685" on="0"/>
        <pt x="528" y="499" on="1"/>
        <pt x="528" y="434" on="0"/>
        <pt x="462" y="335" on="0"/>
        <pt x="407" y="309" on="1"/>
        <pt x="524" y="79" on="1"/>
        <pt x="586" y="79" on="1"/>
        <pt x="601" y="79" on="0"/>
        <pt x="601" y="64" on="1"/>
        <pt x="601" y="15" on="1"/>
        <pt x="601" y="0" on="0"/>
        <pt x="586" y="0" on="1"/>
        <pt x="454" y="0" on="1"/>
        <pt x="439" y="0" on="0"/>
        <pt x="432" y="13" on="1"/>
        <pt x="296" y="282" on="1"/>
        <pt x="276" y="282" on="1"/>
        <pt x="244" y="282" on="0"/>
        <pt x="219" y="285" on="1"/>
        <pt x="219" y="79" on="1"/>
        <pt x="282" y="79" on="1"/>
        <pt x="297" y="79" on="0"/>
        <pt x="297" y="64" on="1"/>
        <pt x="297" y="15" on="1"/>
        <pt x="297" y="0" on="0"/>
        <pt x="282" y="0" on="1"/>
        <pt x="55" y="0" on="1"/>
        <pt x="40" y="0" on="0"/>
      </contour>
      <contour>
        <pt x="219" y="602" on="1"/>
        <pt x="219" y="361" on="1"/>
        <pt x="227" y="360" on="0"/>
        <pt x="242" y="360" on="1"/>
        <pt x="323" y="360" on="0"/>
        <pt x="413" y="424" on="0"/>
        <pt x="413" y="488" on="1"/>
        <pt x="413" y="602" on="0"/>
        <pt x="255" y="602" on="1"/>
      </contour>
    </TTGlyph>
    <TTGlyph name="Racute" xMin="40" yMin="0" xMax="601" yMax="858">
      <contour>
        <pt x="40" y="15" on="1"/>
        <pt x="40" y="64" on="1"/>
        <pt x="40" y="79" on="0"/>
        <pt x="55" y="79" on="1"/>
        <pt x="107" y="79" on="1"/>
        <pt x="107" y="599" on="1"/>
        <pt x="55" y="599" on="1"/>
        <pt x="40" y="599" on="0"/>
        <pt x="40" y="614" on="1"/>
        <pt x="40" y="664" on="1"/>
        <pt x="40" y="679" on="0"/>
        <pt x="55" y="679" on="1"/>
        <pt x="183" y="685" on="0"/>
        <pt x="268" y="685" on="1"/>
        <pt x="528" y="685" on="0"/>
        <pt x="528" y="499" on="1"/>
        <pt x="528" y="434" on="0"/>
        <pt x="462" y="335" on="0"/>
        <pt x="407" y="309" on="1"/>
        <pt x="524" y="79" on="1"/>
        <pt x="586" y="79" on="1"/>
        <pt x="601" y="79" on="0"/>
        <pt x="601" y="64" on="1"/>
        <pt x="601" y="15" on="1"/>
        <pt x="601" y="0" on="0"/>
        <pt x="586" y="0" on="1"/>
        <pt x="454" y="0" on="1"/>
        <pt x="439" y="0" on="0"/>
        <pt x="432" y="13" on="1"/>
        <pt x="296" y="282" on="1"/>
        <pt x="276" y="282" on="1"/>
        <pt x="244" y="282" on="0"/>
        <pt x="219" y="285" on="1"/>
        <pt x="219" y="79" on="1"/>
        <pt x="282" y="79" on="1"/>
        <pt x="297" y="79" on="0"/>
        <pt x="297" y="64" on="1"/>
        <pt x="297" y="15" on="1"/>
        <pt x="297" y="0" on="0"/>
        <pt x="282" y="0" on="1"/>
        <pt x="55" y="0" on="1"/>
        <pt x="40" y="0" on="0"/>
      </contour>
      <contour>
        <pt x="219" y="602" on="1"/>
        <pt x="219" y="361" on="1"/>
        <pt x="227" y="360" on="0"/>
        <pt x="242" y="360" on="1"/>
        <pt x="323" y="360" on="0"/>
        <pt x="413" y="424" on="0"/>
        <pt x="413" y="488" on="1"/>
        <pt x="413" y="602" on="0"/>
        <pt x="255" y="602" on="1"/>
      </contour>
      <contour>
        <pt x="212" y="746" on="1"/>
        <pt x="257" y="844" on="1"/>
        <pt x="263" y="858" on="0"/>
        <pt x="278" y="858" on="1"/>
        <pt x="356" y="858" on="1"/>
        <pt x="365" y="858" on="0"/>
        <pt x="365" y="850" on="0"/>
        <pt x="362" y="846" on="1"/>
        <pt x="292" y="744" on="1"/>
        <pt x="284" y="732" on="0"/>
        <pt x="269" y="732" on="1"/>
        <pt x="221" y="732" on="1"/>
        <pt x="210" y="732" on="0"/>
        <pt x="210" y="739" on="1"/>
        <pt x="210" y="742" on="0"/>
      </contour>
    </TTGlyph>
    <TTGlyph name="Rcaron" xMin="40" yMin="0" xMax="601" yMax="863">
      <contour>
        <pt x="40" y="15" on="1"/>
        <pt x="40" y="64" on="1"/>
        <pt x="40" y="79" on="0"/>
        <pt x="55" y="79" on="1"/>
        <pt x="107" y="79" on="1"/>
        <pt x="107" y="599" on="1"/>
        <pt x="55" y="599" on="1"/>
        <pt x="40" y="599" on="0"/>
        <pt x="40" y="614" on="1"/>
        <pt x="40" y="664" on="1"/>
        <pt x="40" y="679" on="0"/>
        <pt x="55" y="679" on="1"/>
        <pt x="183" y="685" on="0"/>
        <pt x="268" y="685" on="1"/>
        <pt x="528" y="685" on="0"/>
        <pt x="528" y="499" on="1"/>
        <pt x="528" y="434" on="0"/>
        <pt x="462" y="335" on="0"/>
        <pt x="407" y="309" on="1"/>
        <pt x="524" y="79" on="1"/>
        <pt x="586" y="79" on="1"/>
        <pt x="601" y="79" on="0"/>
        <pt x="601" y="64" on="1"/>
        <pt x="601" y="15" on="1"/>
        <pt x="601" y="0" on="0"/>
        <pt x="586" y="0" on="1"/>
        <pt x="454" y="0" on="1"/>
        <pt x="439" y="0" on="0"/>
        <pt x="432" y="13" on="1"/>
        <pt x="296" y="282" on="1"/>
        <pt x="276" y="282" on="1"/>
        <pt x="244" y="282" on="0"/>
        <pt x="219" y="285" on="1"/>
        <pt x="219" y="79" on="1"/>
        <pt x="282" y="79" on="1"/>
        <pt x="297" y="79" on="0"/>
        <pt x="297" y="64" on="1"/>
        <pt x="297" y="15" on="1"/>
        <pt x="297" y="0" on="0"/>
        <pt x="282" y="0" on="1"/>
        <pt x="55" y="0" on="1"/>
        <pt x="40" y="0" on="0"/>
      </contour>
      <contour>
        <pt x="219" y="602" on="1"/>
        <pt x="219" y="361" on="1"/>
        <pt x="227" y="360" on="0"/>
        <pt x="242" y="360" on="1"/>
        <pt x="323" y="360" on="0"/>
        <pt x="413" y="424" on="0"/>
        <pt x="413" y="488" on="1"/>
        <pt x="413" y="602" on="0"/>
        <pt x="255" y="602" on="1"/>
      </contour>
      <contour>
        <pt x="348" y="863" on="1"/>
        <pt x="403" y="863" on="1"/>
        <pt x="412" y="863" on="0"/>
        <pt x="412" y="856" on="0"/>
        <pt x="409" y="851" on="1"/>
        <pt x="327" y="744" on="1"/>
        <pt x="318" y="732" on="0"/>
        <pt x="303" y="732" on="1"/>
        <pt x="227" y="732" on="1"/>
        <pt x="212" y="732" on="0"/>
        <pt x="203" y="744" on="1"/>
        <pt x="121" y="851" on="1"/>
        <pt x="118" y="856" on="0"/>
        <pt x="118" y="863" on="0"/>
        <pt x="127" y="863" on="1"/>
        <pt x="184" y="863" on="1"/>
        <pt x="200" y="863" on="0"/>
        <pt x="209" y="851" on="1"/>
        <pt x="267" y="780" on="1"/>
        <pt x="324" y="851" on="1"/>
        <pt x="333" y="863" on="0"/>
      </contour>
    </TTGlyph>
</ttFont>
